<?xml version="1.0" standalone="no"?>
<!DOCTYPE svg PUBLIC "-//W3C//DTD SVG 1.1//EN" "http://www.w3.org/Graphics/SVG/1.1/DTD/svg11.dtd" >
<svg xmlns="http://www.w3.org/2000/svg">
<metadata></metadata>
<defs>
<font id="sapientsansmediumitalicRg" horiz-adv-x="993" >
<font-face units-per-em="2048" ascent="1638" descent="-410" />
<missing-glyph horiz-adv-x="434" />
<glyph horiz-adv-x="0" />
<glyph unicode="&#xd;" horiz-adv-x="434" />
<glyph unicode=" "  horiz-adv-x="434" />
<glyph unicode="&#x09;" horiz-adv-x="434" />
<glyph unicode="&#xa0;" horiz-adv-x="434" />
<glyph unicode="!" horiz-adv-x="606" d="M147 0l39 223h211l-39 -223h-211zM254 434l139 1024h234l-221 -1024h-152z" />
<glyph unicode="&#x22;" horiz-adv-x="817" d="M244 1067l69 391h191l-70 -391h-190zM596 1067l70 391h190l-70 -391h-190z" />
<glyph unicode="#" horiz-adv-x="1247" d="M113 426l32 192h179l82 254h-154l35 193h178l129 401h203l-129 -401h256l129 401h200l-131 -401h148l-33 -193h-174l-82 -254h147l-32 -192h-178l-138 -426h-198l137 426h-258l-135 -426h-203l137 426h-147zM522 618h258l82 254h-258z" />
<glyph unicode="$" horiz-adv-x="1126" d="M-2 180l160 146q96 -129 286 -140l80 455l-47 6q-154 20 -231 117q-59 74 -60 186q0 43 9 92q31 176 153.5 291t304.5 133l33 185h154l-31 -183q211 -14 330 -163l-154 -140q-78 98 -227 111l-78 -442l61 -11q160 -27 232 -108q66 -76 65 -201q0 -47 -8 -98 q-33 -180 -163 -292t-318 -130l-41 -227h-154l39 221q-264 12 -395 192zM393 1051q-14 -86 30 -137.5t138 -65.5l76 426q-98 -10 -162.5 -70.5t-81.5 -152.5zM565 190q227 23 262 220q16 100 -26 151q-37 43 -158 64z" />
<glyph unicode="%" horiz-adv-x="1566" d="M186 924q0 29 7 61l34 207q23 129 115 207q86 74 199 74q98 0 159.5 -58.5t61.5 -159.5q0 -31 -6 -63l-37 -207q-23 -129 -111 -203.5t-202 -74.5q-98 0 -159 57t-61 160zM307 0l891 1458h154l-889 -1458h-156zM334 944q0 -98 96 -98q118 0 145 145l35 195q4 25 4 47 q0 100 -98 100q-119 0 -143 -147l-35 -195q-4 -27 -4 -47zM899 203q0 31 6 63l37 207q23 129 111 205t202 76q98 0 159 -58.5t61 -158.5q0 -31 -7 -64l-34 -207q-23 -129 -112 -204.5t-202 -75.5q-98 0 -159.5 58t-61.5 159zM1047 225q0 -100 98 -100q118 0 143 147l35 195 q4 25 4 47q0 100 -96 100q-119 0 -146 -147l-34 -195q-4 -27 -4 -47z" />
<glyph unicode="&#x26;" horiz-adv-x="1355" d="M102 319q0 49 9 103q25 137 127 246q72 78 211 166q-88 145 -89 253q0 29 5 60q27 141 132 232t253 91q125 0 196.5 -71.5t71.5 -188.5q0 -31 -6 -65q-27 -150 -189 -258l-112 -74l219 -367q88 106 123 293h184q-59 -291 -213 -448l174 -291h-248l-84 143 q-193 -156 -397 -155q-178 0 -272.5 88t-94.5 243zM297 377q0 -90 56.5 -144.5t148.5 -54.5q139 0 276 113l-246 411q-104 -70 -147 -114q-68 -70 -82 -162q-6 -27 -6 -49zM559 1118q0 -59 70 -174q23 14 73 47q127 85 127 183q0 115 -110 114q-68 0 -114 -50t-46 -120z" />
<glyph unicode="'" horiz-adv-x="464" d="M244 1067l69 391h191l-70 -391h-190z" />
<glyph unicode="(" horiz-adv-x="577" d="M113 240l172 979q29 154 86 237q45 66 186 195l107 -142q-70 -63 -72 -63q-33 -35 -60 -72q-37 -57 -57 -168l-168 -954q-18 -111 -2 -168q14 -43 82 -135l-154 -142q-53 72 -69 95q-33 51 -49 100q-29 84 -2 238z" />
<glyph unicode=")" horiz-adv-x="577" d="M10 -49q43 39 127 135q39 57 58 166l167 954q18 109 3 166q-16 49 -80 135l155 144q49 -66 68 -95q33 -51 49 -100q31 -88 4 -237l-174 -979q-25 -150 -86 -238q-49 -70 -184 -195z" />
<glyph unicode="*" horiz-adv-x="894" d="M193 954l237 125l-194 127l94 133l184 -141l39 266h141l-55 -266l235 141l46 -133l-238 -127l195 -125l-95 -133l-184 142l-39 -269h-141l55 269l-235 -142z" />
<glyph unicode="+" horiz-adv-x="985" d="M86 461l35 194h315l62 342h178l-60 -342h316l-33 -194h-317l-62 -344h-178l61 344h-317z" />
<glyph unicode="," horiz-adv-x="493" d="M0 -317l98 555h217l-63 -361z" />
<glyph unicode="-" horiz-adv-x="784" d="M119 471l33 195h550l-34 -195h-549z" />
<glyph unicode="." horiz-adv-x="505" d="M55 0l45 250h230l-45 -250h-230z" />
<glyph unicode="/" horiz-adv-x="696" d="M-119 -152l848 1762h184l-845 -1762h-187z" />
<glyph unicode="0" horiz-adv-x="1169" d="M178 313q0 45 8 93l115 647q33 190 168 307q127 111 293 110q141 0 231 -88t90 -237q0 -45 -8 -92l-114 -647q-33 -190 -165 -304t-296 -114q-143 0 -232.5 87t-89.5 238zM375 348q0 -174 157 -174q90 0 155 66t83 172l113 635q6 33 6 61q0 176 -160 176 q-92 0 -154.5 -64.5t-82.5 -172.5l-111 -635q-6 -33 -6 -64z" />
<glyph unicode="1" horiz-adv-x="894" d="M254 981l41 231l305 246h193l-256 -1458h-193l217 1231z" />
<glyph unicode="2" horiz-adv-x="1130" d="M90 0l33 186l637 682q88 94 106 195q4 29 4 55q0 166 -161 166q-84 0 -146 -51q-72 -59 -92 -174h-192q33 184 161.5 297.5t300.5 113.5q152 0 239 -83.5t87 -231.5q0 -45 -8 -94q-27 -147 -182 -316l-519 -559h545l-33 -186h-780z" />
<glyph unicode="3" horiz-adv-x="1146" d="M125 309q0 41 8 86h191q-2 -23 -2 -43q0 -178 182 -178q96 0 168.5 64.5t93.5 177.5q6 35 6 63q0 176 -188 176h-33l33 183h32q203 0 242 221q4 29 4 55q0 82 -45 126t-117 44q-186 0 -239 -209h-193q41 182 171 290t294 108q150 0 238 -87.5t88 -234.5q0 -41 -8 -86 q-39 -221 -222 -311q135 -72 136 -248q-1 -45 -9 -96q-35 -203 -178 -318q-131 -106 -307 -106q-154 0 -246 77q-100 86 -100 246z" />
<glyph unicode="4" horiz-adv-x="1110" d="M78 219l33 195l657 1044h207l-656 -1044h334l60 340h188l-61 -340h143l-35 -195h-141l-39 -219h-186l36 219h-540z" />
<glyph unicode="5" horiz-adv-x="1171" d="M182 297q0 37 6 80h191q-10 -203 162 -203q86 0 149 57q76 70 109 256q12 72 12 123q0 182 -154 183q-154 0 -215 -131h-174l140 796h725l-33 -186h-551l-68 -385q88 84 238 84q154 0 221.5 -91.5t67.5 -226.5q-1 -68 -17 -166q-47 -264 -182 -387q-125 -115 -303 -114 q-182 0 -266 112q-57 78 -58 199z" />
<glyph unicode="6" horiz-adv-x="1091" d="M127 322q0 49 10 102q25 137 164 358l424 676h205l-398 -627q51 23 121 23q129 0 209 -88t80 -236q0 -47 -10 -98q-35 -201 -167 -322.5t-306 -121.5q-152 0 -242 89t-90 245zM324 360q0 -86 44 -136t121 -50q90 0 160 69.5t90 184.5q6 33 6 64q0 86 -44 137t-123 51 q-90 0 -159 -67.5t-89 -184.5q-6 -35 -6 -68z" />
<glyph unicode="7" horiz-adv-x="1052" d="M207 0l674 1272h-408l-41 -230h-184l74 416h798l-33 -186l-673 -1272h-207z" />
<glyph unicode="8" horiz-adv-x="1173" d="M156 322q0 43 8 90q39 221 244 342q-113 86 -113 239q0 35 6 74q33 180 164 291.5t297 111.5q147 0 238.5 -87t91.5 -232q0 -41 -9 -84q-37 -207 -217 -313q131 -96 131 -262q0 -39 -6 -80q-35 -193 -173 -308.5t-316 -115.5q-156 0 -251 89t-95 245zM352 369 q0 -86 50.5 -140.5t132.5 -54.5q109 0 190 92q76 88 76 199q0 84 -50.5 139t-129.5 55q-111 0 -190 -90t-79 -200zM487 1012q0 -78 44 -125t120 -47q88 0 155 62.5t85 158.5q4 25 4 47q0 78 -45 127t-121 49q-86 0 -152.5 -63.5t-82.5 -159.5q-6 -27 -7 -49z" />
<glyph unicode="9" horiz-adv-x="1091" d="M244 926q0 49 10 100q35 201 167 322.5t306 121.5q152 0 241 -89t89 -244q0 -50 -8 -103q-25 -137 -164 -358l-424 -676h-207l399 627q-53 -23 -125 -23q-127 0 -205.5 87t-78.5 235zM440 967q0 -86 43 -137.5t121 -51.5q92 0 161 67.5t89 184.5q6 35 6 66q0 88 -44 138 t-122 50q-92 0 -159.5 -68.5t-88.5 -185.5q-6 -33 -6 -63z" />
<glyph unicode=":" horiz-adv-x="552" d="M104 0l46 250h227l-45 -250h-228zM207 584l45 250h227l-43 -250h-229z" />
<glyph unicode=";" horiz-adv-x="552" d="M53 -317l97 555h219l-64 -361zM207 584l45 250h227l-43 -250h-229z" />
<glyph unicode="&#x3c;" horiz-adv-x="1916" d="M106 567l881 803h246l-774 -702h1403l-35 -199h-1403l526 -702h-245z" />
<glyph unicode="=" horiz-adv-x="985" d="M53 272l35 195h811l-35 -195h-811zM123 670l35 194h811l-35 -194h-811z" />
<glyph unicode="&#x3e;" horiz-adv-x="1916" d="M90 469l35 199h1403l-527 702h248l596 -803l-878 -800h-248l774 702h-1403z" />
<glyph unicode="?" horiz-adv-x="944" d="M231 1077q31 172 158 282.5t287 110.5q139 0 227 -83.5t88 -225.5q0 -39 -6 -82q-20 -115 -135 -252l-184 -221q-43 -51 -54 -110l-10 -62h-192l12 72q18 109 100 203l185 215q90 104 90 198q0 72 -41 117t-113 45q-84 0 -143.5 -60.5t-75.5 -146.5h-193zM322 0l38 223 h213l-38 -223h-213z" />
<glyph unicode="@" horiz-adv-x="1550" d="M90 72q0 39 6 80l127 722q31 174 166 298t297 124h471q141 0 232.5 -97t91.5 -245q0 -39 -8 -80l-89 -493q-23 -129 -118 -205q-80 -66 -166 -65q-131 0 -185 106q-106 -86 -241 -86q-145 0 -201 109q-33 63 -33 139q0 57 17 147q35 199 123 295q98 106 237 107 q113 0 178 -58l11 66h170l-97 -545q-18 -109 47 -108q72 0 91 108l88 502q4 23 4 45q0 80 -49.5 133t-124.5 53h-480q-88 0 -165.5 -70.5t-94.5 -166.5l-131 -740q-4 -23 -4 -43q0 -82 51 -138t129 -56h480q123 0 186 108l162 -43q-129 -246 -387 -245h-471 q-141 0 -230.5 97t-89.5 245zM641 426q0 -111 102 -111q72 0 110 47t58 164q10 59 11 101q0 117 -103 116q-72 0 -109.5 -49t-58.5 -168q-10 -59 -10 -100z" />
<glyph unicode="A" horiz-adv-x="1159" d="M-76 0l748 1458h164l235 -1458h-217l-41 293h-528l-144 -293h-217zM379 481h412l-91 647z" />
<glyph unicode="B" horiz-adv-x="1230" d="M84 0l258 1458h520q162 0 253 -82t91 -227q0 -43 -8 -90q-20 -111 -92 -199q-63 -78 -143 -110q149 -70 149 -254q0 -41 -8 -84q-35 -197 -165 -304.5t-312 -107.5h-543zM322 199h321q102 0 172 61.5t88 161.5q4 27 4 49q0 172 -186 172h-320zM436 842h301 q100 0 169 54.5t87 154.5q4 25 4 47q0 162 -186 162h-301z" />
<glyph unicode="C" horiz-adv-x="1165" d="M164 728q45 255 76 345q49 143 157 242q169 155 376 155h3q188 0 296 -116q104 -112 104 -317v-15h-207q-10 250 -228 250q-123 0 -213 -88q-59 -57 -90.5 -146.5t-70.5 -308.5t-39 -307t41 -148q59 -88 182 -88q219 0 317 250h205q-72 -213 -225 -334 q-144 -114 -329 -114h-3q-211 0 -326 155q-71 95 -71 234q0 96 45 351z" />
<glyph unicode="D" horiz-adv-x="1236" d="M84 0l258 1458h471q219 0 322 -137q73 -99 73 -254q0 -92 -40.5 -325.5t-69.5 -323.5q-57 -176 -172 -281q-150 -137 -371 -137h-471zM322 199h247q145 0 246 98q57 57 92 178q25 78 58 264q35 205 34 283q0 238 -243 238h-246z" />
<glyph unicode="E" horiz-adv-x="1118" d="M84 0l258 1458h856l-35 -198h-653l-76 -426h557l-35 -197h-557l-77 -438h655l-35 -199h-858z" />
<glyph unicode="F" horiz-adv-x="1083" d="M84 0l258 1458h856l-35 -198h-653l-80 -445h559l-35 -199h-559l-108 -616h-203z" />
<glyph unicode="G" horiz-adv-x="1204" d="M164 728q45 255 76 345q49 143 157 242q169 155 376 155h3q205 0 314 -133q94 -114 94 -297v-22h-205q-8 254 -238 254q-121 0 -213 -90q-61 -59 -91.5 -146.5t-69.5 -306.5t-39 -307t41 -148q59 -88 182 -88q135 0 235 103q84 84 109 229l14 82h-286l32 188h492 l-41 -223q-47 -272 -193 -411q-174 -166 -397 -166q-211 0 -326 155q-71 95 -71 234q0 96 45 351z" />
<glyph unicode="H" horiz-adv-x="1284" d="M84 0l258 1458h203l-111 -622h545l111 622h202l-256 -1458h-205l113 637h-545l-112 -637h-203z" />
<glyph unicode="I" horiz-adv-x="534" d="M84 0l258 1458h203l-258 -1458h-203z" />
<glyph unicode="J" horiz-adv-x="933" d="M-45 129l162 145q66 -88 176 -88q242 0 293 291l174 981h203l-177 -997q-39 -219 -192 -350q-145 -123 -338 -123q-195 0 -301 141z" />
<glyph unicode="K" horiz-adv-x="1220" d="M84 0l258 1458h203l-129 -733l678 733h247l-536 -571l325 -887h-239l-250 719l-279 -295l-75 -424h-203z" />
<glyph unicode="L" horiz-adv-x="1062" d="M84 0l258 1458h203l-223 -1259h647l-35 -199h-850z" />
<glyph unicode="M" horiz-adv-x="1513" d="M84 0l258 1458h203l231 -907l545 907h203l-256 -1458h-205l172 975l-434 -711h-150l-192 711l-172 -975h-203z" />
<glyph unicode="N" horiz-adv-x="1341" d="M84 0l258 1458h186l439 -1024l180 1024h205l-258 -1458h-187l-438 1026l-182 -1026h-203z" />
<glyph unicode="O" horiz-adv-x="1198" d="M164 728q45 255 76 345q49 143 157 242q169 155 376 155h3q211 0 328 -155q70 -96 70 -236q0 -88 -45 -347t-76 -347q-49 -143 -156 -242q-169 -155 -378 -155h-3q-211 0 -326 155q-71 95 -71 234q0 96 45 351zM328 420q0 -86 39 -144q59 -90 184 -90q123 0 215 90 q59 57 89 144.5t70 309.5t40 308t-39 144q-61 90 -185 90q-123 0 -215 -90q-59 -57 -89.5 -144.5t-69.5 -309.5t-39 -308z" />
<glyph unicode="P" horiz-adv-x="1165" d="M84 0l258 1458h508q168 0 264 -96t96 -252q0 -45 -8 -94q-35 -193 -175 -318t-333 -125h-305l-102 -573h-203zM424 774h293q109 0 184.5 64.5t95.5 177.5q6 29 7 57q0 88 -53.5 137.5t-147.5 49.5h-293z" />
<glyph unicode="Q" horiz-adv-x="1198" d="M164 728q45 255 76 345q49 143 157 242q169 155 376 155h3q211 0 328 -155q70 -96 70 -236q0 -88 -46 -350q-41 -227 -65 -309q-39 -133 -115 -221l107 -142l-135 -123l-107 146q-137 -92 -297 -92q-211 0 -326 155q-71 95 -71 234q0 96 45 351zM328 420q0 -86 39 -144 q59 -90 184 -90q76 0 145 47l-114 154l135 123l104 -141q56 86 103 360q41 223 41 309t-39 144q-61 90 -185 90q-123 0 -215 -90q-59 -57 -89.5 -144.5t-69.5 -309.5t-39 -308z" />
<glyph unicode="R" horiz-adv-x="1214" d="M84 0l258 1458h518q164 0 257 -91t93 -243q0 -45 -8 -92q-27 -150 -123 -254q-88 -98 -213 -133l195 -645h-236l-176 614h-254l-108 -614h-203zM428 803h303q102 0 175 60.5t93 166.5q4 27 5 51q0 84 -51.5 131.5t-141.5 47.5h-301z" />
<glyph unicode="S" horiz-adv-x="1093" d="M-2 180l160 146q104 -139 319 -140q276 0 316 224q5 28 5 52q0 61 -32 99q-37 45 -135 62l-154 24q-293 47 -293 301q0 43 11 94q33 193 175 310.5t349 117.5q252 0 387 -165l-156 -140q-88 113 -272 113q-115 0 -190.5 -63.5t-94.5 -163.5q-3 -21 -3 -40q0 -59 32 -97 q43 -50 137 -66l150 -25q162 -29 229.5 -106.5t67.5 -202.5q-1 -47 -11 -98q-35 -199 -188.5 -313.5t-368.5 -114.5q-301 0 -440 192z" />
<glyph unicode="T" horiz-adv-x="1036" d="M186 1260l37 198h942l-37 -198h-368l-221 -1260h-205l223 1260h-371z" />
<glyph unicode="U" horiz-adv-x="1253" d="M139 385q0 51 11 107l169 966h205l-170 -956q-6 -41 -6 -80q0 -111 60.5 -173.5t166.5 -62.5q127 0 218.5 85t117.5 231l168 956h205l-172 -966q-39 -223 -200.5 -363.5t-370.5 -140.5q-180 0 -291 108.5t-111 288.5z" />
<glyph unicode="V" horiz-adv-x="1044" d="M176 1458h211l121 -1061l496 1061h215l-701 -1458h-160z" />
<glyph unicode="W" horiz-adv-x="1622" d="M186 1458h215l50 -1042l454 1042h164l84 -1042l418 1042h215l-608 -1458h-177l-92 1022l-452 -1022h-176z" />
<glyph unicode="X" horiz-adv-x="1071" d="M-72 0l545 748l-262 710h233l172 -522l359 522h233l-514 -710l285 -748h-236l-194 559l-387 -559h-234z" />
<glyph unicode="Y" horiz-adv-x="1005" d="M176 1458h221l168 -641l393 641h224l-553 -858l-107 -600h-203l107 600z" />
<glyph unicode="Z" horiz-adv-x="1021" d="M0 0l33 190l809 1070h-594l35 198h833l-33 -180l-813 -1079h623l-35 -199h-858z" />
<glyph unicode="[" horiz-adv-x="634" d="M43 -152l311 1762h412l-33 -187h-219l-246 -1388h219l-32 -187h-412z" />
<glyph unicode="\" horiz-adv-x="696" d="M190 1593h185l223 -1745h-184z" />
<glyph unicode="]" horiz-adv-x="634" d="M-37 -152l33 185h221l246 1392h-221l32 185h410l-311 -1762h-410z" />
<glyph unicode="^" horiz-adv-x="1056" d="M180 821l438 652h177l206 -652h-200l-135 424l-287 -424h-199z" />
<glyph unicode="_" horiz-adv-x="1056" d="M-154 -352l25 143h1077l-26 -143h-1076z" />
<glyph unicode="`" horiz-adv-x="923" d="M397 1559h213l84 -332h-145z" />
<glyph unicode="a" horiz-adv-x="978" d="M37 231q0 37 6 74q25 135 124 217t259 82h252l14 74q4 31 4 55q0 139 -180 139q-137 0 -227 -100l-103 129q82 84 165 117t204 33q340 0 340 -267q0 -41 -8 -90l-123 -694h-189l17 94q-117 -106 -273 -106q-172 0 -239 94q-43 59 -43 149zM227 274q0 -112 151 -112h3 q123 0 188 59q50 43 70 154l14 84h-225q-170 0 -197 -150q-4 -18 -4 -35z" />
<glyph unicode="b" horiz-adv-x="1024" d="M61 0l256 1458h193l-92 -524q111 117 272 117q145 0 215 -93q55 -74 56 -210q0 -89 -25 -228q-57 -324 -186 -440q-100 -92 -250 -92q-160 0 -232 123l-18 -111h-189zM328 360q0 -186 155 -186q119 0 183 105q46 77 77 241q16 98 17 162q0 182 -154 182q-119 0 -184 -102 q-47 -78 -76 -242q-18 -96 -18 -160z" />
<glyph unicode="c" horiz-adv-x="894" d="M90 367q0 72 14 153q47 272 205 412q133 119 314 119q190 0 288 -146l-155 -139q-66 98 -166 98q-111 0 -193 -92q-72 -80 -100 -252q-14 -80 -14 -133q0 -72 24 -121q49 -92 162 -92q100 0 201 98l106 -137q-154 -147 -340 -147q-152 0 -241 86q-104 100 -105 293z" />
<glyph unicode="d" horiz-adv-x="1024" d="M84 291q0 88 25 229q55 322 184 438q100 92 248 93q160 0 229 -117l92 524h193l-256 -1458h-189l19 111q-115 -123 -275 -123q-147 0 -217 92q-53 74 -53 211zM283 360q0 -186 155 -186q119 0 183 105q46 77 77 241q16 98 17 162q0 182 -154 182q-119 0 -184 -102 q-47 -78 -78 -242q-16 -96 -16 -160z" />
<glyph unicode="e" horiz-adv-x="997" d="M88 354q0 76 16 166q43 250 178.5 390.5t319.5 140.5q160 0 245 -98.5t85 -268.5q0 -63 -12 -133l-17 -92h-620q-6 -43 -7 -80q0 -211 199 -211q133 0 250 106l100 -124q-176 -162 -385 -162q-352 0 -352 366zM309 604h430q5 36 5 69q0 39 -7 72q-29 131 -166 132 q-139 0 -213 -132q-31 -55 -49 -141z" />
<glyph unicode="f" horiz-adv-x="600" d="M92 0l152 860h-111l29 160h108l29 160q23 121 100 200q86 88 213 88h121l-33 -178h-84q-104 0 -127 -121l-26 -149h190l-28 -160h-189l-153 -860h-191z" />
<glyph unicode="g" horiz-adv-x="1015" d="M-8 -295l147 133q74 -92 191 -92q113 0 186 80q63 70 84 184l23 133q-112 -118 -264 -118h-3q-143 0 -213 92q-55 76 -55 207q0 82 23 215q53 305 182 422q98 90 246 90q158 0 229 -123l18 110h187l-182 -1032q-33 -195 -164 -313q-133 -125 -322 -125q-201 0 -313 137z M287 393q0 -180 155 -180q117 0 181 102q42 72 69 224q16 90 17 147q0 178 -152 178q-119 0 -182 -100q-45 -74 -72 -225q-16 -88 -16 -146z" />
<glyph unicode="h" horiz-adv-x="1048" d="M61 0l256 1458h193l-92 -524q121 117 268 117q133 0 202.5 -76t69.5 -207q0 -47 -8 -98l-119 -670h-192l113 637q6 35 6 63q0 164 -158 164q-86 0 -147 -55q-68 -61 -86 -172l-113 -637h-193z" />
<glyph unicode="i" horiz-adv-x="479" d="M61 0l183 1038h192l-182 -1038h-193zM274 1243l39 221h205l-39 -221h-205z" />
<glyph unicode="j" horiz-adv-x="479" d="M-203 -424l33 178h84q104 0 125 121l205 1163h192l-207 -1175q-23 -125 -98 -201q-84 -86 -215 -86h-119zM274 1243l39 221h205l-39 -221h-205z" />
<glyph unicode="k" horiz-adv-x="1013" d="M61 0l256 1458h193l-158 -899l455 479h233l-403 -407l262 -631h-237l-183 479l-172 -174l-53 -305h-193z" />
<glyph unicode="l" horiz-adv-x="567" d="M100 217q0 33 6 70l207 1171h193l-205 -1159q-4 -25 -4 -43q0 -78 86 -78h84l-31 -178h-119q-217 0 -217 217z" />
<glyph unicode="m" horiz-adv-x="1634" d="M61 0l183 1038h188l-18 -104q121 117 276 117q180 0 244 -152q141 152 326 152q154 0 225 -95q59 -78 59 -192q0 -45 -10 -100l-117 -664h-192l112 633q6 35 6 65q0 166 -157 166q-84 0 -148 -55q-70 -59 -90 -166l-112 -643h-193l113 633q6 35 6 65q0 166 -158 166 q-86 0 -149 -55q-70 -61 -90 -176l-111 -633h-193z" />
<glyph unicode="n" horiz-adv-x="1050" d="M61 0l183 1038h188l-18 -104q121 117 276 117q145 0 217 -95q57 -72 58 -182q0 -49 -13 -110l-116 -664h-193l113 633q6 35 6 65q0 166 -158 166q-86 0 -149 -55q-70 -61 -90 -176l-111 -633h-193z" />
<glyph unicode="o" d="M88 330q0 78 21 190q49 281 182 406t307 125q178 0 266 -123q59 -86 60 -219q-1 -78 -19 -189q-51 -283 -183 -407.5t-310 -124.5q-176 0 -262 123q-61 86 -62 219zM283 365q0 -190 161 -191q84 0 152 62q80 71 117 284q16 98 16 156q0 84 -33 129q-43 59 -131 59 q-84 0 -149 -59q-78 -72 -117 -285q-16 -98 -16 -155z" />
<glyph unicode="p" horiz-adv-x="1024" d="M-12 -420l256 1458h188l-18 -110q115 123 274 123q147 0 217 -93q55 -74 56 -210q0 -89 -25 -228q-57 -324 -186 -440q-100 -92 -248 -92q-158 0 -230 118l-92 -526h-192zM328 360q0 -186 155 -186q119 0 183 105q46 77 77 241q16 98 17 162q0 182 -154 182 q-119 0 -184 -102q-47 -78 -76 -242q-18 -96 -18 -160z" />
<glyph unicode="q" horiz-adv-x="1024" d="M84 291q0 88 25 229q55 322 184 438q100 92 250 93q158 0 231 -123l19 110h188l-258 -1458h-191l93 526q-112 -118 -270 -118h-3q-145 0 -215 92q-53 74 -53 211zM283 360q0 -186 155 -186q119 0 183 105q46 77 77 241q16 98 17 162q0 182 -154 182q-119 0 -184 -102 q-47 -78 -78 -242q-16 -96 -16 -160z" />
<glyph unicode="r" horiz-adv-x="808" d="M61 0l183 1038h188l-18 -112q104 125 276 125q137 -1 209 -99l-172 -157q-50 69 -129 69h-2q-80 0 -146.5 -64.5t-84.5 -168.5l-111 -631h-193z" />
<glyph unicode="s" horiz-adv-x="921" d="M-6 137l149 137q77 -108 253 -108h3q209 0 236 143q2 16 2 29q0 84 -109 94l-151 14q-238 23 -238 218q0 33 6 69q27 147 146 236q115 82 270 82q231 0 334 -117l-143 -133q-70 76 -224 76q-82 0 -137 -39q-61 -43 -61 -121q0 -82 112 -92l150 -15q237 -23 237 -221 q0 -35 -6 -72q-27 -158 -152.5 -243.5t-301.5 -85.5q-262 0 -375 149z" />
<glyph unicode="t" horiz-adv-x="624" d="M127 860l27 160h110l55 315h193l-55 -315h184l-29 -160h-184l-98 -561q-4 -18 -4 -35q0 -86 88 -86h78l-31 -178h-115q-109 0 -166 66q-51 59 -51 157q0 31 6 66l101 571h-109z" />
<glyph unicode="u" horiz-adv-x="1050" d="M106 264q0 49 13 111l117 663h192l-113 -632q-6 -35 -6 -66q0 -166 158 -166q86 0 152.5 58.5t87.5 173.5l110 632h193l-185 -1038h-188l18 104q-118 -116 -271 -116h-3q-145 0 -219 94q-55 72 -56 182z" />
<glyph unicode="v" horiz-adv-x="868" d="M106 1038h205l97 -731l352 731h205l-535 -1038h-156z" />
<glyph unicode="w" horiz-adv-x="1380" d="M106 1038h205l56 -731l350 731h149l92 -731l314 731h205l-482 -1038h-164l-96 725l-350 -725h-166z" />
<glyph unicode="x" horiz-adv-x="929" d="M-49 0l420 530l-226 508h234l129 -338l246 338h231l-403 -508l233 -530h-231l-138 354l-264 -354h-231z" />
<glyph unicode="y" horiz-adv-x="862" d="M-55 -412l35 189h47q61 0 93 23.5t64 86.5l82 162l-160 989h205l99 -731l350 731h207l-643 -1245q-43 -84 -93 -129q-82 -76 -208 -76h-78z" />
<glyph unicode="z" horiz-adv-x="864" d="M-10 0l28 166l596 686h-448l33 186h686l-29 -166l-600 -686h479l-33 -186h-712z" />
<glyph unicode="{" horiz-adv-x="747" d="M106 637l33 184h70q53 0 95 38t56 124l62 342q25 141 103.5 213t215.5 72h133l-32 -187h-74q-84 0 -115.5 -30.5t-50.5 -128.5l-57 -330q-27 -145 -162 -205q94 -49 94 -147q0 -27 -4 -58l-59 -329q-18 -111 12 -140q23 -20 98 -20h72l-33 -187h-133q-227 0 -227 197 q0 39 8 88l59 342q6 31 6 55q0 43 -18 68q-29 39 -82 39h-70z" />
<glyph unicode="|" horiz-adv-x="618" d="M104 -152l312 1762h190l-309 -1762h-193z" />
<glyph unicode="}" horiz-adv-x="747" d="M-33 -152l33 187h74q84 0 115.5 30.5t50.5 129.5l57 329q25 145 162 205q-94 49 -94 150q0 25 4 55l59 330q18 111 -14 139q-20 20 -97 20h-73l32 187h136q227 0 227 -197q0 -39 -8 -88l-62 -342q-4 -31 -4 -55q0 -43 17 -68q29 -39 86 -39h67l-33 -184h-67 q-55 0 -97 -38t-57 -124l-61 -342q-25 -141 -103.5 -213t-216.5 -72h-133z" />
<glyph unicode="~" horiz-adv-x="1062" d="M90 571q100 90 166 125t139 35q84 0 197 -67q84 -49 143 -50q78 0 176 91l99 -132q-174 -160 -308 -159q-84 0 -198 67q-82 49 -139 49q-78 0 -177 -90z" />
<glyph unicode="&#xa1;" horiz-adv-x="606" d="M-2 -420l223 1024h150l-140 -1024h-233zM227 815l39 223h211l-39 -223h-211z" />
<glyph unicode="&#xa2;" horiz-adv-x="919" d="M131 604q0 70 14 146q39 223 160 362q115 131 277 160l32 186h152l-33 -184q150 -20 238 -152l-152 -135q-55 84 -137 98l-119 -671q88 14 172 98l105 -135q-135 -131 -293 -152l-39 -225h-152l41 227q-125 23 -195.5 120t-70.5 257zM324 625q0 -74 26 -127 q33 -66 99 -80l116 663q-68 -14 -123 -80q-78 -90 -106 -251q-12 -72 -12 -125z" />
<glyph unicode="&#xa3;" horiz-adv-x="1044" d="M102 641l29 160h117l35 196q39 219 192 351q147 123 340 122q195 0 301 -141l-162 -145q-66 88 -176 88q-242 0 -293 -291l-32 -180h243l-28 -160h-244l-78 -442h569l-34 -199h-775l113 641h-117z" />
<glyph unicode="&#xa4;" horiz-adv-x="1234" d="M66 166l163 151q-33 76 -32 168q0 186 122 340l-110 150l149 137l113 -149q115 76 246 75q133 0 221 -75l166 149l102 -137l-166 -150q33 -76 33 -168q0 -186 -123 -340l113 -151l-152 -137l-112 151q-117 -78 -246 -78t-221 78l-164 -151zM375 518q0 -96 59.5 -160.5 t151.5 -64.5q125 0 217 103.5t92 228.5q0 96 -59.5 159.5t-151.5 63.5q-125 0 -217 -102.5t-92 -227.5z" />
<glyph unicode="&#xa5;" horiz-adv-x="1005" d="M90 334l29 160h287l20 106l-31 105h-239l28 159h164l-172 594h221l170 -643l391 643h222l-381 -594h164l-27 -159h-240l-67 -105l-19 -106h289l-29 -160h-288l-60 -334h-203l60 334h-289z" />
<glyph unicode="&#xa6;" horiz-adv-x="628" d="M104 -152l127 717h191l-125 -717h-193zM289 893l127 717h190l-125 -717h-192z" />
<glyph unicode="&#xa7;" horiz-adv-x="1003" d="M37 -150q0 31 4 66h188q-16 -162 148 -162q90 0 147.5 58.5t57.5 146.5q0 106 -117 147l-125 44q-207 72 -207 284q0 45 8 96q20 111 95 203q63 76 145 117q-117 68 -117 203q0 33 6 71q27 147 138.5 246.5t273.5 99.5q145 0 222 -74.5t77 -199.5q0 -31 -4 -63h-184 q16 156 -144 155q-84 0 -139 -52t-55 -136q0 -96 114 -135l123 -43q209 -72 209 -287q0 -45 -8 -94q-18 -111 -94 -203q-63 -76 -146 -117q123 -63 123 -215q0 -35 -6 -74q-31 -168 -158 -270q-117 -94 -268 -94q-133 0 -217 70q-90 74 -90 212zM326 475q0 -59 28 -102 q41 -57 125 -58q82 0 145 61t81 159q18 109 -27 165t-121 56q-84 0 -146.5 -59.5t-78.5 -161.5q-6 -31 -6 -60z" />
<glyph unicode="&#xa8;" horiz-adv-x="923" d="M307 1237l39 221h174l-39 -221h-174zM715 1237l39 221h174l-39 -221h-174z" />
<glyph unicode="&#xa9;" horiz-adv-x="1605" d="M156 588q0 70 12 141q53 307 291.5 524t521.5 217q246 0 404.5 -171t158.5 -429q0 -69 -12 -141q-55 -307 -293 -524t-520 -217q-248 0 -405.5 171t-157.5 429zM295 610q0 -211 125 -347t323 -136q227 0 417 174t235 428q10 61 10 119q0 211 -125 347t-324 136 q-229 0 -417.5 -174t-233.5 -428q-10 -61 -10 -119zM514 623q0 51 10 106q33 186 144.5 298t263.5 112q135 0 229 -107l-104 -96q-63 72 -148 72q-203 0 -252 -279q-8 -49 -8 -90q0 -188 162 -188q84 0 174 71l70 -96q-129 -106 -267 -107q-129 0 -201.5 81t-72.5 223z" />
<glyph unicode="&#xaa;" horiz-adv-x="833" d="M160 872q20 109 99 174.5t206 65.5h197l10 57q4 25 4 43q0 109 -141 109q-104 0 -179 -80l-84 107q113 119 297 118q268 0 269 -213q0 -33 -7 -71l-98 -553h-151l12 73q-90 -82 -215 -81q-135 0 -191 73q-47 66 -28 178zM311 848q0 -84 117 -84q98 0 150 45q37 33 53 119 l10 65h-174q-133 0 -154 -116q-2 -16 -2 -29z" />
<glyph unicode="&#xab;" horiz-adv-x="1095" d="M76 557l516 469l-43 -252l-240 -217l162 -219l-45 -252zM553 557l516 469l-45 -252l-242 -217l166 -219l-45 -252z" />
<glyph unicode="&#xac;" horiz-adv-x="1040" d="M164 100v140q0 41 28.5 70.5t69.5 29.5h146q51 0 90 42t39 93v139q0 51 -39 92.5t-90 41.5h-146q-41 0 -69.5 29.5t-28.5 70.5v139q0 41 28.5 70.5t69.5 29.5h146q51 0 90 40t39 92v139q0 43 28.5 71.5t69.5 28.5h143q41 0 70 -29.5t29 -70.5v-139q0 -41 -29 -71t-70 -30 h-143q-51 0 -91 -40t-40 -91v-139q0 -51 40 -92t91 -41h143q41 0 70 -30t29 -71v-139q0 -41 -29 -70.5t-70 -29.5h-143q-51 0 -91 -42t-40 -93v-140q0 -41 -27.5 -70.5t-68.5 -29.5h-146q-41 0 -69.5 29.5t-28.5 70.5z" />
<glyph unicode="&#xad;" horiz-adv-x="784" d="M119 471l33 195h550l-34 -195h-549z" />
<glyph unicode="&#xae;" horiz-adv-x="1605" d="M156 588q0 70 12 141q53 307 291.5 524t521.5 217q246 0 404.5 -171t158.5 -429q0 -69 -12 -141q-55 -307 -293 -524t-520 -217q-248 0 -405.5 171t-157.5 429zM293 610q0 -211 125 -348t325 -137q227 0 417 175t235 429q10 61 10 121q0 211 -125 347t-324 136 q-229 0 -418.5 -175t-234.5 -429q-10 -61 -10 -119zM541 330l141 800h279q90 0 143 -56t53 -142q0 -90 -51 -162t-135 -102l104 -338h-153l-95 317h-94l-55 -317h-137zM754 764h125q59 0 101 43t42 100q0 98 -100 99h-125z" />
<glyph unicode="&#xaf;" horiz-adv-x="923" d="M311 1274l27 149h586l-27 -149h-586z" />
<glyph unicode="&#xb0;" horiz-adv-x="868" d="M215 1057q0 160 120 293t277 133q119 0 196 -83t77 -208q0 -160 -117 -291q-123 -133 -281 -133q-119 0 -195.5 82t-76.5 207zM377 1085q0 -66 39 -107.5t100 -41.5q86 0 147.5 69.5t61.5 157.5q0 66 -40 109t-101 43q-86 0 -146.5 -72t-60.5 -158z" />
<glyph unicode="&#xb1;" horiz-adv-x="985" d="M4 0l35 195h813l-35 -195h-813zM119 647l35 195h315l61 344h179l-60 -344h316l-33 -195h-318l-61 -346h-178l61 346h-317z" />
<glyph unicode="&#xb2;" horiz-adv-x="641" d="M96 584l25 141l371 381q51 51 61 106q2 14 2 29q0 84 -84 84q-98 0 -119 -113h-145q20 117 101 185.5t190 68.5q92 0 148 -53t56 -143q0 -29 -6 -58q-16 -92 -121 -200l-278 -287h313l-24 -141h-490z" />
<glyph unicode="&#xb3;" horiz-adv-x="663" d="M135 774q0 27 4 57h146q-16 -117 92 -116q111 0 131 125q4 16 4 30q0 92 -96 93h-21l23 135h22q57 0 92 41t35 100q0 86 -84 86q-96 0 -121 -106h-143q23 115 105 181t184 66q94 0 150.5 -54t56.5 -144q0 -25 -6 -51q-23 -129 -125 -183q74 -47 73 -145q0 -24 -4 -53 q-23 -125 -107.5 -194t-193.5 -69q-94 0 -151 48q-66 53 -66 153z" />
<glyph unicode="&#xb4;" horiz-adv-x="923" d="M498 1227l200 332h213l-268 -332h-145z" />
<glyph unicode="&#xb6;" horiz-adv-x="1181" d="M160 975q0 37 6 76q33 184 168 295.5t328 111.5h528l-330 -1878h-192l295 1680h-203l-295 -1680h-193l189 1069q-135 0 -218 93.5t-83 232.5z" />
<glyph unicode="&#xb7;" horiz-adv-x="505" d="M133 444l45 250h230l-43 -250h-232z" />
<glyph unicode="&#xb8;" horiz-adv-x="923" d="M147 -432l185 301h155l-149 -301h-191z" />
<glyph unicode="&#xb9;" horiz-adv-x="503" d="M182 1126l33 179l191 153h145l-156 -874h-145l125 698z" />
<glyph unicode="&#xba;" horiz-adv-x="843" d="M193 893q0 59 14 151q41 223 147.5 322.5t243.5 99.5q141 0 211 -98q49 -70 49 -174q0 -60 -16 -150q-39 -225 -145.5 -324t-245.5 -99t-209 98q-49 68 -49 174zM350 918q0 -145 127 -146q68 0 122 50t85 222q16 86 16 130q0 141 -129 141q-66 0 -116 -47 q-61 -55 -90 -224q-14 -82 -15 -126z" />
<glyph unicode="&#xbb;" horiz-adv-x="1095" d="M59 86l45 252l242 219l-166 217l45 252l353 -469zM537 86l43 252l241 219l-164 217l45 252l353 -469z" />
<glyph unicode="&#xbc;" horiz-adv-x="1503" d="M182 1126l33 179l191 153h145l-156 -874h-145l125 698zM248 0l889 1458h151l-887 -1458h-153zM836 125l24 145l385 604h156l-383 -604h170l31 170h139l-31 -170h76l-25 -145h-75l-23 -125h-139l22 125h-327z" />
<glyph unicode="&#xbd;" horiz-adv-x="1540" d="M182 1126l33 179l191 153h145l-156 -874h-145l125 698zM233 0l887 1458h154l-889 -1458h-152zM895 0l25 141l368 381q49 53 60 107q2 14 2 28q0 84 -82 84q-100 0 -119 -112h-143q20 117 100 185.5t186 68.5q94 0 150.5 -53.5t56.5 -143.5q0 -29 -6 -57 q-16 -92 -123 -201l-278 -287h315l-25 -141h-487z" />
<glyph unicode="&#xbe;" horiz-adv-x="1570" d="M135 774q0 27 4 57h146q-16 -117 92 -116q111 0 131 125q4 16 4 30q0 92 -96 93h-21l23 135h22q57 0 92 41t35 100q0 86 -84 86q-96 0 -121 -106h-143q23 115 105 181t184 66q94 0 150.5 -54t56.5 -144q0 -25 -6 -51q-23 -129 -125 -183q74 -47 73 -145q0 -24 -4 -53 q-23 -125 -107.5 -194t-193.5 -69q-94 0 -151 48q-66 53 -66 153zM328 0l886 1458h154l-889 -1458h-151zM905 125l25 145l383 604h157l-383 -604h170l31 170h137l-28 -170h73l-24 -145h-76l-22 -125h-138l23 125h-328z" />
<glyph unicode="&#xbf;" horiz-adv-x="944" d="M-29 -121q0 39 9 82q20 119 133 252l186 221q41 51 53 111l10 61h193l-14 -74q-18 -104 -101 -202l-184 -215q-90 -106 -90 -199q0 -72 41 -116t110 -44q86 0 146.5 59.5t75.5 145.5h192q-31 -172 -158 -282.5t-288 -110.5q-137 0 -225.5 84t-88.5 227zM389 815l39 223 h213l-41 -223h-211z" />
<glyph unicode="&#xc0;" horiz-adv-x="1159" d="M-76 0l748 1458h164l235 -1458h-217l-41 293h-528l-144 -293h-217zM379 481h412l-91 647zM559 1932h213l84 -332h-145z" />
<glyph unicode="&#xc1;" horiz-adv-x="1159" d="M-76 0l748 1458h164l235 -1458h-217l-41 293h-528l-144 -293h-217zM379 481h412l-91 647zM662 1600l200 332h213l-268 -332h-145z" />
<glyph unicode="&#xc2;" horiz-adv-x="1159" d="M-76 0l748 1458h164l235 -1458h-217l-41 293h-528l-144 -293h-217zM379 481h412l-91 647zM436 1600l301 329h162l185 -329h-160l-129 198l-199 -198h-160z" />
<glyph unicode="&#xc3;" horiz-adv-x="1159" d="M-76 0l748 1458h164l235 -1458h-217l-41 293h-528l-144 -293h-217zM379 481h412l-91 647zM459 1747q125 113 217 113q66 0 133 -49q53 -39 96 -39q53 0 123 63l72 -96q-123 -113 -215 -113q-66 0 -133 47q-55 39 -98 39q-53 0 -121 -61z" />
<glyph unicode="&#xc4;" horiz-adv-x="1159" d="M-76 0l748 1458h164l235 -1458h-217l-41 293h-528l-144 -293h-217zM379 481h412l-91 647zM471 1610l39 221h174l-39 -221h-174zM879 1610l39 221h174l-39 -221h-174z" />
<glyph unicode="&#xc5;" horiz-adv-x="1159" d="M-76 0l748 1458h164l235 -1458h-217l-41 293h-528l-144 -293h-217zM379 481h412l-91 647zM557 1742q0 117 85 211.5t200 94.5q86 0 140 -59.5t54 -147.5q0 -117 -84.5 -211t-199.5 -94q-86 0 -140.5 59t-54.5 147zM674 1767q0 -45 28.5 -74.5t71.5 -29.5q57 0 101.5 47 t44.5 106q0 45 -29 75t-72 30q-57 0 -101 -47.5t-44 -106.5z" />
<glyph unicode="&#xc6;" horiz-adv-x="1775" d="M-82 0l963 1458h974l-34 -198h-654l-75 -429h557l-35 -198h-557l-76 -434h653l-35 -199h-858l60 332h-445l-215 -332h-223zM479 520h355l129 740z" />
<glyph unicode="&#xc7;" horiz-adv-x="1165" d="M119 381q0 92 45 347t76 345q49 143 157 242q170 156 379 155q188 0 296 -116.5t104 -331.5h-207q-10 250 -228 250q-123 0 -213 -88q-59 -57 -90.5 -146.5t-70.5 -308.5t-39 -307t41 -148q59 -88 182 -88q219 0 317 250h205q-72 -213 -225 -334q-145 -115 -332 -114 q-211 0 -326 155q-72 96 -71 238zM260 -432l185 301h155l-149 -301h-191z" />
<glyph unicode="&#xc8;" horiz-adv-x="1118" d="M84 0l258 1458h856l-35 -198h-653l-76 -426h557l-35 -197h-557l-77 -438h655l-35 -199h-858zM563 1932h213l84 -332h-145z" />
<glyph unicode="&#xc9;" horiz-adv-x="1118" d="M84 0l258 1458h856l-35 -198h-653l-76 -426h557l-35 -197h-557l-77 -438h655l-35 -199h-858zM664 1600l200 332h213l-268 -332h-145z" />
<glyph unicode="&#xca;" horiz-adv-x="1118" d="M84 0l258 1458h856l-35 -198h-653l-76 -426h557l-35 -197h-557l-77 -438h655l-35 -199h-858zM438 1600l301 329h162l185 -329h-160l-129 198l-199 -198h-160z" />
<glyph unicode="&#xcb;" horiz-adv-x="1118" d="M84 0l258 1458h856l-35 -198h-653l-76 -426h557l-35 -197h-557l-77 -438h655l-35 -199h-858zM473 1610l39 221h174l-39 -221h-174zM881 1610l39 221h174l-39 -221h-174z" />
<glyph unicode="&#xcc;" horiz-adv-x="534" d="M84 0l258 1458h203l-258 -1458h-203zM280 1932h213l84 -332h-145z" />
<glyph unicode="&#xcd;" horiz-adv-x="534" d="M84 0l258 1458h203l-258 -1458h-203zM338 1600l200 332h213l-268 -332h-145z" />
<glyph unicode="&#xce;" horiz-adv-x="534" d="M84 0l258 1458h203l-258 -1458h-203zM133 1600l301 329h162l185 -329h-160l-129 198l-199 -198h-160z" />
<glyph unicode="&#xcf;" horiz-adv-x="534" d="M84 0l258 1458h203l-258 -1458h-203zM153 1610l39 221h174l-39 -221h-174zM561 1610l39 221h174l-39 -221h-174z" />
<glyph unicode="&#xd0;" horiz-adv-x="1269" d="M94 651l31 170h139l113 637h471q240 0 344 -194q51 -96 51 -203q0 -82 -43 -329t-74 -335q-37 -113 -122 -204q-178 -193 -418 -193h-467l117 651h-142zM358 197h242q172 0 274 129q43 55 63.5 122.5t57.5 274.5q39 223 39 297q0 63 -24 115q-63 127 -222 127h-243 l-76 -441h258l-29 -170h-260z" />
<glyph unicode="&#xd1;" horiz-adv-x="1339" d="M84 0l258 1458h186l439 -1024l180 1024h205l-258 -1458h-187l-438 1026l-182 -1026h-203zM565 1747q125 113 217 113q66 0 133 -49q53 -39 96 -39q53 0 123 63l72 -96q-123 -113 -215 -113q-66 0 -133 47q-55 39 -98 39q-53 0 -121 -61z" />
<glyph unicode="&#xd2;" horiz-adv-x="1200" d="M119 381q0 92 45 347t76 345q49 143 157 242q170 156 379 155q211 0 328 -155q70 -96 70 -236q0 -88 -45 -347t-76 -347q-49 -143 -156 -242q-170 -156 -381 -155q-211 0 -326 155q-72 96 -71 238zM328 420q0 -86 39 -144q59 -90 184 -90q123 0 215 90q59 57 89 144.5 t70 309.5t40 308t-39 144q-61 90 -185 90q-123 0 -215 -90q-59 -57 -89.5 -144.5t-69.5 -309.5t-39 -308zM587 1932h213l84 -332h-145z" />
<glyph unicode="&#xd3;" horiz-adv-x="1200" d="M119 381q0 92 45 347t76 345q49 143 157 242q170 156 379 155q211 0 328 -155q70 -96 70 -236q0 -88 -45 -347t-76 -347q-49 -143 -156 -242q-170 -156 -381 -155q-211 0 -326 155q-72 96 -71 238zM328 420q0 -86 39 -144q59 -90 184 -90q123 0 215 90q59 57 89 144.5 t70 309.5t40 308t-39 144q-61 90 -185 90q-123 0 -215 -90q-59 -57 -89.5 -144.5t-69.5 -309.5t-39 -308zM688 1600l200 332h213l-268 -332h-145z" />
<glyph unicode="&#xd4;" horiz-adv-x="1200" d="M119 381q0 92 45 347t76 345q49 143 157 242q170 156 379 155q211 0 328 -155q70 -96 70 -236q0 -88 -45 -347t-76 -347q-49 -143 -156 -242q-170 -156 -381 -155q-211 0 -326 155q-72 96 -71 238zM328 420q0 -86 39 -144q59 -90 184 -90q123 0 215 90q59 57 89 144.5 t70 309.5t40 308t-39 144q-61 90 -185 90q-123 0 -215 -90q-59 -57 -89.5 -144.5t-69.5 -309.5t-39 -308zM462 1600l301 329h162l185 -329h-160l-129 198l-199 -198h-160z" />
<glyph unicode="&#xd5;" horiz-adv-x="1200" d="M119 381q0 92 45 347t76 345q49 143 157 242q170 156 379 155q211 0 328 -155q70 -96 70 -236q0 -88 -45 -347t-76 -347q-49 -143 -156 -242q-170 -156 -381 -155q-211 0 -326 155q-72 96 -71 238zM328 420q0 -86 39 -144q59 -90 184 -90q123 0 215 90q59 57 89 144.5 t70 309.5t40 308t-39 144q-61 90 -185 90q-123 0 -215 -90q-59 -57 -89.5 -144.5t-69.5 -309.5t-39 -308zM487 1747q125 113 217 113q66 0 133 -49q53 -39 96 -39q53 0 123 63l72 -96q-123 -113 -215 -113q-66 0 -133 47q-55 39 -98 39q-53 0 -121 -61z" />
<glyph unicode="&#xd6;" horiz-adv-x="1200" d="M119 381q0 92 45 347t76 345q49 143 157 242q170 156 379 155q211 0 328 -155q70 -96 70 -236q0 -88 -45 -347t-76 -347q-49 -143 -156 -242q-170 -156 -381 -155q-211 0 -326 155q-72 96 -71 238zM328 420q0 -86 39 -144q59 -90 184 -90q123 0 215 90q59 57 89 144.5 t70 309.5t40 308t-39 144q-61 90 -185 90q-123 0 -215 -90q-59 -57 -89.5 -144.5t-69.5 -309.5t-39 -308zM497 1610l39 221h174l-39 -221h-174zM905 1610l39 221h174l-39 -221h-174z" />
<glyph unicode="&#xd7;" horiz-adv-x="985" d="M63 270l328 299l-221 299l143 131l219 -299l328 299l98 -131l-327 -299l223 -299l-143 -129l-224 297l-325 -297z" />
<glyph unicode="&#xd8;" horiz-adv-x="1210" d="M63 -90l136 221l-9 12q-72 96 -71 238q0 92 45 347t76 345q49 143 157 242q170 156 379 155q121 0 217 -55l80 133h156l-137 -221l6 -6l6 -6q70 -96 70 -236q0 -88 -45 -347t-76 -347q-49 -143 -156 -242q-170 -156 -381 -155q-121 0 -215 55l-82 -133h-156zM330 418 q0 -45 8 -78l547 887q-61 45 -144 45q-121 0 -213 -90q-59 -57 -89.5 -144.5t-69.5 -309.5t-39 -310zM410 231q57 -45 141 -45q123 0 215 90q59 57 89 144.5t70 311.5t40 308q0 45 -9 78z" />
<glyph unicode="&#xd9;" horiz-adv-x="1253" d="M139 385q0 51 11 107l169 966h205l-170 -956q-6 -41 -6 -80q0 -111 60.5 -173.5t166.5 -62.5q127 0 218.5 85t117.5 231l168 956h205l-172 -966q-39 -223 -200.5 -363.5t-370.5 -140.5q-180 0 -291 108.5t-111 288.5zM618 1932h213l84 -332h-145z" />
<glyph unicode="&#xda;" horiz-adv-x="1253" d="M139 385q0 51 11 107l169 966h205l-170 -956q-6 -41 -6 -80q0 -111 60.5 -173.5t166.5 -62.5q127 0 218.5 85t117.5 231l168 956h205l-172 -966q-39 -223 -200.5 -363.5t-370.5 -140.5q-180 0 -291 108.5t-111 288.5zM719 1600l200 332h213l-268 -332h-145z" />
<glyph unicode="&#xdb;" horiz-adv-x="1253" d="M139 385q0 51 11 107l169 966h205l-170 -956q-6 -41 -6 -80q0 -111 60.5 -173.5t166.5 -62.5q127 0 218.5 85t117.5 231l168 956h205l-172 -966q-39 -223 -200.5 -363.5t-370.5 -140.5q-180 0 -291 108.5t-111 288.5zM493 1600l301 329h162l185 -329h-160l-129 198 l-199 -198h-160z" />
<glyph unicode="&#xdc;" horiz-adv-x="1253" d="M139 385q0 51 11 107l169 966h205l-170 -956q-6 -41 -6 -80q0 -111 60.5 -173.5t166.5 -62.5q127 0 218.5 85t117.5 231l168 956h205l-172 -966q-39 -223 -200.5 -363.5t-370.5 -140.5q-180 0 -291 108.5t-111 288.5zM528 1610l39 221h174l-39 -221h-174zM936 1610 l39 221h174l-39 -221h-174z" />
<glyph unicode="&#xdd;" horiz-adv-x="1005" d="M176 1458h221l168 -641l393 641h224l-553 -858l-107 -600h-203l107 600zM584 1600l200 332h213l-268 -332h-145z" />
<glyph unicode="&#xde;" horiz-adv-x="1181" d="M84 0l258 1458h203l-49 -280h305q168 0 264 -96.5t96 -252.5q0 -45 -10 -94q-33 -193 -173 -316.5t-333 -123.5h-305l-53 -295h-203zM375 494h291q109 0 184.5 64t95.5 177q6 29 6 58q0 88 -53 137t-147 49h-291z" />
<glyph unicode="&#xdf;" horiz-adv-x="1046" d="M61 0l189 1069q35 197 166 303q125 100 309 101q152 0 238 -66q94 -72 94 -207q0 -37 -8 -78q-27 -156 -158 -237q84 -53 84 -156q0 -35 -8 -80l-60 -338q-27 -154 -119 -232.5t-227 -78.5h-100l31 178h61q59 0 104 35t60 117l55 319q14 74 -15.5 111t-88.5 37h-66 l29 166h57q139 0 168 153q12 76 -26.5 124t-143.5 48q-203 0 -244 -231l-186 -1057h-195z" />
<glyph unicode="&#xe0;" horiz-adv-x="978" d="M37 231q0 37 6 74q25 135 124 217t259 82h252l14 74q4 31 4 55q0 139 -180 139q-137 0 -227 -100l-103 129q82 84 165 117t204 33q340 0 340 -267q0 -41 -8 -90l-123 -694h-189l17 94q-117 -106 -273 -106q-172 0 -239 94q-43 59 -43 149zM227 274q0 -113 154 -112 q123 0 188 59q50 43 70 154l14 84h-225q-170 0 -197 -150q-4 -18 -4 -35zM411 1559h213l84 -332h-145z" />
<glyph unicode="&#xe1;" horiz-adv-x="978" d="M37 231q0 37 6 74q25 135 124 217t259 82h252l14 74q4 31 4 55q0 139 -180 139q-137 0 -227 -100l-103 129q82 84 165 117t204 33q340 0 340 -267q0 -41 -8 -90l-123 -694h-189l17 94q-117 -106 -273 -106q-172 0 -239 94q-43 59 -43 149zM227 274q0 -113 154 -112 q123 0 188 59q50 43 70 154l14 84h-225q-170 0 -197 -150q-4 -18 -4 -35zM512 1227l200 332h213l-268 -332h-145z" />
<glyph unicode="&#xe2;" horiz-adv-x="978" d="M37 231q0 37 6 74q25 135 124 217t259 82h252l14 74q4 31 4 55q0 139 -180 139q-137 0 -227 -100l-103 129q82 84 165 117t204 33q340 0 340 -267q0 -41 -8 -90l-123 -694h-189l17 94q-117 -106 -273 -106q-172 0 -239 94q-43 59 -43 149zM227 274q0 -113 154 -112 q123 0 188 59q50 43 70 154l14 84h-225q-170 0 -197 -150q-4 -18 -4 -35zM286 1227l301 329h162l185 -329h-160l-129 198l-199 -198h-160z" />
<glyph unicode="&#xe3;" horiz-adv-x="978" d="M37 231q0 37 6 74q25 135 124 217t259 82h252l14 74q4 31 4 55q0 139 -180 139q-137 0 -227 -100l-103 129q82 84 165 117t204 33q340 0 340 -267q0 -41 -8 -90l-123 -694h-189l17 94q-117 -106 -273 -106q-172 0 -239 94q-43 59 -43 149zM227 274q0 -113 154 -112 q123 0 188 59q50 43 70 154l14 84h-225q-170 0 -197 -150q-4 -18 -4 -35zM311 1374q125 113 217 113q66 0 133 -49q53 -39 96 -39q53 0 123 63l72 -96q-123 -113 -215 -113q-66 0 -133 47q-55 39 -98 39q-53 0 -121 -61z" />
<glyph unicode="&#xe4;" horiz-adv-x="978" d="M37 231q0 37 6 74q25 135 124 217t259 82h252l14 74q4 31 4 55q0 139 -180 139q-137 0 -227 -100l-103 129q82 84 165 117t204 33q340 0 340 -267q0 -41 -8 -90l-123 -694h-189l17 94q-117 -106 -273 -106q-172 0 -239 94q-43 59 -43 149zM227 274q0 -113 154 -112 q123 0 188 59q50 43 70 154l14 84h-225q-170 0 -197 -150q-4 -18 -4 -35zM321 1237l39 221h174l-39 -221h-174zM729 1237l39 221h174l-39 -221h-174z" />
<glyph unicode="&#xe5;" horiz-adv-x="978" d="M37 231q0 37 6 74q25 135 124 217t259 82h252l14 74q4 31 4 55q0 139 -180 139q-137 0 -227 -100l-103 129q82 84 165 117t204 33q340 0 340 -267q0 -41 -8 -90l-123 -694h-189l17 94q-117 -106 -273 -106q-172 0 -239 94q-43 59 -43 149zM227 274q0 -113 154 -112 q123 0 188 59q50 43 70 154l14 84h-225q-170 0 -197 -150q-4 -18 -4 -35zM407 1386q0 117 85 211.5t200 94.5q86 0 140 -59.5t54 -147.5q0 -117 -84.5 -211t-199.5 -94q-86 0 -140.5 59t-54.5 147zM524 1411q0 -45 28.5 -74.5t71.5 -29.5q57 0 101.5 47t44.5 106 q0 45 -29 75t-72 30q-57 0 -101 -47.5t-44 -106.5z" />
<glyph unicode="&#xe6;" horiz-adv-x="1558" d="M37 233q0 35 6 72q25 135 124 217t259 82h252l14 74q4 31 4 55q0 139 -180 139q-137 0 -227 -100l-103 129q82 84 165 117t204 33q236 0 301 -138q127 137 305 138q160 0 245 -98.5t85 -268.5q0 -63 -12 -133l-17 -92h-618q-8 -43 -8 -82q0 -209 198 -209q135 0 252 106 l100 -124q-178 -162 -387 -162q-227 0 -309 162q-86 -92 -174 -130q-80 -33 -197 -32q-172 0 -239 94q-43 57 -43 151zM227 274q0 -113 154 -112q123 0 188 59q50 43 70 154l14 84h-225q-170 0 -197 -150q-4 -18 -4 -35zM868 604h430q12 86 0 141q-29 131 -165 132 q-137 0 -213 -132q-35 -61 -52 -141z" />
<glyph unicode="&#xe7;" horiz-adv-x="901" d="M90 367q0 72 14 153q47 272 205 412q133 119 314 119q190 0 288 -146l-155 -139q-66 98 -166 98q-111 0 -193 -92q-72 -80 -100 -252q-14 -80 -14 -133q0 -72 24 -121q49 -92 162 -92q100 0 201 98l106 -137q-154 -147 -340 -147q-152 0 -241 86q-104 100 -105 293z M147 -432l185 301h155l-149 -301h-191z" />
<glyph unicode="&#xe8;" horiz-adv-x="997" d="M88 354q0 76 16 166q43 250 178.5 390.5t319.5 140.5q160 0 245 -98.5t85 -268.5q0 -63 -12 -133l-17 -92h-620q-6 -43 -7 -80q0 -211 199 -211q133 0 250 106l100 -124q-176 -162 -385 -162q-352 0 -352 366zM309 604h430q10 80 -2 141q-29 131 -166 132 q-139 0 -213 -132q-31 -55 -49 -141zM444 1559h213l84 -332h-145z" />
<glyph unicode="&#xe9;" horiz-adv-x="997" d="M88 354q0 76 16 166q43 250 178.5 390.5t319.5 140.5q160 0 245 -98.5t85 -268.5q0 -63 -12 -133l-17 -92h-620q-6 -43 -7 -80q0 -211 199 -211q133 0 250 106l100 -124q-176 -162 -385 -162q-352 0 -352 366zM309 604h430q10 80 -2 141q-29 131 -166 132 q-139 0 -213 -132q-31 -55 -49 -141zM545 1227l200 332h213l-268 -332h-145z" />
<glyph unicode="&#xea;" horiz-adv-x="997" d="M88 354q0 76 16 166q43 250 178.5 390.5t319.5 140.5q160 0 245 -98.5t85 -268.5q0 -63 -12 -133l-17 -92h-620q-6 -43 -7 -80q0 -211 199 -211q133 0 250 106l100 -124q-176 -162 -385 -162q-352 0 -352 366zM309 604h430q10 80 -2 141q-29 131 -166 132 q-139 0 -213 -132q-31 -55 -49 -141zM319 1227l301 329h162l185 -329h-160l-129 198l-199 -198h-160z" />
<glyph unicode="&#xeb;" horiz-adv-x="997" d="M88 354q0 76 16 166q43 250 178.5 390.5t319.5 140.5q160 0 245 -98.5t85 -268.5q0 -63 -12 -133l-17 -92h-620q-6 -43 -7 -80q0 -211 199 -211q133 0 250 106l100 -124q-176 -162 -385 -162q-352 0 -352 366zM309 604h430q10 80 -2 141q-29 131 -166 132 q-139 0 -213 -132q-31 -55 -49 -141zM354 1237l39 221h174l-39 -221h-174zM762 1237l39 221h174l-39 -221h-174z" />
<glyph unicode="&#xec;" horiz-adv-x="479" d="M61 0l183 1038h192l-182 -1038h-193zM194 1559h213l84 -332h-145z" />
<glyph unicode="&#xed;" horiz-adv-x="479" d="M61 0l183 1038h192l-182 -1038h-193zM228 1227l200 332h213l-268 -332h-145z" />
<glyph unicode="&#xee;" horiz-adv-x="479" d="M26 1227l301 329h162l185 -329h-160l-129 198l-199 -198h-160zM61 0l183 1038h192l-182 -1038h-193z" />
<glyph unicode="&#xef;" horiz-adv-x="479" d="M61 0l183 1038h192l-182 -1038h-193zM61 1237l39 221h174l-39 -221h-174zM469 1237l39 221h174l-39 -221h-174z" />
<glyph unicode="&#xf0;" d="M94 324q0 76 19 186q49 276 182 401q90 82 215 105q80 14 143 -4l-57 166h-217l24 147h148l-47 143h203l47 -143h166l-27 -147h-94l61 -193q55 -170 55 -285q0 -75 -20 -190q-49 -276 -179 -399t-304 -123q-172 0 -258 121q-59 84 -60 215zM289 354q0 -78 30 -121 q43 -59 125 -59q84 0 148 59q75 70 110 277q18 100 19 156q0 78 -31 120q-43 59 -127 60q-82 0 -147 -60q-74 -70 -111 -276q-16 -100 -16 -156z" />
<glyph unicode="&#xf1;" horiz-adv-x="1050" d="M61 0l183 1038h188l-18 -104q121 117 276 117q145 0 217 -95q57 -72 58 -182q0 -49 -13 -110l-116 -664h-193l113 633q6 35 6 65q0 166 -158 166q-86 0 -149 -55q-70 -61 -90 -176l-111 -633h-193zM373 1374q125 113 217 113q66 0 133 -49q53 -39 96 -39q53 0 123 63 l72 -96q-123 -113 -215 -113q-66 0 -133 47q-55 39 -98 39q-53 0 -121 -61z" />
<glyph unicode="&#xf2;" d="M88 330q0 78 21 190q49 281 182 406t307 125q178 0 266 -123q59 -86 60 -219q-1 -78 -19 -189q-51 -283 -183 -407.5t-310 -124.5q-176 0 -262 123q-61 86 -62 219zM283 365q0 -190 161 -191q84 0 152 62q80 71 117 284q16 98 16 156q0 84 -33 129q-43 59 -131 59 q-84 0 -149 -59q-78 -72 -117 -285q-16 -98 -16 -155zM420 1559h213l84 -332h-145z" />
<glyph unicode="&#xf3;" d="M88 330q0 78 21 190q49 281 182 406t307 125q178 0 266 -123q59 -86 60 -219q-1 -78 -19 -189q-51 -283 -183 -407.5t-310 -124.5q-176 0 -262 123q-61 86 -62 219zM283 365q0 -190 161 -191q84 0 152 62q80 71 117 284q16 98 16 156q0 84 -33 129q-43 59 -131 59 q-84 0 -149 -59q-78 -72 -117 -285q-16 -98 -16 -155zM535 1227l200 332h213l-268 -332h-145z" />
<glyph unicode="&#xf4;" d="M88 330q0 78 21 190q49 281 182 406t307 125q178 0 266 -123q59 -86 60 -219q-1 -78 -19 -189q-51 -283 -183 -407.5t-310 -124.5q-176 0 -262 123q-61 86 -62 219zM283 365q0 -190 161 -191q84 0 152 62q80 71 117 284q16 98 16 156q0 84 -33 129q-43 59 -131 59 q-84 0 -149 -59q-78 -72 -117 -285q-16 -98 -16 -155zM309 1227l301 329h162l185 -329h-160l-129 198l-199 -198h-160z" />
<glyph unicode="&#xf5;" d="M88 330q0 78 21 190q49 281 182 406t307 125q178 0 266 -123q59 -86 60 -219q-1 -78 -19 -189q-51 -283 -183 -407.5t-310 -124.5q-176 0 -262 123q-61 86 -62 219zM283 365q0 -190 161 -191q84 0 152 62q80 71 117 284q16 98 16 156q0 84 -33 129q-43 59 -131 59 q-84 0 -149 -59q-78 -72 -117 -285q-16 -98 -16 -155zM334 1374q125 113 217 113q66 0 133 -49q53 -39 96 -39q53 0 123 63l72 -96q-123 -113 -215 -113q-66 0 -133 47q-55 39 -98 39q-53 0 -121 -61z" />
<glyph unicode="&#xf6;" d="M88 330q0 78 21 190q49 281 182 406t307 125q178 0 266 -123q59 -86 60 -219q-1 -78 -19 -189q-51 -283 -183 -407.5t-310 -124.5q-176 0 -262 123q-61 86 -62 219zM283 365q0 -190 161 -191q84 0 152 62q80 71 117 284q16 98 16 156q0 84 -33 129q-43 59 -131 59 q-84 0 -149 -59q-78 -72 -117 -285q-16 -98 -16 -155zM344 1237l39 221h174l-39 -221h-174zM752 1237l39 221h174l-39 -221h-174z" />
<glyph unicode="&#xf7;" horiz-adv-x="985" d="M82 471l35 195h821l-35 -195h-821zM319 68l39 223h207l-39 -223h-207zM457 848l41 223h204l-38 -223h-207z" />
<glyph unicode="&#xf8;" d="M2 -90l145 203q-59 84 -59 215q0 78 21 192q49 281 182 406t307 125q111 0 190 -52l93 129h129l-146 -200q59 -86 60 -219q-1 -78 -19 -189q-51 -283 -183 -407.5t-310 -124.5q-109 0 -187 51l-94 -129h-129zM289 297l385 532q-45 35 -109 35q-84 0 -149 -59 q-78 -72 -117 -285q-27 -152 -10 -223zM340 211q43 -37 104 -37q84 0 152 62q80 71 117 284q27 152 10 223z" />
<glyph unicode="&#xf9;" horiz-adv-x="1050" d="M106 264q0 49 13 111l117 663h192l-113 -632q-6 -35 -6 -66q0 -166 158 -166q86 0 152.5 58.5t87.5 173.5l110 632h193l-185 -1038h-188l18 104q-119 -117 -274 -116q-145 0 -219 94q-55 72 -56 182zM460 1559h213l84 -332h-145z" />
<glyph unicode="&#xfa;" horiz-adv-x="1050" d="M106 264q0 49 13 111l117 663h192l-113 -632q-6 -35 -6 -66q0 -166 158 -166q86 0 152.5 58.5t87.5 173.5l110 632h193l-185 -1038h-188l18 104q-119 -117 -274 -116q-145 0 -219 94q-55 72 -56 182zM561 1227l200 332h213l-268 -332h-145z" />
<glyph unicode="&#xfb;" horiz-adv-x="1050" d="M106 264q0 49 13 111l117 663h192l-113 -632q-6 -35 -6 -66q0 -166 158 -166q86 0 152.5 58.5t87.5 173.5l110 632h193l-185 -1038h-188l18 104q-119 -117 -274 -116q-145 0 -219 94q-55 72 -56 182zM335 1227l301 329h162l185 -329h-160l-129 198l-199 -198h-160z" />
<glyph unicode="&#xfc;" horiz-adv-x="1050" d="M106 264q0 49 13 111l117 663h192l-113 -632q-6 -35 -6 -66q0 -166 158 -166q86 0 152.5 58.5t87.5 173.5l110 632h193l-185 -1038h-188l18 104q-119 -117 -274 -116q-145 0 -219 94q-55 72 -56 182zM370 1237l39 221h174l-39 -221h-174zM778 1237l39 221h174l-39 -221 h-174z" />
<glyph unicode="&#xfd;" horiz-adv-x="862" d="M-55 -412l35 189h47q61 0 93 23.5t64 86.5l82 162l-160 989h205l99 -731l350 731h207l-643 -1245q-43 -84 -93 -129q-82 -76 -208 -76h-78zM465 1227l200 332h213l-268 -332h-145z" />
<glyph unicode="&#xfe;" horiz-adv-x="1024" d="M-12 -420l329 1878h193l-92 -524q111 117 272 117q145 0 215 -93q55 -74 56 -210q0 -89 -25 -228q-57 -324 -186 -440q-100 -92 -248 -92q-158 0 -230 118l-92 -526h-192zM328 360q0 -186 155 -186q119 0 183 105q46 77 77 241q16 98 17 162q0 182 -154 182 q-119 0 -184 -102q-47 -78 -76 -242q-18 -96 -18 -160z" />
<glyph unicode="&#xff;" horiz-adv-x="862" d="M-55 -412l35 189h47q61 0 93 23.5t64 86.5l82 162l-160 989h205l99 -731l350 731h207l-643 -1245q-43 -84 -93 -129q-82 -76 -208 -76h-78zM274 1237l39 221h174l-39 -221h-174zM682 1237l39 221h174l-39 -221h-174z" />
<glyph unicode="&#x152;" horiz-adv-x="1822" d="M119 379q0 94 45 348t78 350q49 145 155 242q166 152 375 151q178 0 260 -131l21 119h848l-35 -196h-643l-76 -431h547l-33 -192h-549l-78 -442h647l-34 -197h-850l20 119q-127 -131 -305 -131t-285.5 107.5t-107.5 283.5zM330 420q0 -86 39 -144q59 -90 182 -90t215 90 q59 57 89 144.5t70 309.5t40 308t-39 144q-61 90 -185 90q-121 0 -213 -90q-59 -57 -89.5 -144.5t-69.5 -309.5t-39 -308z" />
<glyph unicode="&#x153;" horiz-adv-x="1605" d="M88 330q0 78 21 190q49 281 182 406t307 125q213 0 281 -166q131 166 329 166q160 0 245 -98.5t85 -268.5q0 -63 -12 -133l-17 -92h-618q-8 -43 -8 -80q0 -211 198 -211q135 0 252 106l101 -124q-94 -86 -174 -121q-92 -41 -211 -41q-223 0 -301 164q-127 -164 -336 -164 q-176 0 -262 123q-61 86 -62 219zM283 365q0 -190 161 -191q84 0 152 62q80 71 117 284q16 98 16 156q0 84 -33 129q-43 59 -131 59q-84 0 -149 -59q-78 -72 -117 -285q-16 -98 -16 -155zM915 604h431q12 86 0 141q-29 131 -166 132q-137 0 -213 -132q-35 -61 -52 -141z" />
<glyph unicode="&#x178;" horiz-adv-x="1005" d="M176 1458h221l168 -641l393 641h224l-553 -858l-107 -600h-203l107 600zM393 1610l39 221h174l-39 -221h-174zM801 1610l39 221h174l-39 -221h-174z" />
<glyph unicode="&#x2c6;" horiz-adv-x="923" d="M272 1227l301 329h162l185 -329h-160l-129 198l-199 -198h-160z" />
<glyph unicode="&#x2dc;" horiz-adv-x="923" d="M297 1374q125 113 217 113q66 0 133 -49q53 -39 96 -39q53 0 123 63l72 -96q-123 -113 -215 -113q-66 0 -133 47q-55 39 -98 39q-53 0 -121 -61z" />
<glyph unicode="&#x2000;" horiz-adv-x="1024" />
<glyph unicode="&#x2001;" horiz-adv-x="2048" />
<glyph unicode="&#x2002;" horiz-adv-x="1024" />
<glyph unicode="&#x2003;" horiz-adv-x="2048" />
<glyph unicode="&#x2004;" horiz-adv-x="682" />
<glyph unicode="&#x2005;" horiz-adv-x="512" />
<glyph unicode="&#x2006;" horiz-adv-x="341" />
<glyph unicode="&#x2007;" horiz-adv-x="341" />
<glyph unicode="&#x2008;" horiz-adv-x="256" />
<glyph unicode="&#x2009;" horiz-adv-x="409" />
<glyph unicode="&#x200a;" horiz-adv-x="113" />
<glyph unicode="&#x2010;" horiz-adv-x="784" d="M119 471l33 195h550l-34 -195h-549z" />
<glyph unicode="&#x2011;" horiz-adv-x="784" d="M119 471l33 195h550l-34 -195h-549z" />
<glyph unicode="&#x2012;" horiz-adv-x="784" d="M119 471l33 195h550l-34 -195h-549z" />
<glyph unicode="&#x2013;" horiz-adv-x="985" d="M88 471l35 195h811l-35 -195h-811z" />
<glyph unicode="&#x2014;" horiz-adv-x="1812" d="M119 473l35 199h1579l-35 -199h-1579z" />
<glyph unicode="&#x2018;" horiz-adv-x="485" d="M274 1245l39 213l244 191l-72 -404h-211z" />
<glyph unicode="&#x2019;" horiz-adv-x="485" d="M242 1057l71 401h211l-39 -215z" />
<glyph unicode="&#x201a;" horiz-adv-x="483" d="M23 -188l71 403h211l-39 -215z" />
<glyph unicode="&#x201c;" horiz-adv-x="845" d="M274 1245l39 213l244 191l-72 -404h-211zM635 1245l37 213l246 191l-72 -404h-211z" />
<glyph unicode="&#x201d;" horiz-adv-x="845" d="M242 1057l71 401h211l-39 -215zM602 1057l70 401h211l-37 -215z" />
<glyph unicode="&#x201e;" horiz-adv-x="847" d="M23 -188l71 403h211l-39 -215zM383 -188l70 403h211l-37 -215z" />
<glyph unicode="&#x2022;" horiz-adv-x="946" d="M199 621q0 150 111.5 273.5t260.5 123.5q111 0 182.5 -77t71.5 -193q0 -150 -111 -274t-261 -124q-111 0 -182.5 77t-71.5 194z" />
<glyph unicode="&#x2026;" horiz-adv-x="1495" d="M55 0l43 240h219l-41 -240h-221zM555 0l43 240h219l-41 -240h-221zM1055 0l41 240h221l-43 -240h-219z" />
<glyph unicode="&#x202f;" horiz-adv-x="409" />
<glyph unicode="&#x2039;" horiz-adv-x="620" d="M76 557l516 469l-43 -252l-240 -217l162 -219l-45 -252z" />
<glyph unicode="&#x203a;" horiz-adv-x="620" d="M59 86l45 252l242 219l-166 217l45 252l353 -469z" />
<glyph unicode="&#x205f;" horiz-adv-x="512" />
<glyph unicode="&#x2122;" horiz-adv-x="1644" d="M219 1317l25 141h573l-24 -141h-218l-129 -733h-143l129 733h-213zM797 584l155 874h144l149 -497l324 497h145l-153 -874h-146l101 571l-234 -367h-133l-107 367l-100 -571h-145z" />
<glyph unicode="&#x25fc;" horiz-adv-x="1034" d="M0 0v1034h1034v-1034h-1034z" />
</font>
</defs>
</svg>
