<?xml version="1.0" standalone="no"?>
<!DOCTYPE svg PUBLIC "-//W3C//DTD SVG 1.1//EN" "http://www.w3.org/Graphics/SVG/1.1/DTD/svg11.dtd" >
<svg xmlns="http://www.w3.org/2000/svg">
<metadata></metadata>
<defs>
<font id="sapientsansboldregular" horiz-adv-x="1091" >
<font-face units-per-em="2048" ascent="1638" descent="-410" />
<missing-glyph horiz-adv-x="454" />
<glyph horiz-adv-x="2048" />
<glyph horiz-adv-x="2048" />
<glyph unicode="&#xd;" horiz-adv-x="454" />
<glyph unicode=" "  horiz-adv-x="454" />
<glyph unicode="&#x09;" horiz-adv-x="454" />
<glyph unicode="&#xa0;" horiz-adv-x="454" />
<glyph unicode="!" horiz-adv-x="690" d="M219 1458h328l-64 -1001h-200zM242 0v272h282v-272h-282z" />
<glyph unicode="&#x22;" horiz-adv-x="929" d="M129 1026v432h250v-432h-250zM551 1026v432h248v-432h-248z" />
<glyph unicode="#" horiz-adv-x="1394" d="M113 389v250h182l33 221h-144v248h183l57 362h281l-58 -362h238l57 362h279l-56 -362h142v-248h-183l-32 -221h141v-250h-182l-62 -389h-280l63 389h-237l-62 -389h-280l61 389h-141zM573 639h238l33 221h-236z" />
<glyph unicode="$" horiz-adv-x="1247" d="M29 180l184 185q117 -117 326 -123v370l-66 9q-182 23 -284.5 125t-102.5 282q0 178 113.5 298t312.5 140v185h207v-183q246 -14 403 -168l-180 -178q-90 86 -252 99v-357l78 -12q188 -31 279 -115q112 -106 112 -307q0 -182 -125 -299q-117 -111 -315 -135v-229h-207 v221q-303 10 -483 192zM360 1038q0 -63 45.5 -106t133.5 -55v342q-178 -25 -179 -181zM690 246q191 22 191 176q0 80 -45 123q-39 37 -146 53v-352z" />
<glyph unicode="%" horiz-adv-x="1716" d="M96 987v203q0 133 88 209q82 72 209 71q127 0 212 -73.5t85 -206.5v-203q0 -133 -85 -206.5t-212 -73.5t-209 71q-88 76 -88 209zM289 995q0 -117 104 -116q105 -1 105 116v187q0 117 -105 116q-104 0 -104 -116v-187zM410 0l690 1458h209l-691 -1458h-208zM1026 268v203 q0 133 88 209q82 72 209 72t212 -74t85 -207v-203q0 -133 -85 -206.5t-212 -73.5t-209 71q-88 76 -88 209zM1219 276q0 -117 104 -116q104 -1 104 116v187q0 117 -104 117t-104 -117v-187z" />
<glyph unicode="&#x26;" horiz-adv-x="1456" d="M113 430q0 217 262 391q-145 166 -146 309q0 152 104.5 246t284.5 94q170 0 271.5 -96t101.5 -248q0 -145 -149 -254q-33 -25 -105 -75l246 -291q68 90 74 256h252q-16 -297 -156 -453l262 -309h-338l-106 127q-82 -63 -135 -90q-104 -49 -242 -49q-238 0 -359.5 116.5 t-121.5 325.5zM371 434q0 -90 63.5 -147.5t157.5 -57.5q119 0 217 86l-291 342q-147 -102 -147 -223zM498 1124q0 -51 96 -163q18 12 61 40q84 55 84 123q0 51 -32.5 85t-88.5 34q-121 0 -120 -119z" />
<glyph unicode="'" horiz-adv-x="509" d="M129 1026v432h252v-432h-252z" />
<glyph unicode="(" horiz-adv-x="667" d="M154 283v893q0 172 53 264q43 74 180 211l178 -178q-49 -49 -63 -66q-29 -33 -51 -72q-31 -53 -31 -172v-868q0 -119 30.5 -172t114.5 -137l-178 -179q-74 74 -98 101q-51 57 -82 110q-53 92 -53 265z" />
<glyph unicode=")" horiz-adv-x="667" d="M100 -12q55 55 64 63q29 33 51 72q31 53 31 172v868q0 119 -30 170t-116 137l181 181q74 -74 98 -101q51 -57 82 -110q53 -92 53 -264v-893q0 -172 -53 -265q-43 -74 -180 -211z" />
<glyph unicode="*" horiz-adv-x="991" d="M102 942l226 119l-226 119l93 163l217 -137l-11 256h189l-8 -256l215 137l94 -163l-227 -119l227 -119l-94 -162l-215 135l8 -256h-189l11 256l-217 -135z" />
<glyph unicode="+" d="M92 442v250h330v328h250v-328h327v-250h-327v-327h-250v327h-330z" />
<glyph unicode="," horiz-adv-x="550" d="M129 291h293v-404l-293 -225v629z" />
<glyph unicode="-" horiz-adv-x="851" d="M111 461v248h630v-248h-630z" />
<glyph unicode="." horiz-adv-x="563" d="M129 0v303h305v-303h-305z" />
<glyph unicode="/" horiz-adv-x="804" d="M-10 -152l583 1762h250l-583 -1762h-250z" />
<glyph unicode="0" horiz-adv-x="1226" d="M170 422v614q0 201 133 322q125 113 311 112q186 0 312 -112q131 -121 131 -322v-614q0 -201 -131 -322q-125 -113 -312 -112q-186 0 -311 112q-133 121 -133 322zM436 424q0 -90 49.5 -143.5t128.5 -53.5q80 0 128.5 53.5t48.5 143.5v608q0 92 -48.5 145.5t-128.5 53.5 t-129 -54.5t-49 -144.5v-608z" />
<glyph unicode="1" horiz-adv-x="954" d="M133 913v287l297 258h266v-1458h-266v1171z" />
<glyph unicode="2" horiz-adv-x="1177" d="M143 0v240l545 632q76 88 76 177q0 82 -46 132t-130 50q-178 0 -178 -187h-267q0 195 129 314q123 113 316 112q197 0 319.5 -114.5t122.5 -308.5q0 -98 -41 -177q-29 -59 -115 -157l-407 -473h563v-240h-887z" />
<glyph unicode="3" horiz-adv-x="1191" d="M113 418h266q2 -94 61 -144q53 -47 138 -47q88 0 142 53.5t54 149.5q0 92 -54 146.5t-151 54.5h-39v231h39q184 0 185 182q0 88 -51.5 137.5t-127.5 49.5t-126 -47t-54 -129h-266q4 190 131 302.5t315 112.5q195 0 320 -116.5t125 -300.5q0 -209 -168 -299 q188 -101 188 -332q0 -209 -137 -326q-127 -109 -325 -108q-195 0 -320 100q-143 115 -145 330z" />
<glyph unicode="4" horiz-adv-x="1155" d="M86 207v252l500 999h291l-500 -999h305v272h256v-272h133v-252h-133v-207h-256v207h-596z" />
<glyph unicode="5" horiz-adv-x="1226" d="M176 408h266q23 -180 179 -181q80 0 127 47q57 57 57 218q0 262 -178 262q-137 0 -176 -119h-244v823h831v-239h-589v-314q78 74 219 74q174 0 272 -98q131 -131 131 -389q0 -133 -24 -213q-29 -96 -105 -173q-119 -119 -321 -118q-209 0 -326 116q-102 102 -119 304z " />
<glyph unicode="6" horiz-adv-x="1144" d="M113 438q0 137 123 389l307 631h291l-304 -602q45 18 109 18q156 0 266 -114q117 -123 117 -318q0 -211 -128 -332.5t-327 -121.5t-323 116q-131 123 -131 334zM379 440q0 -98 52 -155.5t136 -57.5t136.5 57.5t52.5 155.5q0 96 -52.5 154.5t-136.5 58.5t-136 -57 t-52 -156z" />
<glyph unicode="7" horiz-adv-x="1114" d="M135 989v469h928v-239l-473 -1219h-289l473 1219h-385v-230h-254z" />
<glyph unicode="8" horiz-adv-x="1220" d="M143 424q0 207 183 328q-164 115 -164 303t133 305q127 111 315 110q188 0 316 -110q131 -117 131 -305t-164 -303q184 -123 184 -328t-137 -324q-127 -113 -330 -112q-203 0 -329 112q-137 119 -138 324zM410 428q0 -84 58 -142.5t142 -58.5t142.5 58.5t58.5 142.5 t-58.5 143.5t-142.5 59.5t-142 -59.5t-58 -143.5zM428 1047q0 -80 52 -132.5t130 -52.5t129.5 52.5t51.5 132.5q0 78 -51.5 131t-129.5 53t-130 -53.5t-52 -130.5z" />
<glyph unicode="9" horiz-adv-x="1144" d="M123 1016q0 211 131 336q125 119 324 118q199 0 323 -116q131 -123 131 -334q0 -143 -121 -389l-309 -631h-289l303 602q-45 -18 -108 -18q-156 0 -266 114q-119 123 -119 318zM389 1018q0 -96 52.5 -154.5t136.5 -58.5t136 57.5t52 155.5t-52 155.5t-136 57.5 t-136.5 -57.5t-52.5 -155.5z" />
<glyph unicode=":" horiz-adv-x="612" d="M180 0v303h303v-303h-303zM180 555v303h303v-303h-303z" />
<glyph unicode=";" horiz-adv-x="612" d="M180 555v303h303v-303h-303zM186 291h291v-404l-291 -225v629z" />
<glyph unicode="&#x3c;" horiz-adv-x="2082" d="M92 584l789 788h336l-668 -661h1440v-252h-1440l668 -664h-336z" />
<glyph unicode="=" d="M92 238v249h907v-249h-907zM92 682v250h907v-250h-907z" />
<glyph unicode="&#x3e;" horiz-adv-x="2082" d="M92 459v252h1442l-668 661h336l789 -788l-789 -789h-336l668 664h-1442z" />
<glyph unicode="?" horiz-adv-x="1050" d="M125 1061q0 186 127 301q119 109 303 108q182 0 303 -106q129 -115 129 -303q0 -123 -100 -256l-152 -201q-37 -49 -37 -104v-43h-266v61q0 113 78 213l152 195q59 76 59 137q0 74 -45 121t-121 47q-78 0 -121 -48t-43 -122h-266zM424 0v272h283v-272h-283z" />
<glyph unicode="@" horiz-adv-x="1810" d="M164 180q0 -190 135 -325.5t326 -135.5h559q111 0 212 51.5t156 133.5l-231 121q-37 -47 -129 -48h-569q-80 0 -139.5 58.5t-59.5 138.5v741q0 80 59.5 139.5t139.5 59.5h569q80 0 136 -56.5t56 -135.5v-480q0 -74 -71 -73q-76 0 -76 77v510h-217v-47q-59 45 -154 45 q-154 0 -241 -110q-78 -96 -78 -289q0 -184 71 -281q84 -113 248 -112q96 0 191 78q96 -119 260 -119q131 0 225 88q104 94 105 244v450q0 190 -136.5 324.5t-326.5 134.5h-559q-190 0 -325.5 -135t-135.5 -326v-721zM778 557q0 193 121 193t121 -193q0 -182 -121 -182 t-121 182z" />
<glyph unicode="A" horiz-adv-x="1286" d="M0 0l530 1458h224l532 -1458h-297l-86 258h-518l-88 -258h-297zM465 498h362l-178 530z" />
<glyph unicode="B" horiz-adv-x="1327" d="M160 0v1458h585q211 0 331 -110.5t120 -298.5q0 -111 -61 -199q-51 -70 -119 -102q201 -95 201 -328q0 -199 -123 -309.5t-324 -110.5h-610zM444 254h297q92 0 141.5 51t49.5 129t-49 128t-142 50h-297v-358zM444 868h279q90 0 139 46t49 122t-49 122t-139 46h-279v-336z " />
<glyph unicode="C" horiz-adv-x="1249" d="M111 729q0 240 16 330q29 154 127 252q159 159 390 159h3q211 0 355.5 -118.5t181.5 -341.5h-289q-51 207 -246 207q-129 0 -198 -97q-55 -78 -56 -391q0 -170 4 -213q14 -137 68 -199q67 -75 179 -75h3q195 0 246 207h289q-37 -223 -187 -345q-140 -116 -346 -116h-4 q-233 0 -393 159q-98 98 -127 252q-16 90 -16 330z" />
<glyph unicode="D" horiz-adv-x="1329" d="M160 0v1458h526q246 0 385 -139q109 -109 135 -270q13 -74 13 -314q0 -244 -13 -319q-27 -168 -135 -277q-139 -139 -385 -139h-526zM444 254h215q139 0 213 90q39 47 52 137q10 76 10 254q0 176 -10 248q-12 84 -52 131q-74 90 -213 90h-215v-950z" />
<glyph unicode="E" horiz-adv-x="1218" d="M160 0v1458h960v-254h-676v-342h576v-254h-576v-354h676v-254h-960z" />
<glyph unicode="F" horiz-adv-x="1187" d="M160 0v1458h960v-254h-676v-358h576v-254h-576v-592h-284z" />
<glyph unicode="G" horiz-adv-x="1306" d="M111 729q0 240 16 330q29 154 127 252q159 159 390 159h3q238 0 387 -141q129 -125 162 -325h-287q-51 213 -262 213q-113 0 -182 -78q-53 -61 -66 -197q-4 -37 -4 -213t4 -213q12 -137 66 -199q67 -75 179 -75h3q129 0 203 82q66 72 65 194v55h-268v238h551v-213 q0 -299 -139 -444q-160 -166 -412 -166q-233 0 -393 159q-98 98 -127 252q-16 90 -16 330z" />
<glyph unicode="H" horiz-adv-x="1382" d="M160 0v1458h284v-596h494v596h285v-1458h-285v610h-494v-610h-284z" />
<glyph unicode="I" horiz-adv-x="604" d="M160 0v1458h284v-1458h-284z" />
<glyph unicode="J" horiz-adv-x="1026" d="M-4 137l188 187q82 -82 187 -82q229 0 229 250v966h285v-979q0 -231 -156 -366q-143 -125 -358 -125q-225 0 -375 149z" />
<glyph unicode="K" horiz-adv-x="1341" d="M160 0v1458h284v-635l514 635h347l-484 -579l518 -879h-331l-375 664l-189 -226v-438h-284z" />
<glyph unicode="L" horiz-adv-x="1157" d="M160 0v1458h284v-1204h662v-254h-946z" />
<glyph unicode="M" horiz-adv-x="1640" d="M160 0v1458h280l381 -788l379 788h281v-1458h-285v850l-278 -553h-193l-281 553v-850h-284z" />
<glyph unicode="N" horiz-adv-x="1435" d="M160 0v1458h254l577 -893v893h285v-1458h-254l-578 895v-895h-284z" />
<glyph unicode="O" horiz-adv-x="1298" d="M111 729q0 240 16 330q29 154 127 252q159 159 392 159h3q233 0 393 -159q100 -100 127 -252q19 -92 19 -330t-19 -330q-27 -152 -127 -252q-159 -159 -390 -159h-3q-236 0 -395 159q-98 98 -127 252q-16 90 -16 330zM395 729q0 -176 4 -213q12 -135 66 -197 q69 -77 181 -77h3q127 0 199 98q55 76 55 389q0 168 -4 213q-12 135 -68 197q-70 78 -182 78q-115 0 -184 -78q-53 -61 -66 -197q-4 -37 -4 -213z" />
<glyph unicode="P" horiz-adv-x="1265" d="M160 0v1458h565q219 0 354 -135q127 -126 127 -319t-127 -320q-135 -135 -354 -135h-281v-549h-284zM444 805h267q96 0 153.5 54.5t57.5 144.5t-57.5 145t-153.5 55h-267v-399z" />
<glyph unicode="Q" horiz-adv-x="1296" d="M111 729q0 240 16 330q29 154 127 252q159 159 392 159h3q233 0 393 -159q100 -100 127 -252q18 -92 19 -330q0 -209 -10 -289q-18 -137 -80 -227l125 -125l-150 -149l-129 129q-123 -80 -295 -80q-236 0 -395 159q-98 98 -127 252q-16 90 -16 330zM395 729 q0 -176 4 -213q12 -135 66 -197q69 -77 181 -77h3q55 0 94 26l-127 125l152 150l109 -109q26 76 26 295q0 168 -4 213q-12 135 -68 197q-70 78 -182 78q-115 0 -184 -78q-53 -61 -66 -197q-4 -37 -4 -213z" />
<glyph unicode="R" horiz-adv-x="1318" d="M160 0v1458h571q217 0 348 -131q125 -125 125 -315q0 -145 -80 -250q-72 -92 -186 -133l326 -629h-330l-285 582h-205v-582h-284zM444 819h269q92 0 149.5 53.5t57.5 139.5t-57.5 139t-149.5 53h-269v-385z" />
<glyph unicode="S" horiz-adv-x="1189" d="M29 180l184 185q123 -123 352 -123q258 0 258 180q0 82 -43 122t-131 52l-176 25q-387 53 -387 407q0 199 137 320.5t371 121.5q295 0 471 -170l-180 -178q-104 100 -299 101q-109 0 -167.5 -52.5t-58.5 -132.5q0 -63 46.5 -106t132.5 -55l172 -25q186 -27 278 -113 q113 -106 113 -309q0 -207 -152.5 -324.5t-388.5 -117.5q-342 0 -532 192z" />
<glyph unicode="T" horiz-adv-x="1148" d="M51 1204v254h1047v-254h-381v-1204h-285v1204h-381z" />
<glyph unicode="U" horiz-adv-x="1347" d="M137 500v958h285v-948q0 -125 67.5 -196.5t184.5 -71.5t185.5 71.5t68.5 196.5v948h282v-958q0 -227 -153.5 -369.5t-382.5 -142.5t-383 142t-154 370z" />
<glyph unicode="V" horiz-adv-x="1169" d="M-4 1458h295l293 -950l293 950h297l-484 -1458h-213z" />
<glyph unicode="W" horiz-adv-x="1796" d="M2 1458h297l225 -919l267 919h213l266 -919l227 919h297l-391 -1458h-238l-268 885l-268 -885h-238z" />
<glyph unicode="X" horiz-adv-x="1214" d="M0 0l453 748l-424 710h323l254 -471l256 471h322l-424 -710l454 -748h-325l-283 508l-280 -508h-326z" />
<glyph unicode="Y" horiz-adv-x="1150" d="M-4 1458h309l273 -588l268 588h309l-438 -860v-598h-283v598z" />
<glyph unicode="Z" horiz-adv-x="1101" d="M72 0v229l622 975h-596v254h932v-225l-624 -979h624v-254h-958z" />
<glyph unicode="[" horiz-adv-x="753" d="M154 -152v1762h526v-240h-260v-1282h260v-240h-526z" />
<glyph unicode="\" horiz-adv-x="804" d="M-10 1583h250l575 -1735h-250z" />
<glyph unicode="]" horiz-adv-x="753" d="M76 86h260v1286h-260v238h526v-1762h-526v238z" />
<glyph unicode="^" horiz-adv-x="1212" d="M119 797l364 676h246l365 -676h-279l-209 385l-209 -385h-278z" />
<glyph unicode="_" horiz-adv-x="1212" d="M-10 -186h1233v-179h-1233v179z" />
<glyph unicode="`" horiz-adv-x="1003" d="M203 1585h280l131 -348h-178z" />
<glyph unicode="a" horiz-adv-x="1073" d="M63 324q0 135 93.5 222t271.5 87h252v53q0 168 -199 168q-129 0 -205 -88l-170 166q76 84 166 117q79 30 211 30h9q455 0 454 -377v-702h-260v92q-102 -102 -262 -102q-180 0 -270.5 92t-90.5 242zM319 330q0 -123 154 -123q137 0 182 67q25 37 25 119v58h-211 q-150 0 -150 -121z" />
<glyph unicode="b" horiz-adv-x="1126" d="M139 0v1458h267v-485q96 106 258 106q164 0 260 -96q72 -72 94 -205q14 -81 14 -243q0 -164 -14 -246q-23 -133 -94 -205q-96 -96 -260 -96t-267 112v-100h-258zM406 535q0 -141 22 -203q41 -104 158 -105q117 0 157 105q23 62 23 203t-23 202q-41 102 -157 103 q-117 0 -158 -103q-22 -58 -22 -190v-12z" />
<glyph unicode="c" horiz-adv-x="962" d="M86 535q0 293 160 434q122 110 314 110h3q215 0 352 -143l-180 -180q-78 84 -172 84t-152.5 -72t-58.5 -233q0 -164 58.5 -236t152.5 -72t172 84l180 -178q-139 -145 -352 -145q-195 0 -317 110q-160 143 -160 437z" />
<glyph unicode="d" horiz-adv-x="1128" d="M94 535q0 162 15 243q23 133 94 205q96 96 260 96t260 -106v485h266v-1458h-260v100q-99 -112 -261 -112h-3q-166 0 -262 96q-72 72 -94 205q-14 82 -15 246zM360 535q0 -141 23 -203q41 -104 158 -105q111 0 151 88q31 68 31 220t-31 217q-41 88 -151 88 q-117 0 -158 -103q-23 -61 -23 -202z" />
<glyph unicode="e" horiz-adv-x="1101" d="M86 535q0 256 129 403q125 141 336 141q217 0 344 -145q121 -139 121 -365v-118h-668q0 -106 62.5 -172t171.5 -66q141 0 241 100l162 -157q-88 -88 -172 -125q-96 -43 -233 -43q-494 0 -494 547zM348 633h406q-2 66 -25 115q-49 110 -176 110h-2q-129 0 -178 -110 q-23 -49 -25 -115z" />
<glyph unicode="f" horiz-adv-x="679" d="M61 834v202h111v133q0 125 74 209q86 96 237 97h152v-226h-105q-92 0 -92 -96v-117h197v-202h-197v-834h-266v834h-111z" />
<glyph unicode="g" horiz-adv-x="1116" d="M94 563q0 164 17 244q23 109 92 178q94 94 256 94q160 0 260 -112v100h258v-1028q0 -195 -128 -318.5t-341 -123.5q-242 0 -387 139l166 168q84 -82 209 -82q111 0 168 69q47 59 47 152v109q-96 -106 -254 -107q-160 0 -254 94q-70 70 -92 180q-16 80 -17 244zM360 563 q0 -131 29 -192q39 -86 146 -86q111 0 149 92q27 61 27 186t-27 185q-39 92 -149 92q-106 0 -146 -86q-29 -59 -29 -191z" />
<glyph unicode="h" horiz-adv-x="1144" d="M139 0v1458h267v-489q108 110 253 110h3q170 0 266 -110q90 -104 90 -279v-690h-266v651q0 98 -56 148q-47 41 -118 41q-72 0 -117 -41q-55 -51 -55 -148v-651h-267z" />
<glyph unicode="i" horiz-adv-x="542" d="M135 1249v217h273v-217h-273zM139 0v1067h267v-1067h-267z" />
<glyph unicode="j" horiz-adv-x="542" d="M-57 -174h102q94 0 94 96v1145h267v-1161q0 -125 -74 -209q-84 -96 -238 -96h-151v225zM135 1249v217h273v-217h-273z" />
<glyph unicode="k" horiz-adv-x="1124" d="M139 0v1458h267v-827l354 436h321l-381 -430l410 -637h-330l-262 444l-112 -127v-317h-267z" />
<glyph unicode="l" horiz-adv-x="645" d="M129 305v1153h266v-1136q0 -96 94 -97h103v-225h-152q-154 0 -237 96q-74 84 -74 209z" />
<glyph unicode="m" horiz-adv-x="1773" d="M139 0v1067h260v-98q105 110 264 110h3q184 0 282 -135q129 135 320 135q168 0 262 -94q117 -117 117 -303v-682h-267v645q0 100 -57 152q-47 43 -119 43t-119 -41q-59 -51 -59 -148v-651h-266v645q0 100 -58 152q-47 43 -118 43q-74 0 -121 -43q-57 -51 -57 -152v-645 h-267z" />
<glyph unicode="n" horiz-adv-x="1153" d="M139 0v1067h260v-98q103 110 264 110h3q158 0 252 -94q109 -109 108 -303v-682h-266v645q0 100 -58 152q-47 43 -118 43q-74 0 -121 -43q-57 -51 -57 -152v-645h-267z" />
<glyph unicode="o" d="M94 535q0 287 123 415.5t328 128.5q207 0 329.5 -128.5t122.5 -415.5q0 -154 -24 -244q-27 -100 -96 -172q-125 -131 -332 -131q-205 0 -330 131q-70 72 -96 172q-25 90 -25 244zM360 535q0 -199 62 -261q47 -47 123 -47q78 0 125 47q61 62 61 261q0 197 -61 258 q-47 47 -125 47q-76 0 -123 -47q-61 -61 -62 -258z" />
<glyph unicode="p" horiz-adv-x="1126" d="M139 -391v1458h258v-100q101 112 264 112h3q164 0 260 -96q72 -72 94 -205q14 -81 14 -243q0 -164 -14 -246q-23 -133 -94 -205q-96 -96 -260 -96q-162 0 -258 106v-485h-267zM406 535q0 -141 22 -203q41 -104 158 -105q117 0 157 105q23 62 23 203t-23 202 q-41 102 -157 103q-117 0 -158 -103q-22 -58 -22 -190v-12z" />
<glyph unicode="q" horiz-adv-x="1128" d="M94 535q0 162 15 243q23 133 94 205q96 96 262 96q164 0 264 -112v100h260v-1458h-266v485q-96 -106 -260 -106t-260 96q-72 72 -94 205q-14 82 -15 246zM360 535q0 -141 23 -203q41 -104 158 -105q111 0 151 88q31 68 31 220t-31 217q-41 88 -151 88q-117 0 -158 -103 q-23 -61 -23 -202z" />
<glyph unicode="r" horiz-adv-x="911" d="M139 0v1067h260v-102q95 114 266 114h3q152 0 252 -100l-201 -203q-63 63 -141 64q-68 0 -117 -47q-55 -55 -55 -150v-643h-267z" />
<glyph unicode="s" horiz-adv-x="1005" d="M35 141l174 174q100 -100 285 -100q188 0 188 111q0 88 -113 98l-168 16q-311 31 -311 299q0 160 125 254q115 86 287 86q274 0 407 -125l-164 -166q-80 72 -247 72q-152 0 -152 -102q0 -82 111 -92l168 -17q317 -30 317 -313q0 -170 -131 -262q-123 -86 -322 -86 q-150 0 -243 26q-119 35 -211 127z" />
<glyph unicode="t" horiz-adv-x="700" d="M51 834v202h113v316h266v-316h188v-202h-188v-512q0 -96 92 -97h96v-225h-145q-152 0 -235 96q-74 84 -74 209v529h-113z" />
<glyph unicode="u" horiz-adv-x="1153" d="M127 385v682h266v-645q0 -100 58 -152q47 -43 118 -43q74 0 121 43q57 51 58 152v645h266v-1067h-260v98q-103 -110 -264 -110h-3q-158 0 -251 94q-109 109 -109 303z" />
<glyph unicode="v" horiz-adv-x="989" d="M-2 1067h281l217 -659l215 659h280l-391 -1067h-209z" />
<glyph unicode="w" horiz-adv-x="1533" d="M-2 1067h283l172 -659l217 659h194l219 -659l172 659h281l-326 -1067h-219l-223 670l-223 -670h-219z" />
<glyph unicode="x" horiz-adv-x="1058" d="M14 0l369 545l-354 522h319l180 -305l183 305h319l-354 -522l368 -545h-319l-197 319l-194 -319h-320z" />
<glyph unicode="y" horiz-adv-x="991" d="M-2 1067h281l221 -659l213 659h280l-456 -1239q-33 -90 -80 -137q-82 -82 -230 -82h-104v239h61q59 0 87 20.5t46 76.5l45 131z" />
<glyph unicode="z" horiz-adv-x="958" d="M66 0v203l473 624h-447v240h787v-203l-480 -624h480v-240h-813z" />
<glyph unicode="{" horiz-adv-x="915" d="M78 610v238h94q68 0 104.5 37t36.5 125v297q0 141 86 227q76 76 230 76h209v-240h-109q-90 0 -117 -29q-33 -35 -32 -131v-276q0 -150 -142 -205q141 -55 142 -205v-276q0 -133 71 -154q27 -6 78 -6h109v-240h-209q-154 0 -230 76q-86 86 -86 228v297q0 88 -36.5 124.5 t-104.5 36.5h-94z" />
<glyph unicode="|" horiz-adv-x="696" d="M215 -152v1762h266v-1762h-266z" />
<glyph unicode="}" horiz-adv-x="915" d="M78 88h108q90 0 120 32t30 128v276q0 150 141 205q-141 55 -141 205v276q0 133 -72 154q-27 6 -78 6h-108v240h209q154 0 229 -76q86 -86 86 -227v-297q0 -88 37 -125t104 -37h95v-238h-95q-68 0 -104.5 -36.5t-36.5 -124.5v-297q0 -141 -86 -228q-76 -76 -229 -76h-209 v240z" />
<glyph unicode="~" horiz-adv-x="1220" d="M66 600q98 98 170.5 137t164.5 39q109 0 240 -69q92 -49 166 -50q92 0 178 86l170 -168q-96 -96 -171 -136t-167 -40q-109 0 -239 70q-92 49 -168 49q-90 0 -177 -86z" />
<glyph unicode="&#xa1;" horiz-adv-x="690" d="M143 -391l66 1001h199l65 -1001h-330zM168 795v272h281v-272h-281z" />
<glyph unicode="&#xa2;" horiz-adv-x="1001" d="M86 750q0 227 109 368q100 131 270 166v174h207v-174q160 -29 278 -154l-176 -172q-63 66 -131 84v-585q68 18 131 84l176 -172q-119 -125 -278 -154v-215h-207v215q-170 35 -270 166q-109 141 -109 369zM352 750q0 -156 64 -236q33 -41 78 -53v577q-45 -12 -78 -53 q-63 -78 -64 -235z" />
<glyph unicode="&#xa3;" horiz-adv-x="1165" d="M72 608v205h125v166q0 231 155 367q143 125 359 124q223 0 372 -149l-186 -186q-82 82 -186 82q-231 0 -232 -250v-154h232v-205h-232v-354h604v-254h-886v608h-125z" />
<glyph unicode="&#xa4;" horiz-adv-x="1349" d="M109 197l151 149q-68 115 -67 240q0 125 67 239l-151 150l176 176l151 -150q111 66 238 66q129 0 239 -66l152 150l174 -176l-149 -150q66 -111 65 -239q0 -129 -65 -240l149 -149l-174 -177l-152 150q-111 -66 -239 -66q-127 0 -238 66l-151 -150zM434 586 q0 -100 69.5 -170t170.5 -70q100 0 170.5 70t70.5 170t-70.5 169.5t-170.5 69.5t-170 -69.5t-70 -169.5z" />
<glyph unicode="&#xa5;" horiz-adv-x="1148" d="M-4 1458h309l270 -590l271 590h307l-279 -553h152v-205h-256l-53 -102v-104h309v-205h-309v-289h-283v289h-311v205h311v104l-53 102h-258v205h153z" />
<glyph unicode="&#xa6;" horiz-adv-x="702" d="M215 -152v717h266v-717h-266zM215 893v717h266v-717h-266z" />
<glyph unicode="&#xa7;" horiz-adv-x="1067" d="M115 543q0 104 63 192q51 74 123 113q-156 82 -156 268q0 150 97 246q109 109 297 108q193 0 297 -102q94 -94 96 -250h-250q-6 125 -143 125q-143 0 -144 -121q0 -90 137 -135l127 -41q154 -49 224 -135q75 -94 75 -250q0 -102 -63 -192q-51 -74 -121 -113 q166 -82 166 -285q0 -178 -127 -282q-113 -92 -278 -92q-166 0 -277 84q-129 98 -131 280h256q6 -129 152 -129q150 0 149 131q0 102 -143 152l-127 43q-154 51 -224 135q-76 92 -75 250zM371 551q0 -88 49 -137q43 -43 117 -43q72 0 114 43q51 51 51 137q0 90 -51 139 q-45 43 -114 43q-74 0 -117 -43q-49 -49 -49 -139z" />
<glyph unicode="&#xa8;" horiz-adv-x="1003" d="M162 1241v256h227v-256h-227zM614 1241v256h228v-256h-228z" />
<glyph unicode="&#xa9;" horiz-adv-x="1708" d="M113 729q0 307 217 524t524 217t524 -217t217 -524t-217 -524t-524 -217t-524 217t-217 524zM289 729q0 -246 162.5 -410.5t402.5 -164.5t401.5 164.5t161.5 410.5t-161.5 411t-401.5 165t-402.5 -165t-162.5 -411zM502 729q0 190 106 301q100 102 260 103 q145 0 271 -109l-115 -115q-78 66 -156 66q-193 0 -192 -246q0 -246 192 -246q78 0 156 66l115 -115q-119 -106 -271 -106q-160 0 -260 102q-106 109 -106 299z" />
<glyph unicode="&#xaa;" horiz-adv-x="909" d="M88 864q0 109 72 174q78 74 219 74h199v41q0 133 -158 133q-100 0 -162 -69l-137 133q109 119 309 118q362 0 363 -301v-561h-211v74q-82 -82 -207 -82q-139 0 -213 76t-74 190zM297 870q0 -94 117 -94q86 0 125 31t39 113v47h-166q-115 0 -115 -97z" />
<glyph unicode="&#xab;" horiz-adv-x="1265" d="M59 563l510 508v-317l-192 -191l192 -190v-318zM629 563l512 508v-317l-197 -191l197 -190v-318z" />
<glyph unicode="&#xac;" horiz-adv-x="1040" d="M164 100v140q0 41 28.5 70.5t69.5 29.5h146q51 0 90 42t39 93v139q0 51 -39 92.5t-90 41.5h-146q-41 0 -69.5 29.5t-28.5 70.5v139q0 41 28.5 70.5t69.5 29.5h146q51 0 90 40t39 92v139q0 43 28.5 71.5t69.5 28.5h143q41 0 70 -29.5t29 -70.5v-139q0 -41 -29 -71t-70 -30 h-143q-51 0 -91 -40t-40 -91v-139q0 -51 40 -92t91 -41h143q41 0 70 -30t29 -71v-139q0 -41 -29 -70.5t-70 -29.5h-143q-51 0 -91 -42t-40 -93v-140q0 -41 -27.5 -70.5t-68.5 -29.5h-146q-41 0 -69.5 29.5t-28.5 70.5z" />
<glyph unicode="&#xad;" horiz-adv-x="851" d="M111 461v248h630v-248h-630z" />
<glyph unicode="&#xae;" horiz-adv-x="1708" d="M113 729q0 307 217 524t524 217t524 -217t217 -524t-217 -524t-524 -217t-524 217t-217 524zM289 729q0 -246 162.5 -410.5t402.5 -164.5t402.5 164.5t162.5 410.5t-162.5 411t-402.5 165t-402.5 -165t-162.5 -411zM584 336v788h321q117 0 189.5 -72.5t72.5 -174.5 q0 -150 -145 -209l166 -332h-201l-143 305h-84v-305h-176zM760 774h123q47 0 77.5 30t30.5 73t-30.5 72.5t-77.5 29.5h-123v-205z" />
<glyph unicode="&#xaf;" horiz-adv-x="1003" d="M178 1290v178h647v-178h-647z" />
<glyph unicode="&#xb0;" horiz-adv-x="958" d="M102 1110q0 158 111 268.5t266 110.5q156 0 266.5 -110.5t110.5 -268.5q0 -156 -109.5 -266.5t-267.5 -110.5q-156 0 -266.5 110.5t-110.5 266.5zM317 1110q0 -70 47.5 -117t114.5 -47q68 0 115 47t47 117t-48 117t-116 47t-114 -47t-46 -117z" />
<glyph unicode="&#xb1;" d="M92 0v250h907v-250h-907zM92 698v248h330v330h250v-330h327v-248h-327v-329h-250v329h-330z" />
<glyph unicode="&#xb2;" horiz-adv-x="712" d="M78 584v174l319 350q45 49 45 96q0 88 -86 88t-86 -90h-192q0 123 82 197q76 68 196 67q123 0 201 -70.5t78 -191.5q0 -98 -107 -213l-215 -233h322v-174h-557z" />
<glyph unicode="&#xb3;" horiz-adv-x="733" d="M78 846h192q0 -98 97 -98q96 0 96 102q0 98 -101 98h-26v166h26q90 0 91 88q0 90 -86 90t-86 -86h-193q0 119 80 189.5t199 70.5q121 0 199.5 -72.5t78.5 -185.5q0 -117 -92 -172q102 -65 102 -192q0 -129 -86 -203q-80 -66 -202 -66q-121 0 -199 64q-90 72 -90 207z" />
<glyph unicode="&#xb4;" horiz-adv-x="1003" d="M389 1237l131 348h281l-234 -348h-178z" />
<glyph unicode="&#xb6;" horiz-adv-x="1347" d="M61 1042q0 199 132 310q125 106 342 106h653v-1849h-266v1595h-205v-1595h-266v1022q-156 0 -273 121.5t-117 289.5z" />
<glyph unicode="&#xb7;" horiz-adv-x="563" d="M129 434v303h305v-303h-305z" />
<glyph unicode="&#xb8;" horiz-adv-x="1003" d="M317 -422l142 299h196l-90 -299h-248z" />
<glyph unicode="&#xb9;" horiz-adv-x="577" d="M68 1081v217l184 160h194v-874h-194v657z" />
<glyph unicode="&#xba;" horiz-adv-x="925" d="M102 1032q0 229 99.5 332.5t261.5 103.5t261 -103.5t99 -332.5q0 -227 -99 -330.5t-261 -103.5t-261.5 103.5t-99.5 330.5zM317 1032q0 -158 48 -205q37 -37 98 -36q61 0 98 36q47 47 47 205q0 160 -47 207q-37 37 -98 37t-98 -37q-47 -47 -48 -207z" />
<glyph unicode="&#xbb;" horiz-adv-x="1265" d="M127 55v318l195 190l-195 191v317l510 -508zM696 55v318l193 190l-193 191v317l512 -508z" />
<glyph unicode="&#xbc;" horiz-adv-x="1691" d="M68 1081v217l184 160h194v-874h-194v657zM371 0l690 1458h209l-690 -1458h-209zM1008 117v182l292 575h211l-294 -575h151v127h184v-127h68v-182h-68v-117h-184v117h-360z" />
<glyph unicode="&#xbd;" horiz-adv-x="1744" d="M68 1081v217l184 160h194v-874h-194v657zM362 0l691 1458h207l-691 -1458h-207zM1110 0v174l320 350q47 51 47 97q0 88 -88 88q-84 0 -84 -91h-195q0 123 82 197q76 68 197 68q123 0 200.5 -71t77.5 -191q0 -98 -106 -213l-215 -234h321v-174h-557z" />
<glyph unicode="&#xbe;" horiz-adv-x="1751" d="M78 846h192q0 -98 97 -98q96 0 96 102q0 98 -101 98h-26v166h26q90 0 91 88q0 90 -86 90t-86 -86h-193q0 119 80 189.5t199 70.5q121 0 199.5 -72.5t78.5 -185.5q0 -117 -92 -172q102 -65 102 -192q0 -129 -86 -203q-80 -66 -202 -66q-121 0 -199 64q-90 72 -90 207z M436 0l690 1458h209l-690 -1458h-209zM1067 117v182l293 575h211l-295 -575h151v127h185v-127h67v-182h-67v-117h-185v117h-360z" />
<glyph unicode="&#xbf;" horiz-adv-x="1050" d="M63 6q0 121 101 256l151 203q37 49 37 104v41h266v-61q0 -113 -77 -213l-152 -195q-59 -76 -59 -137q0 -74 44 -121t120 -47q78 0 121.5 49t43.5 123h267q0 -186 -124 -298.5t-308 -112.5q-180 0 -301 106q-129 115 -130 303zM344 795v272h283v-272h-283z" />
<glyph unicode="&#xc0;" horiz-adv-x="1286" d="M0 0l530 1458h224l532 -1458h-297l-86 258h-518l-88 -258h-297zM340 1947h280l131 -348h-178zM465 498h362l-178 530z" />
<glyph unicode="&#xc1;" horiz-adv-x="1286" d="M0 0l530 1458h224l532 -1458h-297l-86 258h-518l-88 -258h-297zM465 498h362l-178 530zM526 1599l131 348h281l-234 -348h-178z" />
<glyph unicode="&#xc2;" horiz-adv-x="1286" d="M0 0l530 1458h224l532 -1458h-297l-86 258h-518l-88 -258h-297zM262 1599l270 346h213l271 -346h-207l-170 186l-170 -186h-207zM465 498h362l-178 530z" />
<glyph unicode="&#xc3;" horiz-adv-x="1286" d="M0 0l530 1458h224l532 -1458h-297l-86 258h-518l-88 -258h-297zM268 1763q121 121 229 121q80 0 158 -47q61 -37 113 -37q61 0 121 59l118 -117q-121 -121 -231 -120q-76 0 -158 47q-63 37 -114 36q-61 0 -121 -59zM465 498h362l-178 530z" />
<glyph unicode="&#xc4;" horiz-adv-x="1286" d="M0 0l530 1458h224l532 -1458h-297l-86 258h-518l-88 -258h-297zM299 1603v256h227v-256h-227zM465 498h362l-178 530zM751 1603v256h228v-256h-228z" />
<glyph unicode="&#xc5;" horiz-adv-x="1286" d="M0 0l530 1458h224l532 -1458h-297l-86 258h-518l-88 -258h-297zM370 1810q0 111 79 190t190 79t189.5 -78t78.5 -191q0 -111 -79 -189.5t-189 -78.5q-111 0 -190 79t-79 189zM465 498h362l-178 530zM520 1810q0 -49 35 -85t84 -36t84 36t35 85t-35 84t-84 35t-84 -35 t-35 -84z" />
<glyph unicode="&#xc6;" horiz-adv-x="1984" d="M-4 0l762 1458h1128v-254h-676v-344h578v-254h-578v-352h676v-254h-958v319h-461l-166 -319h-305zM590 559h338v645z" />
<glyph unicode="&#xc7;" horiz-adv-x="1249" d="M111 729q0 240 16 330q29 154 127 252q160 160 393 159q211 0 355.5 -118.5t181.5 -341.5h-289q-51 207 -246 207q-129 0 -198 -97q-55 -78 -56 -391q0 -170 4 -213q14 -137 68 -199q68 -76 182 -75q195 0 246 207h289q-37 -223 -187 -345q-141 -117 -350 -116 q-233 0 -393 159q-98 98 -127 252q-16 90 -16 330zM428 -422l142 299h196l-90 -299h-248z" />
<glyph unicode="&#xc8;" horiz-adv-x="1218" d="M160 0v1458h960v-254h-676v-342h576v-254h-576v-354h676v-254h-960zM326 1947h280l131 -348h-178z" />
<glyph unicode="&#xc9;" horiz-adv-x="1218" d="M160 0v1458h960v-254h-676v-342h576v-254h-576v-354h676v-254h-960zM510 1599l131 348h281l-234 -348h-178z" />
<glyph unicode="&#xca;" horiz-adv-x="1218" d="M160 0v1458h960v-254h-676v-342h576v-254h-576v-354h676v-254h-960zM248 1599l270 346h213l271 -346h-207l-170 186l-170 -186h-207z" />
<glyph unicode="&#xcb;" horiz-adv-x="1218" d="M160 0v1458h960v-254h-676v-342h576v-254h-576v-354h676v-254h-960zM285 1603v256h227v-256h-227zM737 1603v256h228v-256h-228z" />
<glyph unicode="&#xcc;" horiz-adv-x="604" d="M58 1947h280l131 -348h-178zM160 0v1458h284v-1458h-284z" />
<glyph unicode="&#xcd;" horiz-adv-x="604" d="M141 1599l131 348h281l-234 -348h-178zM160 0v1458h284v-1458h-284z" />
<glyph unicode="&#xce;" horiz-adv-x="604" d="M-78 1599l270 346h213l271 -346h-207l-170 186l-170 -186h-207zM160 0v1458h284v-1458h-284z" />
<glyph unicode="&#xcf;" horiz-adv-x="604" d="M-37 1603v256h227v-256h-227zM160 0v1458h284v-1458h-284zM415 1603v256h228v-256h-228z" />
<glyph unicode="&#xd0;" horiz-adv-x="1376" d="M66 629v217h141v612h526q252 0 404 -172q92 -104 116 -239q13 -76 13 -318q0 -246 -15 -323q-23 -133 -114 -236q-154 -170 -408 -170h-522v629h-141zM492 252h215q154 0 227 108q37 55 45 175q2 22 2 190q0 162 -2 195q-10 123 -49 180q-76 106 -223 106h-215v-360h237 v-217h-237v-377z" />
<glyph unicode="&#xd1;" horiz-adv-x="1435" d="M160 0v1458h254l577 -893v893h285v-1458h-254l-578 895v-895h-284zM348 1763q121 121 229 121q80 0 158 -47q61 -37 113 -37q61 0 121 59l118 -117q-121 -121 -231 -120q-76 0 -158 47q-63 37 -114 36q-61 0 -121 -59z" />
<glyph unicode="&#xd2;" horiz-adv-x="1298" d="M111 729q0 240 16 330q29 154 127 252q160 160 395 159q233 0 393 -159q100 -100 127 -252q19 -92 19 -330t-19 -330q-27 -152 -127 -252q-160 -160 -393 -159q-236 0 -395 159q-98 98 -127 252q-16 90 -16 330zM350 1947h280l131 -348h-178zM395 729q0 -176 4 -213 q12 -135 66 -197q70 -78 184 -77q127 0 199 98q55 76 55 389q0 168 -4 213q-12 135 -68 197q-70 78 -182 78q-115 0 -184 -78q-53 -61 -66 -197q-4 -37 -4 -213z" />
<glyph unicode="&#xd3;" horiz-adv-x="1298" d="M111 729q0 240 16 330q29 154 127 252q160 160 395 159q233 0 393 -159q100 -100 127 -252q19 -92 19 -330t-19 -330q-27 -152 -127 -252q-160 -160 -393 -159q-236 0 -395 159q-98 98 -127 252q-16 90 -16 330zM395 729q0 -176 4 -213q12 -135 66 -197q70 -78 184 -77 q127 0 199 98q55 76 55 389q0 168 -4 213q-12 135 -68 197q-70 78 -182 78q-115 0 -184 -78q-53 -61 -66 -197q-4 -37 -4 -213zM536 1599l131 348h281l-234 -348h-178z" />
<glyph unicode="&#xd4;" horiz-adv-x="1298" d="M111 729q0 240 16 330q29 154 127 252q160 160 395 159q233 0 393 -159q100 -100 127 -252q19 -92 19 -330t-19 -330q-27 -152 -127 -252q-160 -160 -393 -159q-236 0 -395 159q-98 98 -127 252q-16 90 -16 330zM272 1599l270 346h213l271 -346h-207l-170 186l-170 -186 h-207zM395 729q0 -176 4 -213q12 -135 66 -197q70 -78 184 -77q127 0 199 98q55 76 55 389q0 168 -4 213q-12 135 -68 197q-70 78 -182 78q-115 0 -184 -78q-53 -61 -66 -197q-4 -37 -4 -213z" />
<glyph unicode="&#xd5;" horiz-adv-x="1298" d="M111 729q0 240 16 330q29 154 127 252q160 160 395 159q233 0 393 -159q100 -100 127 -252q19 -92 19 -330t-19 -330q-27 -152 -127 -252q-160 -160 -393 -159q-236 0 -395 159q-98 98 -127 252q-16 90 -16 330zM278 1763q121 121 229 121q80 0 158 -47q61 -37 113 -37 q61 0 121 59l118 -117q-121 -121 -231 -120q-76 0 -158 47q-63 37 -114 36q-61 0 -121 -59zM395 729q0 -176 4 -213q12 -135 66 -197q70 -78 184 -77q127 0 199 98q55 76 55 389q0 168 -4 213q-12 135 -68 197q-70 78 -182 78q-115 0 -184 -78q-53 -61 -66 -197 q-4 -37 -4 -213z" />
<glyph unicode="&#xd6;" horiz-adv-x="1298" d="M111 729q0 240 16 330q29 154 127 252q160 160 395 159q233 0 393 -159q100 -100 127 -252q19 -92 19 -330t-19 -330q-27 -152 -127 -252q-160 -160 -393 -159q-236 0 -395 159q-98 98 -127 252q-16 90 -16 330zM309 1603v256h227v-256h-227zM395 729q0 -176 4 -213 q12 -135 66 -197q70 -78 184 -77q127 0 199 98q55 76 55 389q0 168 -4 213q-12 135 -68 197q-70 78 -182 78q-115 0 -184 -78q-53 -61 -66 -197q-4 -37 -4 -213zM761 1603v256h228v-256h-228z" />
<glyph unicode="&#xd7;" d="M90 297l289 289l-289 288l168 168l287 -288l289 288l167 -168l-288 -288l288 -289l-167 -168l-289 289l-287 -289z" />
<glyph unicode="&#xd8;" horiz-adv-x="1314" d="M111 729q0 240 16 330q29 154 127 252q160 160 395 159q133 0 232 -45l59 123h201l-109 -227l10 -10q100 -100 127 -252q19 -92 19 -330t-19 -330q-27 -152 -127 -252q-160 -160 -393 -159q-133 0 -231 45l-60 -123h-202l108 227l-10 10q-98 98 -127 252q-16 90 -16 330z M395 729q0 -233 19 -309l364 764q-53 33 -129 33q-115 0 -184 -78q-53 -61 -66 -197q-4 -37 -4 -213zM518 276q57 -35 131 -34q127 0 199 98q55 76 55 389q0 225 -20 309z" />
<glyph unicode="&#xd9;" horiz-adv-x="1347" d="M137 500v958h285v-948q0 -125 67.5 -196.5t184.5 -71.5t185.5 71.5t68.5 196.5v948h282v-958q0 -227 -153.5 -369.5t-382.5 -142.5t-383 142t-154 370zM375 1947h280l131 -348h-178z" />
<glyph unicode="&#xda;" horiz-adv-x="1347" d="M137 500v958h285v-948q0 -125 67.5 -196.5t184.5 -71.5t185.5 71.5t68.5 196.5v948h282v-958q0 -227 -153.5 -369.5t-382.5 -142.5t-383 142t-154 370zM561 1599l131 348h281l-234 -348h-178z" />
<glyph unicode="&#xdb;" horiz-adv-x="1347" d="M137 500v958h285v-948q0 -125 67.5 -196.5t184.5 -71.5t185.5 71.5t68.5 196.5v948h282v-958q0 -227 -153.5 -369.5t-382.5 -142.5t-383 142t-154 370zM297 1599l270 346h213l271 -346h-207l-170 186l-170 -186h-207z" />
<glyph unicode="&#xdc;" horiz-adv-x="1347" d="M137 500v958h285v-948q0 -125 67.5 -196.5t184.5 -71.5t185.5 71.5t68.5 196.5v948h282v-958q0 -227 -153.5 -369.5t-382.5 -142.5t-383 142t-154 370zM334 1603v256h227v-256h-227zM786 1603v256h228v-256h-228z" />
<glyph unicode="&#xdd;" horiz-adv-x="1150" d="M-4 1458h309l273 -588l268 588h309l-438 -860v-598h-283v598zM461 1599l131 348h281l-234 -348h-178z" />
<glyph unicode="&#xde;" horiz-adv-x="1275" d="M160 0v1458h284v-268h281q219 0 354 -133q127 -127 127 -320t-127 -319q-135 -135 -354 -135h-281v-283h-284zM444 537h267q96 0 153.5 55t57.5 145t-57.5 144.5t-153.5 54.5h-267v-399z" />
<glyph unicode="&#xdf;" horiz-adv-x="1155" d="M139 0v1067q0 205 131 309q121 94 330 94q203 0 320 -86q125 -94 124 -272q0 -156 -124 -231q127 -66 127 -224v-327q0 -162 -86.5 -246t-255.5 -84h-107v225h53q59 0 93 31t34 96v295q0 61 -31.5 93t-91.5 32h-57v209h57q123 0 123 123q0 135 -182 135q-190 0 -190 -192 v-1047h-267z" />
<glyph unicode="&#xe0;" horiz-adv-x="1073" d="M63 324q0 135 93.5 222t271.5 87h252v53q0 168 -199 168q-129 0 -205 -88l-170 166q76 84 166 117q82 31 220 30q455 0 454 -377v-702h-260v92q-102 -102 -262 -102q-180 0 -270.5 92t-90.5 242zM226 1585h280l131 -348h-178zM319 330q0 -123 154 -123q137 0 182 67 q25 37 25 119v58h-211q-150 0 -150 -121z" />
<glyph unicode="&#xe1;" horiz-adv-x="1073" d="M63 324q0 135 93.5 222t271.5 87h252v53q0 168 -199 168q-129 0 -205 -88l-170 166q76 84 166 117q82 31 220 30q455 0 454 -377v-702h-260v92q-102 -102 -262 -102q-180 0 -270.5 92t-90.5 242zM319 330q0 -123 154 -123q137 0 182 67q25 37 25 119v58h-211 q-150 0 -150 -121zM412 1237l131 348h281l-234 -348h-178z" />
<glyph unicode="&#xe2;" horiz-adv-x="1073" d="M63 324q0 135 93.5 222t271.5 87h252v53q0 168 -199 168q-129 0 -205 -88l-170 166q76 84 166 117q82 31 220 30q455 0 454 -377v-702h-260v92q-102 -102 -262 -102q-180 0 -270.5 92t-90.5 242zM148 1237l270 346h213l271 -346h-207l-170 186l-170 -186h-207zM319 330 q0 -123 154 -123q137 0 182 67q25 37 25 119v58h-211q-150 0 -150 -121z" />
<glyph unicode="&#xe3;" horiz-adv-x="1073" d="M63 324q0 135 93.5 222t271.5 87h252v53q0 168 -199 168q-129 0 -205 -88l-170 166q76 84 166 117q82 31 220 30q455 0 454 -377v-702h-260v92q-102 -102 -262 -102q-180 0 -270.5 92t-90.5 242zM154 1401q121 121 229 121q80 0 158 -47q61 -37 113 -37q61 0 121 59 l118 -117q-121 -121 -231 -120q-76 0 -158 47q-63 37 -114 36q-61 0 -121 -59zM319 330q0 -123 154 -123q137 0 182 67q25 37 25 119v58h-211q-150 0 -150 -121z" />
<glyph unicode="&#xe4;" horiz-adv-x="1073" d="M63 324q0 135 93.5 222t271.5 87h252v53q0 168 -199 168q-129 0 -205 -88l-170 166q76 84 166 117q82 31 220 30q455 0 454 -377v-702h-260v92q-102 -102 -262 -102q-180 0 -270.5 92t-90.5 242zM185 1241v256h227v-256h-227zM319 330q0 -123 154 -123q137 0 182 67 q25 37 25 119v58h-211q-150 0 -150 -121zM637 1241v256h228v-256h-228z" />
<glyph unicode="&#xe5;" horiz-adv-x="1073" d="M63 324q0 135 93.5 222t271.5 87h252v53q0 168 -199 168q-129 0 -205 -88l-170 166q76 84 166 117q82 31 220 30q455 0 454 -377v-702h-260v92q-102 -102 -262 -102q-180 0 -270.5 92t-90.5 242zM256 1464q0 111 79 190t190 79t189.5 -78t78.5 -191q0 -111 -79 -189.5 t-189 -78.5q-111 0 -190 79t-79 189zM319 330q0 -123 154 -123q137 0 182 67q25 37 25 119v58h-211q-150 0 -150 -121zM406 1464q0 -49 35 -85t84 -36t84 36t35 85t-35 84t-84 35t-84 -35t-35 -84z" />
<glyph unicode="&#xe6;" horiz-adv-x="1695" d="M63 324q0 135 93.5 222t271.5 87h252v53q0 168 -199 168q-129 0 -205 -88l-170 166q76 84 166 117q82 31 220 30q244 0 350 -116q115 117 303 116q217 0 344 -145q121 -139 121 -365v-118h-668q0 -106 62.5 -172t171.5 -66q141 0 241 100l162 -157q-88 -88 -172 -125 q-96 -43 -233 -43q-246 0 -375 149q-82 -90 -174 -123q-78 -27 -201 -26q-178 0 -272 96q-88 90 -89 240zM319 330q0 -123 154 -123q137 0 182 67q25 37 25 119v58h-211q-150 0 -150 -121zM942 633h406q-2 66 -25 115q-49 111 -178 110q-129 0 -178 -110q-23 -49 -25 -115z " />
<glyph unicode="&#xe7;" horiz-adv-x="966" d="M86 535q0 293 160 434q123 111 317 110q215 0 352 -143l-180 -180q-78 84 -172 84t-152.5 -72t-58.5 -233q0 -164 58.5 -236t152.5 -72t172 84l180 -178q-139 -145 -352 -145q-195 0 -317 110q-160 143 -160 437zM317 -422l142 299h196l-90 -299h-248z" />
<glyph unicode="&#xe8;" horiz-adv-x="1101" d="M86 535q0 256 129 403q125 141 336 141q217 0 344 -145q121 -139 121 -365v-118h-668q0 -106 62.5 -172t171.5 -66q141 0 241 100l162 -157q-88 -88 -172 -125q-96 -43 -233 -43q-494 0 -494 547zM258 1585h280l131 -348h-178zM348 633h406q-2 66 -25 115 q-49 111 -178 110q-129 0 -178 -110q-23 -49 -25 -115z" />
<glyph unicode="&#xe9;" horiz-adv-x="1101" d="M86 535q0 256 129 403q125 141 336 141q217 0 344 -145q121 -139 121 -365v-118h-668q0 -106 62.5 -172t171.5 -66q141 0 241 100l162 -157q-88 -88 -172 -125q-96 -43 -233 -43q-494 0 -494 547zM348 633h406q-2 66 -25 115q-49 111 -178 110q-129 0 -178 -110 q-23 -49 -25 -115zM444 1237l131 348h281l-234 -348h-178z" />
<glyph unicode="&#xea;" horiz-adv-x="1101" d="M86 535q0 256 129 403q125 141 336 141q217 0 344 -145q121 -139 121 -365v-118h-668q0 -106 62.5 -172t171.5 -66q141 0 241 100l162 -157q-88 -88 -172 -125q-96 -43 -233 -43q-494 0 -494 547zM180 1237l270 346h213l271 -346h-207l-170 186l-170 -186h-207zM348 633 h406q-2 66 -25 115q-49 111 -178 110q-129 0 -178 -110q-23 -49 -25 -115z" />
<glyph unicode="&#xeb;" horiz-adv-x="1101" d="M86 535q0 256 129 403q125 141 336 141q217 0 344 -145q121 -139 121 -365v-118h-668q0 -106 62.5 -172t171.5 -66q141 0 241 100l162 -157q-88 -88 -172 -125q-96 -43 -233 -43q-494 0 -494 547zM217 1241v256h227v-256h-227zM348 633h406q-2 66 -25 115 q-49 111 -178 110q-129 0 -178 -110q-23 -49 -25 -115zM669 1241v256h228v-256h-228z" />
<glyph unicode="&#xec;" horiz-adv-x="542" d="M29 1585h280l131 -348h-178zM139 0v1067h267v-1067h-267z" />
<glyph unicode="&#xed;" horiz-adv-x="542" d="M110 1237l131 348h281l-234 -348h-178zM139 0v1067h267v-1067h-267z" />
<glyph unicode="&#xee;" horiz-adv-x="542" d="M-100 1237l270 346h213l271 -346h-207l-170 186l-170 -186h-207zM139 0v1067h267v-1067h-267z" />
<glyph unicode="&#xef;" horiz-adv-x="542" d="M-69 1241v256h227v-256h-227zM139 0v1067h267v-1067h-267zM383 1241v256h228v-256h-228z" />
<glyph unicode="&#xf0;" d="M104 520q0 279 119 404q68 70 183 100q86 23 155 14l-69 127h-234v187h139l-63 123h284l64 -123h188v-187h-94l82 -157q76 -147 101.5 -242.5t25.5 -245.5q0 -283 -121 -407.5t-319 -124.5q-199 0 -320 125t-121 407zM371 520q0 -188 57 -248q43 -45 117 -45q76 0 119 45 q55 58 55 248q0 188 -55 246q-43 45 -119 45q-74 0 -117 -45q-57 -59 -57 -246z" />
<glyph unicode="&#xf1;" horiz-adv-x="1153" d="M139 0v1067h260v-98q104 111 267 110q158 0 252 -94q109 -109 108 -303v-682h-266v645q0 100 -58 152q-47 43 -118 43q-74 0 -121 -43q-57 -51 -57 -152v-645h-267zM213 1401q121 121 229 121q80 0 158 -47q61 -37 113 -37q61 0 121 59l118 -117q-121 -121 -231 -120 q-76 0 -158 47q-63 37 -114 36q-61 0 -121 -59z" />
<glyph unicode="&#xf2;" d="M94 535q0 287 123 415.5t328 128.5q207 0 329.5 -128.5t122.5 -415.5q0 -154 -24 -244q-27 -100 -96 -172q-125 -131 -332 -131q-205 0 -330 131q-70 72 -96 172q-25 90 -25 244zM240 1585h280l131 -348h-178zM360 535q0 -199 62 -261q47 -47 123 -47q78 0 125 47 q61 62 61 261q0 197 -61 258q-47 47 -125 47q-76 0 -123 -47q-61 -61 -62 -258z" />
<glyph unicode="&#xf3;" d="M94 535q0 287 123 415.5t328 128.5q207 0 329.5 -128.5t122.5 -415.5q0 -154 -24 -244q-27 -100 -96 -172q-125 -131 -332 -131q-205 0 -330 131q-70 72 -96 172q-25 90 -25 244zM360 535q0 -199 62 -261q47 -47 123 -47q78 0 125 47q61 62 61 261q0 197 -61 258 q-47 47 -125 47q-76 0 -123 -47q-61 -61 -62 -258zM434 1237l131 348h281l-234 -348h-178z" />
<glyph unicode="&#xf4;" d="M94 535q0 287 123 415.5t328 128.5q207 0 329.5 -128.5t122.5 -415.5q0 -154 -24 -244q-27 -100 -96 -172q-125 -131 -332 -131q-205 0 -330 131q-70 72 -96 172q-25 90 -25 244zM170 1237l270 346h213l271 -346h-207l-170 186l-170 -186h-207zM360 535q0 -199 62 -261 q47 -47 123 -47q78 0 125 47q61 62 61 261q0 197 -61 258q-47 47 -125 47q-76 0 -123 -47q-61 -61 -62 -258z" />
<glyph unicode="&#xf5;" d="M94 535q0 287 123 415.5t328 128.5q207 0 329.5 -128.5t122.5 -415.5q0 -154 -24 -244q-27 -100 -96 -172q-125 -131 -332 -131q-205 0 -330 131q-70 72 -96 172q-25 90 -25 244zM176 1401q121 121 229 121q80 0 158 -47q61 -37 113 -37q61 0 121 59l118 -117 q-121 -121 -231 -120q-76 0 -158 47q-63 37 -114 36q-61 0 -121 -59zM360 535q0 -199 62 -261q47 -47 123 -47q78 0 125 47q61 62 61 261q0 197 -61 258q-47 47 -125 47q-76 0 -123 -47q-61 -61 -62 -258z" />
<glyph unicode="&#xf6;" d="M94 535q0 287 123 415.5t328 128.5q207 0 329.5 -128.5t122.5 -415.5q0 -154 -24 -244q-27 -100 -96 -172q-125 -131 -332 -131q-205 0 -330 131q-70 72 -96 172q-25 90 -25 244zM207 1241v256h227v-256h-227zM360 535q0 -199 62 -261q47 -47 123 -47q78 0 125 47 q61 62 61 261q0 197 -61 258q-47 47 -125 47q-76 0 -123 -47q-61 -61 -62 -258zM659 1241v256h228v-256h-228z" />
<glyph unicode="&#xf7;" d="M84 461v248h924v-248h-924zM414 37v266h266v-266h-266zM414 866v267h266v-267h-266z" />
<glyph unicode="&#xf8;" d="M94 535q0 287 123 415.5t328 128.5q125 0 215 -45l71 123h164l-123 -207l5 -2q120 -126 120 -413q0 -154 -24 -244q-27 -100 -96 -172q-125 -131 -332 -131q-119 0 -213 47l-74 -125h-162l121 207l-2 2q-70 70 -96 172q-25 88 -25 244zM360 535q0 -119 15 -177l270 455 q-43 27 -100 27q-76 0 -123 -47q-61 -61 -62 -258zM446 254q43 -27 99 -27q78 0 125 47q61 62 61 261q0 109 -16 174z" />
<glyph unicode="&#xf9;" horiz-adv-x="1153" d="M127 385v682h266v-645q0 -100 58 -152q47 -43 118 -43q74 0 121 43q57 51 58 152v645h266v-1067h-260v98q-104 -111 -267 -110q-158 0 -251 94q-109 109 -109 303zM271 1585h280l131 -348h-178z" />
<glyph unicode="&#xfa;" horiz-adv-x="1153" d="M127 385v682h266v-645q0 -100 58 -152q47 -43 118 -43q74 0 121 43q57 51 58 152v645h266v-1067h-260v98q-104 -111 -267 -110q-158 0 -251 94q-109 109 -109 303zM457 1237l131 348h281l-234 -348h-178z" />
<glyph unicode="&#xfb;" horiz-adv-x="1153" d="M127 385v682h266v-645q0 -100 58 -152q47 -43 118 -43q74 0 121 43q57 51 58 152v645h266v-1067h-260v98q-104 -111 -267 -110q-158 0 -251 94q-109 109 -109 303zM193 1237l270 346h213l271 -346h-207l-170 186l-170 -186h-207z" />
<glyph unicode="&#xfc;" horiz-adv-x="1153" d="M127 385v682h266v-645q0 -100 58 -152q47 -43 118 -43q74 0 121 43q57 51 58 152v645h266v-1067h-260v98q-104 -111 -267 -110q-158 0 -251 94q-109 109 -109 303zM230 1241v256h227v-256h-227zM682 1241v256h228v-256h-228z" />
<glyph unicode="&#xfd;" horiz-adv-x="991" d="M-2 1067h281l221 -659l213 659h280l-456 -1239q-33 -90 -80 -137q-82 -82 -230 -82h-104v239h61q59 0 87 20.5t46 76.5l45 131zM377 1237l131 348h281l-234 -348h-178z" />
<glyph unicode="&#xfe;" horiz-adv-x="1130" d="M139 -391v1849h267v-485q96 106 258 106q164 0 260 -96q72 -72 94 -205q14 -81 14 -243q0 -164 -14 -246q-23 -133 -94 -205q-96 -96 -260 -96q-162 0 -258 106v-485h-267zM406 535q0 -141 22 -203q41 -104 158 -105q117 0 157 105q23 62 23 203t-23 202 q-41 102 -157 103q-117 0 -158 -103q-23 -61 -22 -202z" />
<glyph unicode="&#xff;" horiz-adv-x="991" d="M-2 1067h281l221 -659l213 659h280l-456 -1239q-33 -90 -80 -137q-82 -82 -230 -82h-104v239h61q59 0 87 20.5t46 76.5l45 131zM150 1241v256h227v-256h-227zM602 1241v256h228v-256h-228z" />
<glyph unicode="&#x152;" horiz-adv-x="1957" d="M111 729q0 240 16 334q29 156 127 254q154 154 387 153q166 0 262 -102v90h952v-252h-669q0 -29 2 -172v-174h569v-250h-569v-178q-2 -150 -2 -180h672v-252h-955v90q-96 -102 -262 -102q-233 0 -387 153q-98 98 -127 254q-16 94 -16 334zM395 729q0 -176 4 -213 q12 -135 66 -197q70 -78 184 -77q127 0 199 98q55 76 55 389q0 168 -4 213q-12 135 -68 197q-70 78 -182 78q-115 0 -184 -78q-53 -61 -66 -197q-4 -37 -4 -213z" />
<glyph unicode="&#x153;" horiz-adv-x="1746" d="M94 535q0 287 123 415.5t328 128.5q217 0 329 -141q117 141 322 141q217 0 344 -145q121 -139 121 -365v-118h-668q0 -106 62.5 -172t171.5 -66q139 0 239 100l164 -157q-88 -88 -172 -125q-96 -43 -233 -43q-236 0 -357 135q-111 -135 -323 -135q-205 0 -330 131 q-70 72 -96 172q-25 90 -25 244zM360 535q0 -199 62 -261q47 -47 123 -47q78 0 125 47q61 62 61 261q0 197 -61 258q-47 47 -125 47q-76 0 -123 -47q-61 -61 -62 -258zM993 633h404q-2 70 -23 115q-49 111 -178 110q-131 0 -180 -110q-20 -45 -23 -115z" />
<glyph unicode="&#x178;" horiz-adv-x="1150" d="M-4 1458h309l273 -588l268 588h309l-438 -860v-598h-283v598zM234 1603v256h227v-256h-227zM686 1603v256h228v-256h-228z" />
<glyph unicode="&#x2c6;" horiz-adv-x="1003" d="M125 1237l270 346h213l271 -346h-207l-170 186l-170 -186h-207z" />
<glyph unicode="&#x2dc;" horiz-adv-x="1003" d="M131 1401q121 121 229 121q80 0 158 -47q61 -37 113 -37q61 0 121 59l118 -117q-121 -121 -231 -120q-76 0 -158 47q-63 37 -114 36q-61 0 -121 -59z" />
<glyph unicode="&#x2000;" horiz-adv-x="1039" />
<glyph unicode="&#x2001;" horiz-adv-x="2079" />
<glyph unicode="&#x2002;" horiz-adv-x="1039" />
<glyph unicode="&#x2003;" horiz-adv-x="2079" />
<glyph unicode="&#x2004;" horiz-adv-x="693" />
<glyph unicode="&#x2005;" horiz-adv-x="519" />
<glyph unicode="&#x2006;" horiz-adv-x="346" />
<glyph unicode="&#x2007;" horiz-adv-x="346" />
<glyph unicode="&#x2008;" horiz-adv-x="259" />
<glyph unicode="&#x2009;" horiz-adv-x="415" />
<glyph unicode="&#x200a;" horiz-adv-x="115" />
<glyph unicode="&#x2010;" horiz-adv-x="851" d="M111 461v248h630v-248h-630z" />
<glyph unicode="&#x2011;" horiz-adv-x="851" d="M111 461v248h630v-248h-630z" />
<glyph unicode="&#x2012;" horiz-adv-x="851" d="M111 461v248h630v-248h-630z" />
<glyph unicode="&#x2013;" d="M92 461v248h907v-248h-907z" />
<glyph unicode="&#x2014;" horiz-adv-x="2082" d="M111 463v256h1861v-256h-1861z" />
<glyph unicode="&#x2018;" horiz-adv-x="538" d="M129 1206v252l279 215v-467h-279z" />
<glyph unicode="&#x2019;" horiz-adv-x="538" d="M129 993v465h279v-254z" />
<glyph unicode="&#x201a;" horiz-adv-x="534" d="M129 -213v467h279v-254z" />
<glyph unicode="&#x201c;" horiz-adv-x="966" d="M129 1206v252l277 215v-467h-277zM559 1206v252l279 215v-467h-279z" />
<glyph unicode="&#x201d;" horiz-adv-x="966" d="M129 993v465h277v-254zM559 993v465h279v-254z" />
<glyph unicode="&#x201e;" horiz-adv-x="972" d="M129 -213v467h277v-254zM559 -213v467h279v-254z" />
<glyph unicode="&#x2022;" horiz-adv-x="989" d="M160 684q0 139 98 236.5t236 97.5q139 0 236 -97.5t97 -236.5q0 -137 -97 -235.5t-236 -98.5q-137 0 -235.5 98.5t-98.5 235.5z" />
<glyph unicode="&#x2026;" horiz-adv-x="1712" d="M129 0v289h291v-289h-291zM711 0v289h288v-289h-288zM1294 0v289h289v-289h-289z" />
<glyph unicode="&#x202f;" horiz-adv-x="415" />
<glyph unicode="&#x2039;" horiz-adv-x="696" d="M59 563l510 508v-317l-192 -191l192 -190v-318z" />
<glyph unicode="&#x203a;" horiz-adv-x="696" d="M127 55v318l195 190l-195 191v317l510 -508z" />
<glyph unicode="&#x205f;" horiz-adv-x="519" />
<glyph unicode="&#x2122;" horiz-adv-x="1871" d="M82 1284v174h645v-174h-225v-700h-195v700h-225zM862 584v874h195l250 -467l249 467h195v-874h-195v516l-163 -322h-172l-164 322v-516h-195z" />
</font>
</defs>
</svg>
