<?xml version="1.0" standalone="no"?>
<!DOCTYPE svg PUBLIC "-//W3C//DTD SVG 1.1//EN" "http://www.w3.org/Graphics/SVG/1.1/DTD/svg11.dtd" >
<svg xmlns="http://www.w3.org/2000/svg">
<metadata></metadata>
<defs>
<font id="sapient_centro_slablight" horiz-adv-x="1105" >
<font-face units-per-em="2048" ascent="1536" descent="-512" />
<missing-glyph horiz-adv-x="532" />
<glyph unicode="&#xfb01;" horiz-adv-x="1071" d="M41 0v90h149v815h-137v62l140 34v179q0 301 352 301q133 0 284 -31l-18 -94q-152 26 -256 26q-140 0 -198 -51.5t-58 -191.5v-142h561l-2 -903h152v-67q-68 -35 -150 -35q-58 0 -83 18.5t-25 79.5v815h-453v-815h139v-90h-397z" />
<glyph unicode="&#xfb02;" horiz-adv-x="1097" d="M41 0v90h149v815h-137v62l140 34v158q0 301 352 301q117 0 258 -26l84 18v-1362h149v-90h-395v90h137v1249q-146 23 -223 23q-140 0 -198 -51.5t-58 -192.5v-121h311v-92h-311v-815h133v-90h-391z" />
<glyph unicode="&#xfb03;" horiz-adv-x="1640" d="M41 0v90h149v815h-137v62l140 34v129q0 88 29.5 153.5t83 103.5t122 56.5t152.5 18.5q124 0 260 -39q89 82 272 82q139 0 285 -30l-19 -95q-158 27 -256 27q-140 0 -198 -51.5t-58 -192.5v-166h564l-3 -903h152v-67q-68 -35 -149 -35q-58 0 -83.5 18.5t-25.5 79.5v815 h-455v-815h164v-90h-414v90h142v815h-459v-815h135v-90h-393zM299 999l461 -2v207q0 75 22 133q-100 27 -192 27q-166 0 -228.5 -62.5t-62.5 -211.5v-91z" />
<glyph unicode="&#xfb04;" horiz-adv-x="1667" d="M41 0v90h149v815h-137v62l140 34v129q0 88 29.5 153.5t83 103.5t122 56.5t152.5 18.5q124 0 260 -39q94 82 274 82q117 0 258 -26l84 18v-1407h150v-90h-396v90h138v1294q-146 23 -224 23q-140 0 -198 -51.5t-58 -192.5l-2 -166h314v-92h-314v-815h164v-90h-414v90h142 v815h-459v-815h135v-90h-393zM299 999l461 -2l2 207q0 71 20 129v4q-100 27 -192 27q-166 0 -228.5 -62.5t-62.5 -211.5v-91z" />
<glyph horiz-adv-x="0" />
<glyph horiz-adv-x="682" />
<glyph unicode=" "  horiz-adv-x="532" />
<glyph unicode="&#x09;" horiz-adv-x="532" />
<glyph unicode="&#xa0;" horiz-adv-x="532" />
<glyph unicode="!" horiz-adv-x="405" d="M115 70q0 35 25.5 60.5t62.5 25.5t62.5 -25.5t25.5 -60.5q0 -36 -26 -63t-60 -27q-37 0 -63.5 26.5t-26.5 63.5zM145 1417h117l-6 -639l-14 -452h-68l-18 452z" />
<glyph unicode="&#x22;" horiz-adv-x="468" d="M88 1399h113l-27 -379h-61zM279 1399h110l-22 -379h-64z" />
<glyph unicode="#" horiz-adv-x="1040" d="M82 397l22 76h148l82 381h-162l23 76h155l76 348h82l-76 -348h332l76 348h82l-76 -348h139l-22 -76h-134l-81 -381h147l-23 -76h-141l-84 -397h-82l84 397h-332l-84 -397h-81l84 397h-154zM334 473h332l82 381h-332z" />
<glyph unicode="$" d="M139 106v240h90v-178q91 -44 209 -59v583q-66 23 -113 49t-88 63.5t-62 90.5t-21 121q0 139 78 224.5t206 113.5v135h72v-1643h-72v162q-173 16 -299 98zM260 1026q0 -50 13 -88t39.5 -64t54.5 -43t71 -34v460q-80 -22 -129 -79t-49 -152zM580 -154v1643h73v-127 q145 -11 244 -74v-241h-90v182q-54 28 -154 39v-539q144 -59 200 -99q126 -88 132 -241v-16q0 -156 -90.5 -245t-241.5 -114v-168h-73zM653 113q228 40 228 268q0 92 -59 148t-169 98v-514z" />
<glyph unicode="%" horiz-adv-x="1607" d="M39 944q0 59 7 111.5t28 112t55.5 102t95.5 70.5t142 28q59 0 107 -15.5t80 -40t55.5 -61t36.5 -72t20.5 -80.5t9.5 -78.5t2 -72.5q0 -60 -9 -115.5t-31.5 -110.5t-57.5 -95t-91 -65t-127 -25q-81 0 -140.5 24t-94 61.5t-55 93.5t-27 109t-6.5 119zM143 942 q0 -72 9 -125.5t32 -100t69 -71t114 -24.5q61 0 103.5 28.5t63.5 78t30 101.5t9 115q0 39 -1.5 67.5t-7.5 72t-19.5 75t-35 61.5t-58 46t-84.5 16q-224 0 -224 -340zM469 -47l582 1477h84l-578 -1477h-88zM930 401q0 59 6.5 111.5t28 112t56 102t95 70.5t141.5 28 q312 0 312 -419q0 -60 -9 -115.5t-31.5 -110.5t-57.5 -95.5t-91 -65.5t-127 -25q-81 0 -140.5 24t-94 61.5t-55 93.5t-27 109t-6.5 119zM1034 399q0 -57 5 -101.5t19.5 -87t38.5 -70.5t64.5 -45t95.5 -17q61 0 103.5 28.5t64 78t30.5 102t9 114.5q0 38 -1.5 67t-7.5 72.5 t-20 75t-35.5 61.5t-58 46t-84.5 16q-223 0 -223 -340z" />
<glyph unicode="&#x26;" horiz-adv-x="1425" d="M55 369q0 135 88.5 242.5t259.5 203.5q-64 87 -90 151t-26 128q0 123 74.5 203.5t201.5 80.5q130 0 202.5 -73.5t72.5 -184.5q0 -55 -18 -101.5t-57.5 -88t-88 -76.5t-121.5 -78q86 -130 240 -321q97 -121 155 -183q210 200 244 461h-195v92h439v-92h-150 q-22 -297 -270 -528q153 -149 311 -215l-47 -90q-68 29 -170 98t-176 141q-101 -76 -219.5 -117.5t-231.5 -41.5q-188 0 -308 101t-120 288zM160 373q0 -147 89 -225t224 -78q197 0 395 137q-79 81 -196 233q-144 185 -217 291q-141 -75 -218 -160t-77 -198zM399 1104 q0 -53 25.5 -107.5t79.5 -132.5q112 58 169.5 115t57.5 141q0 73 -47 118.5t-129 45.5q-55 0 -92.5 -31.5t-50.5 -70t-13 -78.5z" />
<glyph unicode="'" horiz-adv-x="350" d="M123 1399h113l-27 -379h-62z" />
<glyph unicode="(" horiz-adv-x="538" d="M121 588q0 478 285 872l47 -28q-30 -46 -60.5 -108.5t-70.5 -170t-65.5 -256.5t-25.5 -309q0 -146 19 -283.5t42 -227t60 -180.5t56 -127.5t47 -84.5l-49 -37q-91 134 -142 247q-143 314 -143 693z" />
<glyph unicode=")" horiz-adv-x="542" d="M59 -315q28 48 47 84.5t56 127.5t60 180.5t42 227t19 283.5q0 160 -25.5 309t-65.5 256.5t-70.5 170t-60.5 108.5l48 28q284 -393 284 -872q0 -111 -13.5 -219t-31 -187t-49.5 -164.5t-51.5 -131t-56.5 -109t-46 -76.5t-36 -53z" />
<glyph unicode="*" horiz-adv-x="765" d="M104 1151q3 87 48 143l202 -114l-45 229q37 12 78 12q40 0 74 -12l-47 -229l202 106q32 -29 41 -59.5t9 -79.5l-238 -27l168 -159q-43 -66 -115 -89l-100 215l-98 -213q-71 19 -119 87l168 161z" />
<glyph unicode="+" d="M172 561v96h334v328h100v-328h332v-96h-332v-342h-100v342h-334z" />
<glyph unicode="," horiz-adv-x="380" d="M76 -172q39 38 59 72.5t23 83.5q-28 9 -45 32.5t-17 53.5q0 35 26.5 61.5t63.5 26.5q41 0 69 -29.5t28 -77.5q0 -72 -50.5 -146.5t-128.5 -113.5z" />
<glyph unicode="-" horiz-adv-x="724" d="M104 481v109h514v-109h-514z" />
<glyph unicode="." horiz-adv-x="374" d="M90 70q0 35 25.5 60.5t62.5 25.5t62.5 -25.5t25.5 -60.5q0 -36 -26 -63t-60 -27q-37 0 -63.5 26.5t-26.5 63.5z" />
<glyph unicode="/" horiz-adv-x="645" d="M37 -53l522 1483h68l-521 -1483h-69z" />
<glyph unicode="0" d="M74 666q0 68 5 131.5t19 136.5t36 134.5t60 120.5t88 99.5t122 65t159 24.5q89 0 160.5 -26t119.5 -67t83.5 -102.5t55 -121.5t31 -134.5t14.5 -131.5t3 -123q0 -83 -10 -161t-31 -156.5t-58 -144t-87.5 -116.5t-123.5 -79.5t-161 -28.5t-159 21t-121 56t-87 88 t-59.5 109.5t-36 128t-18 136.5t-4.5 141zM193 662q0 -72 4 -132t14.5 -121t28.5 -108t46.5 -89t66.5 -69.5t91 -43t119 -15.5q83 0 146 35.5t100.5 91.5t61 135t32 155.5t8.5 164.5q0 57 -1.5 101t-9 111.5t-21 118t-39.5 106t-61.5 92t-91 60t-124.5 23.5 q-70 0 -126.5 -22t-94.5 -57.5t-66.5 -88t-43.5 -104.5t-24.5 -117.5t-12 -116.5t-2.5 -110z" />
<glyph unicode="1" d="M160 1241l354 117h109v-1264h278v-94h-692v94h299v1127l-330 -54z" />
<glyph unicode="2" d="M72 1235q193 143 411 143q183 0 294.5 -90.5t111.5 -271.5q0 -83 -36.5 -176t-87 -169.5t-132 -169t-141 -150.5t-146.5 -140.5t-119 -114.5h607v203h104v-299h-864v88q33 33 102.5 98.5t126.5 120.5t130 130t128 143t104.5 141.5t76 145t26.5 134.5q0 138 -82 205.5 t-219 67.5q-170 0 -348 -111z" />
<glyph unicode="3" d="M90 59l31 86q209 -59 336 -59q184 0 285.5 84t101.5 254q0 139 -100.5 214t-280.5 75q-59 0 -139 -13l-37 78l469 475v2h-510v-208l-105 -3v314h764l23 -74l-469 -471h35q95 0 178 -23.5t149 -69.5t104 -122t38 -174q0 -87 -26 -160.5t-70 -124.5t-104 -87t-128 -53 t-141 -17q-234 0 -404 77z" />
<glyph unicode="4" d="M66 389v96l657 873h119v-873h198v-96h-198v-295h153v-94h-407v94h143v295h-665zM182 485h551v721h-12l-98 -135z" />
<glyph unicode="5" d="M96 59l31 86q209 -59 336 -59q184 0 285.5 84t101.5 254q0 153 -99 235t-247 82q-127 0 -242 -59l-82 63l37 613h694v-273h-98v170h-494l-26 -458q2 1 32.5 11t53.5 16t67.5 12t92.5 6q79 0 152.5 -23.5t137 -70.5t102 -131t38.5 -193q0 -87 -26 -160.5t-70 -124.5 t-104 -87t-128 -53t-141 -17q-234 0 -404 77z" />
<glyph unicode="6" d="M106 625q0 226 57 394t174.5 264.5t283.5 96.5q97 0 176 -21t121 -46l-35 -86q-128 53 -265 53q-65 0 -121 -21.5t-94.5 -56.5t-69.5 -83t-50 -96t-32 -101t-18.5 -93t-7.5 -77l13 -7q166 101 350 101q84 0 155.5 -23.5t130 -72t92 -132t33.5 -194.5q0 -200 -122.5 -319 t-321.5 -119q-105 0 -184.5 34t-129 90.5t-80.5 140.5t-43 174t-12 200zM223 584q0 -44 2.5 -83.5t11 -92t22.5 -95.5t40 -87t60 -74t85.5 -49t114.5 -19q156 0 239 92t83 240q0 327 -306 327q-64 0 -124 -11.5t-99.5 -28t-70 -33t-44.5 -28.5l-14 -11v-47z" />
<glyph unicode="7" d="M154 1044v314h798v-96l-567 -1262h-111l566 1255h-582v-211h-104z" />
<glyph unicode="8" d="M86 328q0 126 65.5 243.5t200.5 196.5q-103 57 -150.5 122.5t-47.5 158.5q0 138 112.5 234.5t290.5 96.5q72 0 139.5 -18.5t126.5 -54.5t95 -100t36 -146q0 -198 -215 -352q246 -124 246 -353q0 -156 -120.5 -263t-329.5 -107q-218 0 -333.5 97.5t-115.5 244.5zM203 342 q0 -52 19 -98t58 -84.5t106 -61t155 -22.5q158 0 244.5 83t86.5 199q0 47 -12.5 86t-39 70t-57.5 56t-80 49.5t-93.5 43.5t-109.5 46q-8 3 -13 5t-13 5t-14 6q-123 -77 -180 -178t-57 -205zM272 1049q0 -24 6 -45.5t14 -39t25.5 -36t30.5 -31t39.5 -28.5t42.5 -25.5 t49.5 -24.5t50 -22t54.5 -23t53 -22q207 141 207 290q0 42 -16 83t-49 78t-92 60t-136 23q-74 0 -131.5 -25t-88 -63.5t-45 -76.5t-14.5 -72z" />
<glyph unicode="9" d="M86 942q0 200 121.5 319t320.5 119q105 0 184.5 -34t129 -90.5t80.5 -140.5t43 -174t12 -200q0 -226 -56.5 -393.5t-174 -263.5t-283.5 -96q-98 0 -188 22t-130 45l35 86q128 -53 285 -53q76 0 138.5 28.5t103 76.5t70.5 103t46.5 118t24.5 111t10 91l-10 7 q-169 -103 -352 -103q-84 0 -155.5 23.5t-129.5 72t-91.5 132t-33.5 194.5zM203 950q0 -327 305 -327q64 0 124 11.5t99.5 28t70 33t44.5 28.5l14 11v47q0 44 -2.5 83.5t-11 91t-22.5 94t-40 86t-60 73t-85.5 48t-114.5 18.5q-156 0 -238.5 -89t-82.5 -237z" />
<glyph unicode=":" horiz-adv-x="366" d="M100 76q0 35 25.5 60.5t62.5 25.5t62.5 -25.5t25.5 -60.5q0 -38 -23.5 -64t-62.5 -26t-64.5 26.5t-25.5 63.5zM100 733q0 37 25.5 61.5t62.5 24.5t62.5 -24.5t25.5 -61.5q0 -36 -26 -63t-60 -27q-36 0 -63 27t-27 63z" />
<glyph unicode=";" horiz-adv-x="366" d="M76 -172q39 38 59 72.5t23 83.5q-28 9 -45 32.5t-17 53.5q0 35 26.5 61.5t63.5 26.5q41 0 69 -29.5t28 -77.5q0 -72 -50.5 -146.5t-128.5 -113.5zM100 733q0 37 25.5 61.5t62.5 24.5t62.5 -24.5t25.5 -61.5q0 -36 -26 -63t-60 -27q-36 0 -63 27t-27 63z" />
<glyph unicode="&#x3c;" d="M176 565v84l770 393v-110l-657 -324l657 -329v-111z" />
<glyph unicode="=" d="M150 430v94h804v-94h-804zM150 711v96h804v-96h-804z" />
<glyph unicode="&#x3e;" d="M176 168v111l658 329l-658 324v110l770 -393v-84z" />
<glyph unicode="?" horiz-adv-x="849" d="M82 1102v274q177 62 348 62q182 0 275.5 -70.5t93.5 -198.5q0 -91 -52 -164.5t-141 -142.5q-146 -114 -204 -189t-58 -159q0 -18 2 -39.5t4.5 -37.5t7 -45t7.5 -48l-91 -20q-28 123 -28 200q0 97 60 186t202 199q91 70 131.5 124.5t40.5 127.5q0 91 -64.5 133.5 t-175.5 42.5q-138 0 -262 -41v-194h-96zM268 70q0 35 25.5 60.5t62.5 25.5t62.5 -25.5t25.5 -60.5q0 -38 -26 -64t-60 -26q-37 0 -63.5 26.5t-26.5 63.5z" />
<glyph unicode="@" horiz-adv-x="1755" d="M143 682q0 153 62 287.5t166 228.5t245.5 148.5t296.5 54.5q161 0 292 -48t220.5 -135t138 -210t48.5 -271q-1 -99 -31 -178.5t-78.5 -128.5t-106.5 -74.5t-120 -25.5q-161 0 -207 112q-49 -47 -124 -79.5t-157 -32.5q-62 0 -106.5 21.5t-67 56.5t-32 70t-9.5 71 q0 99 66.5 157t161.5 64l248 21v57q0 104 -37 144t-131 40q-113 0 -238 -45l-25 70q129 63 283 63q115 0 175.5 -59t60.5 -191v-323q0 -141 149 -141q43 0 85.5 20t79 58t59 103.5t22.5 147.5q0 278 -168 436t-451 158q-186 0 -344.5 -84t-253 -233t-94.5 -328 q0 -137 49 -257.5t133.5 -205.5t202.5 -134.5t250 -49.5q131 0 244 39l18 -66q-110 -47 -256 -47q-206 0 -370.5 92.5t-256.5 257t-92 369.5zM672 555q0 -143 151 -143q115 0 226 100v203l-209 -17q-73 -5 -120.5 -43t-47.5 -100z" />
<glyph unicode="A" horiz-adv-x="1302" d="M41 0v94h119q73 233 220 687t200 620h147l424 -1307h113v-94h-383v94h145l-90 293h-567l-90 -293h151v-94h-389zM403 489h500l-203 648l-45 151h-4q-8 -32 -47 -153q-97 -303 -201 -646z" />
<glyph unicode="B" horiz-adv-x="1202" d="M82 0v96h139v1209h-131v94h584q195 0 299 -96.5t104 -255.5q0 -228 -200 -316q84 -22 141 -83.5t79.5 -130t22.5 -138.5q0 -166 -112.5 -272.5t-264.5 -106.5h-661zM338 96h360q158 0 233 83t75 210q0 120 -81 204.5t-227 84.5h-360v-582zM338 774h321q145 0 224.5 72 t79.5 190q0 121 -75.5 195t-228.5 74h-321v-531z" />
<glyph unicode="C" horiz-adv-x="1116" d="M102 690q0 65 7.5 131t26.5 139t48.5 137.5t76 124.5t105.5 103t141 68.5t179 25.5q202 0 346 -55v-295h-98v219q-112 33 -244 33q-235 0 -352 -169t-117 -466q0 -104 11 -186t42 -162t82 -133.5t136.5 -86t199.5 -32.5q186 0 338 49l25 -88q-65 -26 -174.5 -43.5 t-202.5 -17.5q-576 0 -576 704z" />
<glyph unicode="D" horiz-adv-x="1296" d="M82 0v94h139v1211h-131v94h553q551 0 551 -697q0 -702 -571 -702h-541zM342 96h264q127 0 206 31q265 105 265 559q0 98 -11.5 181t-29.5 142.5t-47 107t-56.5 78t-65 52.5t-66.5 33t-67 17t-59.5 7t-51.5 1h-281v-1209z" />
<glyph unicode="E" d="M82 0v94h135v1211h-127v92h920v-275h-99v183h-577v-523l571 13v-111l-571 8v-598h608v182h102v-276h-962z" />
<glyph unicode="F" horiz-adv-x="1050" d="M82 0v94h135v1211h-127v92h920v-275h-99v183h-577v-523l571 13v-111l-571 8v-598h198v-94h-450z" />
<glyph unicode="G" horiz-adv-x="1241" d="M102 690q0 66 7.5 131t27 138.5t49.5 138t79 124.5t111 103t149.5 68.5t191.5 25.5q202 0 346 -55v-295h-98v219q-112 33 -244 33q-251 0 -375.5 -169t-124.5 -466q0 -102 11.5 -185t43.5 -162.5t83 -132.5t134.5 -85.5t194.5 -32.5q178 0 273 35v498h-211v92h430v-92 h-107v-576q-186 -59 -399 -59q-150 0 -261 49t-178.5 142.5t-100 220.5t-32.5 292z" />
<glyph unicode="H" horiz-adv-x="1359" d="M82 0v96h127v1209h-127v94h373v-94h-129v-517h706v517h-127v94h373v-94h-129v-1209h129v-96h-373v96h127v592h-706v-592h129v-96h-373z" />
<glyph unicode="I" horiz-adv-x="657" d="M143 0v94h125v1211h-125v94h371v-94h-129v-1211h129v-94h-371z" />
<glyph unicode="J" horiz-adv-x="657" d="M-53 -279q122 68 192 133.5t106 153.5t36 209l2 1088h-168v94h440v-94h-154l-2 -1055q0 -124 -26.5 -219t-81.5 -166.5t-130 -123.5t-181 -97z" />
<glyph unicode="K" horiz-adv-x="1245" d="M82 0v96h127v1209h-127v94h373v-94h-129v-586l594 584h-142v96h391v-96h-110l-467 -457l502 -748h120v-98h-397l-2 98h141l-448 668l-182 -178v-492h133v-96h-377z" />
<glyph unicode="L" horiz-adv-x="1064" d="M82 0v94h135v1211h-127v92h393v-92h-149v-1211h608v244h102v-338h-962z" />
<glyph unicode="M" horiz-adv-x="1689" d="M82 0v94h125v1211h-125v94h258l385 -871l115 -262h12l117 266l381 867h258v-94h-127v-1211h127v-94h-373v94h131v1094h-4l-100 -234l-363 -817h-113l-372 834l-95 217h-4l4 -1094h134v-94h-371z" />
<glyph unicode="N" horiz-adv-x="1431" d="M82 0v96h137v1209h-137v94h262l578 -912l172 -274h10v1092h-143v94h389v-94h-133v-1305h-109l-623 973l-149 239l-6 -2l2 -1114h143v-96h-393z" />
<glyph unicode="O" horiz-adv-x="1327" d="M102 686q0 120 17.5 224t60 199t106.5 162.5t164 107.5t226 40q549 0 549 -727q0 -121 -22 -227.5t-66.5 -194.5t-109 -151t-154.5 -98t-197 -35q-155 0 -267 48t-178.5 141t-97.5 218.5t-31 292.5zM221 682q0 -301 109.5 -450.5t345.5 -149.5q86 0 157 31t121 86.5 t84.5 131.5t51 165.5t16.5 189.5q0 637 -430 637q-455 0 -455 -641z" />
<glyph unicode="P" horiz-adv-x="1110" d="M82 0v94h129v1211h-129v94h553q86 0 160 -24t131 -71.5t90 -124.5t33 -175q0 -51 -10.5 -103t-38.5 -109.5t-70.5 -101t-115 -72t-163.5 -28.5h-323v-496h172v-94h-418zM328 684h317q56 0 104 15.5t91 49.5t67.5 97.5t24.5 150.5q0 149 -82 228.5t-211 79.5h-311v-621z " />
<glyph unicode="Q" horiz-adv-x="1325" d="M102 686q0 120 17.5 224t60 199t106.5 162.5t164 107.5t226 40q549 0 549 -727q0 -237 -84.5 -412.5t-243.5 -248.5l324 -78l-50 -119l-473 152h-22q-155 0 -267 48t-178.5 141t-97.5 218.5t-31 292.5zM221 682q0 -301 109.5 -450.5t345.5 -149.5q86 0 157 31t121 86.5 t84.5 131.5t51 165.5t16.5 189.5q0 637 -430 637q-455 0 -455 -641z" />
<glyph unicode="R" horiz-adv-x="1198" d="M82 0v94h129v1211h-129v94h553q87 0 160 -21t131 -64.5t90.5 -117.5t32.5 -172q0 -55 -13 -108.5t-42 -109t-85 -98.5t-133 -63l260 -549l144 -18v-68q-70 -24 -142 -24q-48 0 -68.5 20t-43.5 70l-260 555h-338v-537h172v-94h-418zM328 725h317q287 0 287 293 q0 147 -80.5 217t-212.5 70h-311v-580z" />
<glyph unicode="S" horiz-adv-x="1050" d="M72 92v252h98v-180q148 -76 319 -76q188 0 281.5 66t93.5 227q0 40 -9 73.5t-23.5 58t-40 46t-50 36t-63 28.5t-69 23.5t-77.5 21.5q-61 16 -97 26.5t-89 29.5t-84 37t-67 46t-55.5 59.5t-32.5 75t-13 94.5q0 121 60.5 209.5t157.5 131t216 42.5q223 0 357 -82v-254h-101 v193q-98 45 -264 45q-140 0 -224.5 -73.5t-84.5 -213.5q0 -35 10.5 -65.5t26 -52.5t43 -42t51 -32.5t62.5 -26t64.5 -21t68.5 -18.5q162 -41 221 -66q156 -66 201 -197q20 -60 20 -134q0 -103 -38 -181t-105.5 -123t-152 -67t-185.5 -22q-253 0 -426 106z" />
<glyph unicode="T" horiz-adv-x="1060" d="M31 1102v297h997l2 -297h-100v203h-340v-1211h151v-94h-413v94h147v1211h-346v-203h-98z" />
<glyph unicode="U" horiz-adv-x="1396" d="M61 1305v94h392v-94h-150v-805q0 -204 101.5 -310t289.5 -106q194 0 296 105.5t102 310.5v805h-148v94h391v-94h-129v-807q0 -236 -130.5 -374t-381.5 -138q-259 0 -383.5 133t-124.5 379v807h-125z" />
<glyph unicode="V" horiz-adv-x="1234" d="M20 1305v94h373v-94h-131l283 -906l78 -264h8l78 271l274 899h-127v94h369v-94h-125l-412 -1305h-131l-412 1305h-125z" />
<glyph unicode="W" horiz-adv-x="1804" d="M20 1305v94h392v-94h-150l230 -955l47 -203h4l57 209l254 879l-20 70h-146v94h412v-94h-152l289 -975l51 -183h4l47 207l220 951h-146v94h381v-94h-127q-54 -230 -165.5 -684t-151.5 -621h-127l-250 846l-58 205h-4l-61 -215l-246 -836h-133l-326 1305h-125z" />
<glyph unicode="X" horiz-adv-x="1236" d="M41 0v96h123l387 633l-356 576h-123v94h391v-94h-144l302 -496l305 496h-150v94h398v-94h-123l-369 -586l385 -623h129v-96h-410v96h158l-334 543l-323 -543h166v-96h-412z" />
<glyph unicode="Y" horiz-adv-x="1126" d="M20 1305v94h367v-94h-133l305 -568h8l318 568h-137v94h358v-94h-107l-378 -670v-541h167v-94h-454v94h168v535l-371 676h-111z" />
<glyph unicode="Z" horiz-adv-x="1015" d="M41 0v94l764 1211h-617v-203h-98v297h850v-94l-764 -1209h696v221h103v-317h-934z" />
<glyph unicode="[" horiz-adv-x="481" d="M102 -328v1753h308v-86h-201v-1575h201v-92h-308z" />
<glyph unicode="\" horiz-adv-x="645" d="M37 1430h67l523 -1483h-70z" />
<glyph unicode="]" horiz-adv-x="481" d="M61 -236h201v1575h-201v86h308v-1753h-308v92z" />
<glyph unicode="^" horiz-adv-x="866" d="M45 805l348 594h80l340 -594h-96l-287 500l-289 -500h-96z" />
<glyph unicode="_" horiz-adv-x="1024" d="M0 -184h1024v-74h-1024v74z" />
<glyph unicode="`" horiz-adv-x="978" d="M252 1382l100 82l228 -323l-60 -43z" />
<glyph unicode="a" horiz-adv-x="978" d="M72 270q0 135 98.5 210t261.5 83l266 15v81q0 143 -48 196.5t-177 53.5q-147 0 -307 -57l-31 82q174 80 363 80q154 0 231.5 -76t77.5 -250v-594h143l8 -67q-68 -35 -149 -35q-57 0 -83.5 25t-27.5 96l-4 2q-56 -46 -109 -75t-101 -39t-71.5 -12.5t-60.5 -2.5 q-64 0 -114.5 19t-81 48t-50 68t-27 75.5t-7.5 73.5zM193 279q0 -197 204 -197q152 0 301 135v272l-280 -14q-111 -6 -168 -57t-57 -139z" />
<glyph unicode="b" horiz-adv-x="1042" d="M-14 1362v90h282v-526q167 94 305 94q104 0 177.5 -39t114 -112.5t58 -164.5t17.5 -210q0 -110 -21 -198.5t-66.5 -159t-125.5 -109.5t-190 -39q-194 0 -379 82v1292h-172zM268 135q113 -49 260 -49q146 0 220.5 94t74.5 309q0 123 -17.5 209t-52.5 134t-80 69t-106 21 q-137 0 -299 -91v-696z" />
<glyph unicode="c" horiz-adv-x="886" d="M82 485q0 55 7.5 110.5t24.5 118t49.5 115.5t78 97t114.5 69t154 25q167 0 291 -57v-242h-90v176q-91 29 -195 29q-161 0 -240 -120.5t-79 -320.5q0 -405 299 -405q77 0 146 17t157 53l32 -74q-64 -38 -152.5 -62t-180.5 -24q-416 0 -416 495z" />
<glyph unicode="d" horiz-adv-x="1048" d="M82 481q0 118 21.5 213t67 169.5t122.5 115.5t182 41q67 0 146 -20t133 -58v420h-176v90h288v-1364h162v-88h-274v92l-4 6q-62 -48 -142.5 -79t-161.5 -31q-80 0 -143 26t-104 71t-67.5 108.5t-38 134.5t-11.5 153zM199 477q0 -210 69 -300.5t201 -90.5q66 0 156.5 37 t128.5 76v643q-35 28 -118.5 54t-154.5 26q-62 0 -111 -23t-88.5 -73.5t-61 -138.5t-21.5 -210z" />
<glyph unicode="e" horiz-adv-x="946" d="M82 496q0 39 3.5 79t14 93.5t28.5 100t49.5 93.5t73.5 80.5t105 54.5t140 21q376 0 376 -461v-10v-78h-675v-10q0 -377 299 -377q87 0 155.5 17t161.5 57l33 -76q-167 -90 -348 -90q-98 0 -172 26t-120 70.5t-74 110.5t-39 137.5t-11 161.5zM199 563h563q0 172 -61 265.5 t-205 93.5q-270 0 -297 -359z" />
<glyph unicode="f" horiz-adv-x="655" d="M41 0v90h149v815h-137v62l140 34v179q0 145 80 217.5t214 72.5q95 0 179 -20l-17 -88q-94 12 -141 12q-106 0 -157.5 -43.5t-51.5 -146.5v-185h295v-94h-295v-815h178v-90h-436z" />
<glyph unicode="g" horiz-adv-x="987" d="M57 -143q0 82 42 147.5t91 91.5q-124 21 -127 144v5q0 44 16 77q17 35 46.5 52t55 25t52.5 11q-139 70 -139 258q0 94 35 166t92 112t123 59q60 17 122 17h13q94 -3 166 -25h307v-90h-159l-5 -10q76 -76 76 -223q0 -158 -109 -248t-290 -90h-109q-65 0 -92 -4 q-84 -16 -84 -74q0 -36 31.5 -56t83.5 -20h246q179 0 274.5 -80.5t95.5 -226.5q0 -147 -126.5 -231t-319.5 -84q-113 0 -195 23.5t-127 66t-65.5 93.5t-20.5 114zM168 -125q0 -99 72.5 -160t242.5 -61q136 0 227 61.5t91 159.5q0 37 -13.5 71t-42 65.5t-83.5 50t-130 18.5 h-229q-47 -14 -91 -78t-44 -127zM213 674q0 -110 66 -177t174 -67q134 0 214.5 62t80.5 182q0 45 -13 85.5t-42 78.5t-84.5 61t-131.5 23q-129 0 -196.5 -63.5t-67.5 -184.5z" />
<glyph unicode="h" horiz-adv-x="1138" d="M41 1362v90h266v-545q85 53 183 83t174 30q57 0 102 -11t74 -27t49.5 -44t30.5 -51t15 -60t6 -59t1 -59v-615h152v-67q-68 -35 -150 -35q-57 0 -83 25t-27 96v565q0 51 -2.5 82.5t-13 66t-30.5 53t-55 30.5t-86 12q-73 0 -166 -31.5t-174 -75.5v-815h-110v1362h-156z" />
<glyph unicode="i" horiz-adv-x="546" d="M109 907v90h227v-903h151v-67q-68 -35 -149 -35q-57 0 -83.5 25t-27.5 96v794h-118zM195 1243q0 34 23.5 58t55.5 24q34 0 58 -24t24 -58q0 -32 -24 -56t-58 -24q-32 0 -55.5 24t-23.5 56z" />
<glyph unicode="j" horiz-adv-x="522" d="M-20 -360q144 81 191.5 151.5t47.5 196.5v919h-149v90h258v-985q0 -185 -63.5 -277t-250.5 -171zM186 1243q0 34 24 58t56 24q34 0 58 -24t24 -58q0 -32 -24 -56t-58 -24q-32 0 -56 24t-24 56z" />
<glyph unicode="k" horiz-adv-x="1007" d="M25 1362v90h278v-917l397 372h-135v90h369v-90h-105l-301 -284l334 -531l137 -18v-62q-56 -26 -122 -26q-47 0 -68 14.5t-49 56.5l-305 496l-152 -139v-324h150v-90h-406v90h148v1272h-170z" />
<glyph unicode="l" horiz-adv-x="561" d="M72 1362v90h278v-1362h150v-90h-406v90h148v1272h-170z" />
<glyph unicode="m" horiz-adv-x="1740" d="M41 905v92h264v-84l8 -6q181 109 338 109q163 0 236 -115q77 49 177 83t185 34q60 0 107.5 -12t78 -29.5t52 -47t32.5 -54.5t17 -62.5t7 -61t1 -59.5v-598h152v-67q-68 -35 -150 -35q-57 0 -83 25t-27 96v559q0 63 -8 105t-29 76.5t-62.5 50.5t-105.5 16 q-72 0 -164 -28.5t-156 -68.5q15 -56 15 -135v-688h-111v711q0 209 -190 209q-138 0 -320 -107v-813h-108v905h-156z" />
<glyph unicode="n" horiz-adv-x="1138" d="M41 907v90h266v-82l6 -4q84 51 180 80t171 29q57 0 102 -11t74 -27t49.5 -44t30.5 -51t15 -60t6 -59t1 -59v-615h152v-67q-68 -35 -150 -35q-57 0 -83 25t-27 96v565q0 51 -2.5 82.5t-13 66t-30.5 53t-55 30.5t-86 12q-73 0 -166 -31.5t-174 -75.5v-815h-110v907h-156z " />
<glyph unicode="o" horiz-adv-x="985" d="M82 492q0 80 13.5 154t45 142.5t79 119t120 80.5t162.5 30q92 0 163.5 -30.5t115.5 -79.5t72.5 -119t39 -141t10.5 -152q0 -79 -11.5 -148t-41 -137t-76 -116.5t-122 -78.5t-173.5 -30q-90 0 -160 28t-114 74.5t-72.5 113t-39.5 137t-11 153.5zM199 489q0 -70 6.5 -124 t25.5 -109.5t51.5 -91.5t88.5 -59t131 -23q286 0 286 410q0 62 -6 116.5t-24.5 114.5t-49 102t-83.5 69.5t-123 27.5q-71 0 -125 -26t-87 -67t-54 -99.5t-29 -116.5t-8 -124z" />
<glyph unicode="p" horiz-adv-x="1038" d="M4 907v90h281v-102q62 50 143 82.5t164 32.5q80 0 143 -26.5t104 -71.5t67.5 -108.5t38 -134.5t11.5 -153q0 -118 -21.5 -213t-67 -169.5t-122.5 -115.5t-182 -41q-67 0 -145.5 20t-132.5 58v-391h176v-90h-451v90h162v1243h-168zM285 156q35 -28 118 -54t154 -26 q62 0 111.5 23t89 73t61 138.5t21.5 209.5q0 210 -69.5 300.5t-201.5 90.5q-66 0 -156 -36.5t-128 -75.5v-643z" />
<glyph unicode="q" horiz-adv-x="1044" d="M104 498q2 87 16 161.5t45 140t77 111.5t115.5 72.5t156.5 26.5q188 0 373 -82v-1262h168v-92h-467v92h188v406q-169 -95 -305 -95q-84 0 -148.5 25.5t-106.5 70.5t-68 111.5t-36 143.5q-8 63 -8 139v31zM221 494v-24q0 -102 15 -176q17 -82 52.5 -129t81.5 -68t107 -21 q139 0 299 90v696q-113 49 -254 49q-293 0 -301 -417z" />
<glyph unicode="r" horiz-adv-x="714" d="M59 0v90h154v817h-152v90h261v-135h2q71 60 170.5 110t181.5 50q43 0 43 -45q0 -27 -12.5 -65t-30.5 -60l-350 -39v-723h166v-90h-433z" />
<glyph unicode="s" horiz-adv-x="835" d="M61 287h89l6 -158q98 -49 231 -49q124 0 195 41t71 145q0 43 -18.5 75.5t-55.5 55t-73 37t-90 29.5q-147 41 -204 72q-130 72 -130 215q0 72 28 125.5t76.5 83.5t107 44.5t126.5 14.5q161 0 274 -72l6 -225h-90l-6 168q-78 35 -186 35q-225 0 -225 -179q0 -27 9 -49.5 t28.5 -39t36.5 -28.5t47.5 -23t46 -16t45.5 -13q12 -3 18 -5q143 -39 199 -69q130 -71 137 -219v-19q0 -71 -30 -125.5t-81.5 -86.5t-116 -48t-139.5 -16q-210 0 -325 80z" />
<glyph unicode="t" horiz-adv-x="704" d="M41 907v58l149 45l43 213l66 16v-242h305v-90h-307v-653q0 -77 29.5 -121.5t107.5 -44.5q79 0 197 37l22 -78q-113 -55 -233 -55q-232 0 -232 221v694h-147z" />
<glyph unicode="u" horiz-adv-x="1120" d="M41 907v90h264v-678q0 -64 5 -101.5t23 -73.5t57 -52t102 -16q68 0 158.5 37t164.5 104v690h-147v90l256 2v-2h2l-2 -903h143l8 -67q-68 -35 -149 -35q-57 0 -83.5 25t-27.5 96l-4 2q-61 -56 -133 -89t-117 -41t-86 -8q-57 0 -102 11t-74 27t-49.5 44.5t-30.5 51t-15 60 t-6 59t-1 59.5v618h-156z" />
<glyph unicode="v" horiz-adv-x="983" d="M14 905v92h207l180 -585l95 -299h8l84 278l160 514h-101v92h316v-92h-105l-299 -905h-129l-295 905h-121z" />
<glyph unicode="w" horiz-adv-x="1511" d="M6 905v92h195l164 -573l86 -305h8l96 297l139 405l-26 84h-156v92h383v-92h-111l187 -522l90 -264h8l70 270l139 516h-139v92h352v-92h-105l-253 -905h-127l-162 434l-90 248h-13l-86 -258l-145 -424h-125l-266 905h-113z" />
<glyph unicode="x" horiz-adv-x="950" d="M20 0v90h130l260 434l-222 383h-155v90h221l233 -403l181 313h-86v90h331v-90h-131l-239 -403l256 -414h133v-90h-338v90h84l-209 348l-203 -348h111v-90h-357z" />
<glyph unicode="y" horiz-adv-x="1030" d="M33 905v92h188l213 -682l68 -227h10l74 223l194 594h-135v92h346v-92h-104l-377 -1141q-35 -109 -87.5 -155.5t-141.5 -46.5q-101 0 -213 32l20 84q132 -24 170 -24q58 0 96 31t64 112l65 203h-55l-293 905h-102z" />
<glyph unicode="z" horiz-adv-x="851" d="M41 0v80l612 825h-487v-172h-92v264h706v-88l-606 -815h533v168h94v-262h-760z" />
<glyph unicode="{" horiz-adv-x="485" d="M59 580v65q45 9 72.5 30.5t39 57t14.5 64.5t3 77v369q0 71 43.5 133t112.5 62h90v-88h-43q-48 0 -72 -36.5t-24 -99.5v-348q0 -216 -113 -252q71 -43 92 -97.5t21 -156.5v-487q0 -65 18.5 -99t69.5 -34h51v-90h-90q-68 0 -112 62.5t-44 133.5v506q0 32 -1 51.5t-4.5 47 t-12 45.5t-22.5 36.5t-36.5 30t-52.5 17.5z" />
<glyph unicode="|" horiz-adv-x="432" d="M166 -279v1706h82v-1706h-82z" />
<glyph unicode="}" horiz-adv-x="485" d="M51 -260h51q51 0 69.5 34t18.5 99v487q0 102 21 156.5t92 97.5q-113 36 -113 252v348q0 63 -24 99.5t-72 36.5h-43v88h90q69 0 112.5 -62t43.5 -133v-369q0 -48 3 -77t14.5 -64.5t39 -57t72.5 -30.5v-65q-30 -6 -52.5 -17.5t-36.5 -30t-22.5 -36.5t-12 -45.5t-4.5 -47 t-1 -51.5v-506q0 -71 -44 -133.5t-112 -62.5h-90v90z" />
<glyph unicode="~" d="M160 569q32 68 90 111t129 43q62 0 210.5 -49t194.5 -49l142 98l53 -45q-31 -68 -89 -112t-130 -44q-66 0 -141 24t-141 48t-111 24l-152 -96z" />
<glyph unicode="&#xa1;" horiz-adv-x="405" d="M115 924q0 37 26.5 63.5t63.5 26.5q34 0 60 -27t26 -63q0 -35 -25.5 -60.5t-62.5 -25.5t-62.5 25.5t-25.5 60.5zM145 -424l29 1092h68l20 -1092h-117z" />
<glyph unicode="&#xa2;" d="M178 485q0 64 9 127.5t35.5 135.5t67.5 127t111 95t160 48v190h82v-190q147 -6 254 -55v-242h-90v176q-89 26 -164 29v-844q110 8 252 68l33 -74q-124 -72 -285 -84v-166h-82v164q-383 19 -383 495zM293 485q0 -85 12.5 -152t41.5 -124t83 -90.5t131 -38.5v842 q-138 -18 -203 -134.5t-65 -302.5z" />
<glyph unicode="&#xa3;" d="M129 0v94q152 52 166 365l10 186h-143v92h147l10 234q3 67 17 124t43 108t70.5 87t103.5 57t139 21q87 0 174.5 -17t143.5 -46v-248h-99v178q-121 37 -215 37q-63 0 -110 -15.5t-76 -42t-47.5 -67.5t-27 -84t-11.5 -100l-10 -226h407v-92h-409l-11 -186 q-13 -288 -106 -363h702v-96h-868z" />
<glyph unicode="&#xa4;" d="M125 264l131 125q-86 101 -86 236q0 145 86 241l-129 129l55 58l131 -129q105 84 240 84q127 0 238 -84l129 129l59 -60l-133 -127q84 -105 84 -237q0 -124 -82 -240l131 -121l-59 -63l-132 129q-97 -84 -235 -84q-139 0 -238 84l-131 -131zM260 627q0 -120 85.5 -204.5 t205.5 -84.5q118 0 203.5 85t85.5 204q0 120 -85 204t-204 84q-120 0 -205.5 -84t-85.5 -204z" />
<glyph unicode="&#xa5;" d="M33 1264v94h366v-94h-133l279 -572h8l285 572h-138v94h359v-94h-107l-321 -615h313v-71h-794v71h309l-316 615h-110zM150 397v78h794v-78h-344v-303h172v-94h-455v94h170v303h-337z" />
<glyph unicode="&#xa6;" horiz-adv-x="432" d="M166 -279v781h82v-781h-82zM166 692v735h82v-735h-82z" />
<glyph unicode="&#xa7;" horiz-adv-x="915" d="M113 584q0 165 153 272q-70 47 -99.5 95.5t-29.5 113.5q0 146 98 225.5t257 79.5q65 0 123 -8t87.5 -16t79.5 -23l-2 -246h-94v162q-102 29 -194 29q-49 0 -90.5 -9.5t-78 -30.5t-57 -60t-20.5 -93q0 -48 30.5 -87.5t79.5 -67t108.5 -53t118.5 -54t108.5 -62.5t80.5 -85 t31 -115q0 -72 -33 -137t-111 -138q152 -95 152 -251q0 -81 -31.5 -143.5t-86 -99.5t-121.5 -56t-144 -19q-60 0 -122 10t-87.5 17.5t-83.5 25.5l-2 240h94v-164q114 -31 207 -31q114 0 190 51.5t76 157.5q0 57 -32.5 102.5t-84 76t-114.5 58t-125.5 57.5t-114 65t-84 89 t-32.5 122zM225 614q0 -53 21 -92.5t63 -68t81 -47t100.5 -43t95.5 -41.5q49 49 78.5 105.5t29.5 96.5q0 49 -21.5 87.5t-62.5 67t-80.5 48t-97.5 45t-90 43.5q-117 -99 -117 -201z" />
<glyph unicode="&#xa8;" horiz-adv-x="978" d="M203 1171q0 32 24 55t54 23q38 0 62 -21.5t24 -56.5q0 -33 -23 -54t-59 -21t-59 21t-23 54zM575 1171q0 32 22 55t52 23q39 0 63.5 -21.5t24.5 -56.5q0 -33 -24.5 -54t-63.5 -21q-33 0 -53.5 21t-20.5 54z" />
<glyph unicode="&#xa9;" horiz-adv-x="1687" d="M106 684q0 148 58.5 283t157 232.5t235.5 155.5t287 58q200 0 370.5 -98t270.5 -266t100 -365q0 -198 -100 -366.5t-270.5 -266.5t-370.5 -98q-150 0 -287 58t-235.5 156t-157 233.5t-58.5 283.5zM178 684q0 -133 53 -255t142.5 -210t213 -140t257.5 -52q137 0 260 52 t212 140.5t141 209.5t52 255q0 135 -52 256.5t-141 209.5t-212 139.5t-260 51.5q-180 0 -333 -87.5t-243 -239t-90 -330.5zM434 668q0 69 11 136.5t41 141t76.5 129t124.5 91.5t177 36q147 0 252 -41v-221h-76v158q-90 24 -174 24q-168 0 -253 -121.5t-85 -334.5 q0 -75 8 -134.5t30.5 -117t59.5 -96t98.5 -62t143.5 -23.5q137 0 246 35l19 -71q-46 -19 -126 -32t-149 -13q-424 0 -424 516z" />
<glyph unicode="&#xaa;" horiz-adv-x="675" d="M45 731q0 91 69.5 141.5t184.5 55.5l172 8v45q0 88 -30.5 121t-114.5 33q-98 0 -213 -41l-25 67q128 56 256 56q109 0 164 -51.5t55 -168.5v-370h96l9 -60q-50 -24 -111 -24q-39 0 -60.5 16t-27.5 57q-37 -29 -71 -46.5t-67.5 -23t-45 -6.5t-39.5 -1q-57 0 -98.5 18.5 t-62.5 49t-30.5 61t-9.5 63.5zM143 735q0 -117 131 -117q42 0 97 23t100 59v162l-182 -8q-71 -4 -108.5 -35t-37.5 -84z" />
<glyph unicode="&#xab;" horiz-adv-x="829" d="M133 338v80l281 307l47 -39l-203 -309l205 -307l-45 -37zM399 338v80l281 307l47 -39l-203 -309l205 -307l-45 -37z" />
<glyph unicode="&#xac;" d="M172 561v96h766v-438h-100v342h-666z" />
<glyph unicode="&#xad;" horiz-adv-x="724" d="M104 481v109h514v-109h-514z" />
<glyph unicode="&#xae;" horiz-adv-x="1163" d="M88 969q0 130 64.5 240t175 173.5t241.5 63.5q130 0 241.5 -63.5t177 -173.5t65.5 -240q0 -129 -65.5 -238t-177 -172t-241.5 -63q-131 0 -241.5 63t-175 172t-64.5 238zM150 969q0 -111 56.5 -206.5t153.5 -151.5t209 -56q174 0 297 122t123 292q0 173 -122.5 295 t-297.5 122q-172 0 -295.5 -122t-123.5 -295zM352 674v55h51v488h-51v55h240q82 0 132 -40.5t50 -123.5q0 -44 -29.5 -91.5t-85.5 -70.5l105 -215l61 -8v-45q-30 -10 -69 -10q-20 0 -35.5 13.5t-22.5 29.5l-110 227h-115v-209h72v-55h-193zM473 993h121q113 0 113 113 q0 57 -32 84t-81 27h-121v-224z" />
<glyph unicode="&#xaf;" horiz-adv-x="978" d="M170 1137v98h621v-98h-621z" />
<glyph unicode="&#xb0;" horiz-adv-x="684" d="M94 1102q0 105 78 184.5t186 79.5q107 0 182.5 -79t75.5 -185q0 -109 -74.5 -183.5t-183.5 -74.5q-121 0 -192.5 73t-71.5 185zM172 1096q0 -74 52.5 -127.5t127.5 -53.5q74 0 128.5 54t54.5 127q0 76 -54.5 131t-128.5 55q-75 0 -127.5 -54.5t-52.5 -131.5z" />
<glyph unicode="&#xb1;" d="M170 0v84h766v-84h-766zM170 541v96h334v328h100v-328h332v-96h-332v-342h-100v342h-334z" />
<glyph unicode="&#xb2;" horiz-adv-x="718" d="M33 1460q130 92 280 92q125 0 200 -55t75 -166q0 -51 -26 -109t-64 -108t-93.5 -106t-100.5 -95.5t-99 -85.5q-11 -9 -17 -14h336v117h94v-203h-579v74q204 175 273 243q171 171 171 279q0 72 -48.5 106.5t-131.5 34.5q-107 0 -227 -67z" />
<glyph unicode="&#xb3;" horiz-adv-x="718" d="M47 766l23 76q110 -35 227 -35q111 0 172 45t61 137q0 72 -60.5 112t-168.5 40q-45 0 -94 -6l-35 61l283 258h-279v-121h-94v207h514l18 -59l-276 -254q130 -2 213.5 -61.5t83.5 -176.5q0 -88 -45.5 -151t-114.5 -91t-153 -28q-168 0 -275 47z" />
<glyph unicode="&#xb4;" horiz-adv-x="978" d="M406 1141l227 323l100 -82l-268 -284z" />
<glyph unicode="&#xb6;" horiz-adv-x="999" d="M88 1047q0 150 102 256t252 106h498v-88h-137v-1706h-88v1706h-146l2 -1706h-247v90h157v989h-39q-151 0 -252.5 102t-101.5 251z" />
<glyph unicode="&#xb7;" horiz-adv-x="366" d="M100 590q0 37 25.5 61.5t62.5 24.5t62.5 -24.5t25.5 -61.5q0 -36 -26 -63t-60 -27q-36 0 -63 27t-27 63z" />
<glyph unicode="&#xb8;" horiz-adv-x="886" d="M303 -430q246 24 246 125q0 27 -18.5 45t-53 27t-66.5 12t-75 4l-23 35l195 252l57 -35l-131 -168q103 -5 163 -44t60 -114q0 -88 -92 -147.5t-262 -55.5v64z" />
<glyph unicode="&#xb9;" horiz-adv-x="718" d="M92 1473l238 67h90v-729h176v-84h-471v84h190v623l-206 -33z" />
<glyph unicode="&#xba;" horiz-adv-x="679" d="M53 872q0 67 15.5 126.5t48.5 110.5t91.5 80.5t137.5 29.5q65 0 115.5 -20t81 -52.5t50 -78.5t27 -93t7.5 -101q0 -52 -8 -97.5t-28.5 -90t-53 -76.5t-85.5 -51.5t-122 -19.5q-78 0 -134 27t-86 75.5t-43.5 105t-13.5 125.5zM147 870q0 -43 4 -76.5t16.5 -68t34 -57 t58 -36.5t86.5 -14q189 0 189 254q0 50 -7.5 92.5t-26.5 85.5t-58.5 68t-96.5 25t-98 -24t-62 -65.5t-30 -86.5t-9 -97z" />
<glyph unicode="&#xbb;" horiz-adv-x="829" d="M111 70l204 307l-202 309l47 39l280 -307v-80l-284 -305zM377 70l205 307l-203 309l47 39l281 -307v-80l-285 -305z" />
<glyph unicode="&#xbc;" horiz-adv-x="1607" d="M121 1288l237 68h91v-729h176v-84h-471v84h190v622l-207 -32zM492 -47l581 1477h84l-577 -1477h-88zM836 227v78l424 508h98v-502h127v-84h-127v-143h98v-84h-287v84h91v143h-424zM954 311h308v373z" />
<glyph unicode="&#xbd;" horiz-adv-x="1607" d="M98 1288l238 68h90v-729h176v-84h-471v84h191v622l-207 -32zM457 -47l581 1477h84l-577 -1477h-88zM924 733q130 92 280 92q125 0 200 -55t75 -166q0 -51 -26 -109t-64 -108t-93.5 -106t-100.5 -95.5t-99 -85.5q-11 -9 -17 -14h336v117h94v-203h-579v74q204 175 273 243 q171 171 171 279q0 72 -48.5 106.5t-131.5 34.5q-107 0 -227 -67z" />
<glyph unicode="&#xbe;" horiz-adv-x="1607" d="M55 582l23 75q107 -34 227 -34q111 0 172.5 45t61.5 137q0 72 -61 111.5t-169 39.5q-45 0 -94 -6l-35 62l283 258h-279v-121h-94v207h514l19 -60l-277 -254q131 -2 214 -61t83 -176q0 -88 -45.5 -151t-114.5 -91t-153 -28q-168 0 -275 47zM508 -47l582 1477h84 l-578 -1477h-88zM901 227v78l424 508h98v-502h127v-84h-127v-143h99v-84h-287v84h90v143h-424zM1020 311h307v373z" />
<glyph unicode="&#xbf;" horiz-adv-x="849" d="M82 -176q0 91 51.5 164.5t140.5 142.5q146 114 204.5 189t58.5 159q0 18 -2 39.5t-4.5 37.5t-7 45t-7.5 48l90 21q29 -128 29 -201q0 -97 -60 -186t-202 -199q-91 -70 -131.5 -124.5t-40.5 -127.5q0 -91 64 -133.5t175 -42.5q138 0 262 41v194h97v-274q-174 -61 -348 -61 q-182 0 -275.5 70t-93.5 198zM436 924q0 38 26 64t60 26q37 0 63.5 -26.5t26.5 -63.5q0 -35 -25.5 -60.5t-62.5 -25.5t-62.5 25.5t-25.5 60.5z" />
<glyph unicode="&#xc0;" horiz-adv-x="1302" d="M41 0v94h119q73 233 220 687t200 620h147l424 -1307h113v-94h-383v94h145l-90 293h-567l-90 -293h151v-94h-389zM342 1772l100 81l228 -323l-60 -43zM403 489h500l-203 648l-45 151h-4q-8 -32 -47 -153q-97 -303 -201 -646z" />
<glyph unicode="&#xc1;" horiz-adv-x="1302" d="M41 0v94h119q73 233 220 687t200 620h147l424 -1307h113v-94h-383v94h145l-90 293h-567l-90 -293h151v-94h-389zM403 489h500l-203 648l-45 151h-4q-8 -32 -47 -153q-97 -303 -201 -646zM621 1530l227 323l100 -81l-268 -285z" />
<glyph unicode="&#xc2;" horiz-adv-x="1302" d="M41 0v94h119q73 233 220 687t200 620h147l424 -1307h113v-94h-383v94h145l-90 293h-567l-90 -293h151v-94h-389zM303 1532l305 272h80l307 -268l-39 -47l-309 203l-307 -205zM403 489h500l-203 648l-45 151h-4q-8 -32 -47 -153q-97 -303 -201 -646z" />
<glyph unicode="&#xc3;" horiz-adv-x="1302" d="M41 0v94h119q73 233 220 687t200 620h147l424 -1307h113v-94h-383v94h145l-90 293h-567l-90 -293h151v-94h-389zM365 1520q21 60 64.5 98.5t96.5 38.5q47 0 145 -40t126 -40l116 80l45 -37q-21 -60 -64.5 -98.5t-96.5 -38.5q-63 0 -151.5 40t-119.5 40l-116 -80zM403 489 h500l-203 648l-45 151h-4q-8 -32 -47 -153q-97 -303 -201 -646z" />
<glyph unicode="&#xc4;" horiz-adv-x="1302" d="M41 0v94h119q73 233 220 687t200 620h147l424 -1307h113v-94h-383v94h145l-90 293h-567l-90 -293h151v-94h-389zM389 1565q0 31 24 54t54 23q39 0 62.5 -21t23.5 -56q0 -33 -23 -54.5t-59 -21.5t-59 21.5t-23 54.5zM403 489h500l-203 648l-45 151h-4q-8 -32 -47 -153 q-97 -303 -201 -646zM762 1565q0 32 22 54.5t52 22.5q39 0 63.5 -21t24.5 -56q0 -34 -25 -55t-63 -21q-32 0 -53 21t-21 55z" />
<glyph unicode="&#xc5;" horiz-adv-x="1302" d="M41 0v94h119q73 233 220 687t200 620h147l424 -1307h113v-94h-383v94h145l-90 293h-567l-90 -293h151v-94h-389zM403 489h500l-203 648l-45 151h-4q-8 -32 -47 -153q-97 -303 -201 -646zM440 1692q0 82 61 142t148 60q85 0 144 -59t59 -143q0 -85 -59 -143t-144 -58 q-87 0 -148 58.5t-61 142.5zM514 1688q0 -58 37 -96t98 -38q57 0 93 38t36 96t-36.5 97.5t-92.5 39.5q-61 0 -98 -39t-37 -98z" />
<glyph unicode="&#xc6;" horiz-adv-x="1882" d="M0 0v94h129l758 1211h-117v92h995v-275h-98v183h-537v-523l531 13v-111l-531 8v-598h568v182h102v-276h-921v94h135v334h-549l-207 -334h162v-94h-420zM528 530h486v762h-13z" />
<glyph unicode="&#xc7;" horiz-adv-x="1116" d="M102 690q0 65 7.5 131t26.5 139t48.5 137.5t76 124.5t105.5 103t141 68.5t179 25.5q202 0 346 -55v-295h-98v219q-112 33 -244 33q-235 0 -352 -169t-117 -466q0 -104 11 -186t42 -162t82 -133.5t136.5 -86t199.5 -32.5q186 0 338 49l25 -88q-115 -45 -310 -59l-120 -156 q103 -5 163 -44t60 -114q0 -88 -92 -147t-262 -55v63q245 24 245 125q0 27 -18.5 45t-53 27t-66.5 12t-75 4l-22 35l155 205q-557 8 -557 702z" />
<glyph unicode="&#xc8;" d="M82 0v94h135v1211h-127v92h920v-275h-99v183h-577v-523l571 13v-111l-571 8v-598h608v182h102v-276h-962zM342 1772l100 81l228 -323l-60 -43z" />
<glyph unicode="&#xc9;" d="M82 0v94h135v1211h-127v92h920v-275h-99v183h-577v-523l571 13v-111l-571 8v-598h608v182h102v-276h-962zM530 1530l228 323l100 -81l-268 -285z" />
<glyph unicode="&#xca;" d="M82 0v94h135v1211h-127v92h920v-275h-99v183h-577v-523l571 13v-111l-571 8v-598h608v182h102v-276h-962zM258 1532l305 272h80l307 -268l-39 -47l-309 203l-307 -205z" />
<glyph unicode="&#xcb;" d="M82 0v94h135v1211h-127v92h920v-275h-99v183h-577v-523l571 13v-111l-571 8v-598h608v182h102v-276h-962zM334 1565q0 31 24 54t54 23q39 0 62.5 -21t23.5 -56q0 -33 -23 -54.5t-59 -21.5t-59 21.5t-23 54.5zM707 1565q0 32 21.5 54.5t51.5 22.5q39 0 63.5 -21t24.5 -56 q0 -34 -25 -55t-63 -21q-32 0 -52.5 21t-20.5 55z" />
<glyph unicode="&#xcc;" horiz-adv-x="657" d="M59 1772l101 81l227 -323l-59 -43zM143 0v94h125v1211h-125v94h371v-94h-129v-1211h129v-94h-371z" />
<glyph unicode="&#xcd;" horiz-adv-x="657" d="M143 0v94h125v1211h-125v94h371v-94h-129v-1211h129v-94h-371zM272 1530l228 323l100 -81l-268 -285z" />
<glyph unicode="&#xce;" horiz-adv-x="657" d="M-16 1532l305 272h80l307 -268l-39 -47l-309 203l-308 -205zM143 0v94h125v1211h-125v94h371v-94h-129v-1211h129v-94h-371z" />
<glyph unicode="&#xcf;" horiz-adv-x="657" d="M61 1565q0 31 24 54t54 23q39 0 62.5 -21t23.5 -56q0 -33 -23 -54.5t-59 -21.5t-59 21.5t-23 54.5zM143 0v94h125v1211h-125v94h371v-94h-129v-1211h129v-94h-371zM434 1565q0 32 22 54.5t52 22.5q39 0 63.5 -21t24.5 -56q0 -34 -25 -55t-63 -21q-32 0 -53 21t-21 55z " />
<glyph unicode="&#xd0;" horiz-adv-x="1296" d="M82 0v94h139v621h-131v80h131v510h-131v94h553q551 0 551 -697q0 -702 -571 -702h-541zM342 96h264q127 0 206 31q265 105 265 559q0 98 -11.5 181t-29.5 142.5t-47 107t-56.5 78t-65 52.5t-66.5 33t-67 17t-59.5 7t-51.5 1h-281v-510h324v-80h-324v-619z" />
<glyph unicode="&#xd1;" horiz-adv-x="1431" d="M82 0v96h137v1209h-137v94h262l578 -912l172 -274h10v1092h-143v94h389v-94h-133v-1305h-109l-623 973l-149 239l-6 -2l2 -1114h143v-96h-393zM430 1526q21 59 64.5 98t97.5 39q47 0 144.5 -40t125.5 -40l117 80l45 -37q-21 -59 -64.5 -98t-97.5 -39q-63 0 -151 40 t-119 40l-117 -80z" />
<glyph unicode="&#xd2;" horiz-adv-x="1327" d="M102 686q0 120 17.5 224t60 199t106.5 162.5t164 107.5t226 40q549 0 549 -727q0 -121 -22 -227.5t-66.5 -194.5t-109 -151t-154.5 -98t-197 -35q-155 0 -267 48t-178.5 141t-97.5 218.5t-31 292.5zM221 682q0 -301 109.5 -450.5t345.5 -149.5q86 0 157 31t121 86.5 t84.5 131.5t51 165.5t16.5 189.5q0 637 -430 637q-455 0 -455 -641zM362 1772l101 81l227 -323l-59 -43z" />
<glyph unicode="&#xd3;" horiz-adv-x="1327" d="M102 686q0 120 17.5 224t60 199t106.5 162.5t164 107.5t226 40q549 0 549 -727q0 -121 -22 -227.5t-66.5 -194.5t-109 -151t-154.5 -98t-197 -35q-155 0 -267 48t-178.5 141t-97.5 218.5t-31 292.5zM221 682q0 -301 109.5 -450.5t345.5 -149.5q86 0 157 31t121 86.5 t84.5 131.5t51 165.5t16.5 189.5q0 637 -430 637q-455 0 -455 -641zM608 1530l228 323l100 -81l-268 -285z" />
<glyph unicode="&#xd4;" horiz-adv-x="1327" d="M102 686q0 120 17.5 224t60 199t106.5 162.5t164 107.5t226 40q549 0 549 -727q0 -121 -22 -227.5t-66.5 -194.5t-109 -151t-154.5 -98t-197 -35q-155 0 -267 48t-178.5 141t-97.5 218.5t-31 292.5zM221 682q0 -301 109.5 -450.5t345.5 -149.5q86 0 157 31t121 86.5 t84.5 131.5t51 165.5t16.5 189.5q0 637 -430 637q-455 0 -455 -641zM330 1532l305 272h80l307 -268l-39 -47l-309 203l-307 -205z" />
<glyph unicode="&#xd5;" horiz-adv-x="1327" d="M102 686q0 120 17.5 224t60 199t106.5 162.5t164 107.5t226 40q549 0 549 -727q0 -121 -22 -227.5t-66.5 -194.5t-109 -151t-154.5 -98t-197 -35q-155 0 -267 48t-178.5 141t-97.5 218.5t-31 292.5zM221 682q0 -301 109.5 -450.5t345.5 -149.5q86 0 157 31t121 86.5 t84.5 131.5t51 165.5t16.5 189.5q0 637 -430 637q-455 0 -455 -641zM389 1530q21 59 64.5 98t97.5 39q47 0 144.5 -40t125.5 -40l117 80l45 -37q-21 -59 -64.5 -98t-97.5 -39q-63 0 -151 40t-119 40l-117 -80z" />
<glyph unicode="&#xd6;" horiz-adv-x="1327" d="M102 686q0 120 17.5 224t60 199t106.5 162.5t164 107.5t226 40q549 0 549 -727q0 -121 -22 -227.5t-66.5 -194.5t-109 -151t-154.5 -98t-197 -35q-155 0 -267 48t-178.5 141t-97.5 218.5t-31 292.5zM221 682q0 -301 109.5 -450.5t345.5 -149.5q86 0 157 31t121 86.5 t84.5 131.5t51 165.5t16.5 189.5q0 637 -430 637q-455 0 -455 -641zM397 1565q0 31 24 54t54 23q39 0 62.5 -21t23.5 -56q0 -33 -23 -54.5t-59 -21.5t-59 21.5t-23 54.5zM770 1565q0 32 22 54.5t52 22.5q39 0 63.5 -21t24.5 -56q0 -34 -25 -55t-63 -21q-32 0 -53 21t-21 55z " />
<glyph unicode="&#xd7;" d="M217 317l270 271l-266 264l70 68l264 -265l260 260l72 -69l-260 -262l262 -262l-68 -70l-262 264l-272 -270z" />
<glyph unicode="&#xd8;" horiz-adv-x="1327" d="M94 -10l135 184q-127 171 -127 512q0 120 17.5 224t60 199t106.5 162.5t164 107.5t226 40q233 0 368 -135l103 139h86l-141 -192q133 -182 133 -539q0 -121 -22 -227.5t-66.5 -194.5t-109 -151t-154.5 -98t-197 -35q-262 0 -400 135l-96 -131h-86zM221 682 q0 -267 82 -408l674 916q-110 133 -301 133q-455 0 -455 -641zM344 213q110 -131 332 -131q86 0 157 31t121 86.5t84.5 131.5t51 165.5t16.5 189.5q0 284 -88 444z" />
<glyph unicode="&#xd9;" horiz-adv-x="1396" d="M61 1305v94h392v-94h-150v-805q0 -204 101.5 -310t289.5 -106q194 0 296 105.5t102 310.5v805h-148v94h391v-94h-129v-807q0 -236 -130.5 -374t-381.5 -138q-259 0 -383.5 133t-124.5 379v807h-125zM426 1772l100 81l228 -323l-60 -43z" />
<glyph unicode="&#xda;" horiz-adv-x="1396" d="M61 1305v94h392v-94h-150v-805q0 -204 101.5 -310t289.5 -106q194 0 296 105.5t102 310.5v805h-148v94h391v-94h-129v-807q0 -236 -130.5 -374t-381.5 -138q-259 0 -383.5 133t-124.5 379v807h-125zM668 1530l227 323l100 -81l-268 -285z" />
<glyph unicode="&#xdb;" horiz-adv-x="1396" d="M61 1305v94h392v-94h-150v-805q0 -204 101.5 -310t289.5 -106q194 0 296 105.5t102 310.5v805h-148v94h391v-94h-129v-807q0 -236 -130.5 -374t-381.5 -138q-259 0 -383.5 133t-124.5 379v807h-125zM354 1532l316 268h84l319 -264l-41 -47l-321 201l-320 -203z" />
<glyph unicode="&#xdc;" horiz-adv-x="1396" d="M61 1305v94h392v-94h-150v-805q0 -204 101.5 -310t289.5 -106q194 0 296 105.5t102 310.5v805h-148v94h391v-94h-129v-807q0 -236 -130.5 -374t-381.5 -138q-259 0 -383.5 133t-124.5 379v807h-125zM442 1565q0 31 24 54t54 23q39 0 62.5 -21t23.5 -56q0 -33 -23 -54.5 t-59 -21.5t-59 21.5t-23 54.5zM815 1565q0 32 22 54.5t52 22.5q39 0 63.5 -21t24.5 -56q0 -34 -25 -55t-63 -21q-32 0 -53 21t-21 55z" />
<glyph unicode="&#xdd;" horiz-adv-x="1126" d="M20 1305v94h367v-94h-133l305 -568h8l318 568h-137v94h358v-94h-107l-378 -670v-541h167v-94h-454v94h168v535l-371 676h-111zM516 1528l227 323l101 -82l-269 -284z" />
<glyph unicode="&#xde;" horiz-adv-x="1110" d="M82 0v94h129v1211h-129v94h418v-94h-172v-172h307q116 0 207.5 -41.5t149 -133t57.5 -221.5q0 -51 -10.5 -103t-38.5 -109.5t-70.5 -100.5t-115 -71.5t-163.5 -28.5h-323v-230h172v-94h-418zM328 418h317q56 0 104 15.5t91 49.5t67.5 97.5t24.5 150.5q0 149 -82 228 t-211 79h-311v-620z" />
<glyph unicode="&#xdf;" horiz-adv-x="1124" d="M41 0v94h158v701h-150v88h150v233q0 42 8 84.5t32.5 91.5t61.5 86.5t102 62.5t148 25q71 0 128 -16.5t92 -42.5t58 -60t32 -66t9 -64q0 -56 -22 -106t-53 -85.5t-62.5 -67.5t-53.5 -66.5t-22 -68.5q0 -56 38.5 -107.5t113.5 -113.5q104 -81 136 -114q110 -110 110 -246 q0 -51 -17 -97t-52 -86.5t-98.5 -64t-148.5 -23.5q-74 0 -153.5 15.5t-130.5 40.5v221l90 -2v-144q108 -34 200 -34q93 0 143 43t50 112q0 43 -11 79.5t-35.5 67.5t-44 50.5t-56.5 50.5t-52 45q-50 46 -76 72t-62 68t-52.5 81t-16.5 78q0 41 23 83t55.5 76.5l65 69 t55.5 73.5t23 77q0 16 -2 31.5t-14.5 44t-34 49t-65 36t-103.5 15.5q-111 0 -168.5 -71t-57.5 -181v-1118h-268z" />
<glyph unicode="&#xe0;" horiz-adv-x="978" d="M72 270q0 135 98.5 210t261.5 83l266 15v81q0 143 -48 196.5t-177 53.5q-147 0 -307 -57l-31 82q174 80 363 80q154 0 231.5 -76t77.5 -250v-594h143l8 -67q-68 -35 -149 -35q-57 0 -83.5 25t-27.5 96l-4 2q-56 -46 -109 -75t-101 -39t-71.5 -12.5t-60.5 -2.5 q-64 0 -114.5 19t-81 48t-50 68t-27 75.5t-7.5 73.5zM193 279q0 -197 204 -197q152 0 301 135v272l-280 -14q-111 -6 -168 -57t-57 -139zM258 1382l100 82l228 -323l-60 -43z" />
<glyph unicode="&#xe1;" horiz-adv-x="978" d="M72 270q0 135 98.5 210t261.5 83l266 15v81q0 143 -48 196.5t-177 53.5q-147 0 -307 -57l-31 82q174 80 363 80q154 0 231.5 -76t77.5 -250v-594h143l8 -67q-68 -35 -149 -35q-57 0 -83.5 25t-27.5 96l-4 2q-56 -46 -109 -75t-101 -39t-71.5 -12.5t-60.5 -2.5 q-64 0 -114.5 19t-81 48t-50 68t-27 75.5t-7.5 73.5zM193 279q0 -197 204 -197q152 0 301 135v272l-280 -14q-111 -6 -168 -57t-57 -139zM434 1141l228 323l100 -82l-268 -284z" />
<glyph unicode="&#xe2;" horiz-adv-x="978" d="M72 270q0 135 98.5 210t261.5 83l266 15v81q0 143 -48 196.5t-177 53.5q-147 0 -307 -57l-31 82q174 80 363 80q154 0 231.5 -76t77.5 -250v-594h143l8 -67q-68 -35 -149 -35q-57 0 -83.5 25t-27.5 96l-4 2q-56 -46 -109 -75t-101 -39t-71.5 -12.5t-60.5 -2.5 q-64 0 -114.5 19t-81 48t-50 68t-27 75.5t-7.5 73.5zM141 1135l305 284h80l308 -280l-39 -47l-310 202l-307 -204zM193 279q0 -197 204 -197q152 0 301 135v272l-280 -14q-111 -6 -168 -57t-57 -139z" />
<glyph unicode="&#xe3;" horiz-adv-x="978" d="M72 270q0 135 98.5 210t261.5 83l266 15v81q0 143 -48 196.5t-177 53.5q-147 0 -307 -57l-31 82q174 80 363 80q154 0 231.5 -76t77.5 -250v-594h143l8 -67q-68 -35 -149 -35q-57 0 -83.5 25t-27.5 96l-4 2q-56 -46 -109 -75t-101 -39t-71.5 -12.5t-60.5 -2.5 q-64 0 -114.5 19t-81 48t-50 68t-27 75.5t-7.5 73.5zM178 1135q21 59 64.5 98t97.5 39q47 0 144.5 -40t125.5 -40l117 80l45 -37q-21 -59 -64.5 -98t-97.5 -39q-63 0 -151 40t-119 40l-117 -80zM193 279q0 -197 204 -197q152 0 301 135v272l-280 -14q-111 -6 -168 -57 t-57 -139z" />
<glyph unicode="&#xe4;" horiz-adv-x="978" d="M72 270q0 135 98.5 210t261.5 83l266 15v81q0 143 -48 196.5t-177 53.5q-147 0 -307 -57l-31 82q174 80 363 80q154 0 231.5 -76t77.5 -250v-594h143l8 -67q-68 -35 -149 -35q-57 0 -83.5 25t-27.5 96l-4 2q-56 -46 -109 -75t-101 -39t-71.5 -12.5t-60.5 -2.5 q-64 0 -114.5 19t-81 48t-50 68t-27 75.5t-7.5 73.5zM180 1171q0 32 24 55t54 23q38 0 62 -21.5t24 -56.5q0 -33 -23 -54t-59 -21t-59 21t-23 54zM193 279q0 -197 204 -197q152 0 301 135v272l-280 -14q-111 -6 -168 -57t-57 -139zM553 1171q0 32 22 55t52 23 q39 0 63.5 -21.5t24.5 -56.5q0 -33 -24.5 -54t-63.5 -21q-33 0 -53.5 21t-20.5 54z" />
<glyph unicode="&#xe5;" horiz-adv-x="978" d="M72 270q0 135 98.5 210t261.5 83l266 15v81q0 143 -48 196.5t-177 53.5q-147 0 -307 -57l-31 82q174 80 363 80q154 0 231.5 -76t77.5 -250v-594h143l8 -67q-68 -35 -149 -35q-57 0 -83.5 25t-27.5 96l-4 2q-56 -46 -109 -75t-101 -39t-71.5 -12.5t-60.5 -2.5 q-64 0 -114.5 19t-81 48t-50 68t-27 75.5t-7.5 73.5zM193 279q0 -197 204 -197q152 0 301 135v272l-280 -14q-111 -6 -168 -57t-57 -139zM281 1298q0 83 60.5 143t147.5 60q84 0 143.5 -59.5t59.5 -143.5t-59 -142t-144 -58q-87 0 -147.5 58t-60.5 142zM354 1294 q0 -58 37 -95.5t98 -37.5q57 0 93 38t36 95q0 58 -36.5 98t-92.5 40q-61 0 -98 -39t-37 -99z" />
<glyph unicode="&#xe6;" horiz-adv-x="1585" d="M72 270q0 136 99.5 213.5t260.5 79.5l291 2v94q0 139 -58.5 194.5t-191.5 55.5q-147 0 -307 -57l-31 82q174 80 363 80q239 0 307 -170q105 174 330 174q377 0 376 -463v-8v-78h-675q-4 -387 299 -387q87 0 155.5 17t161.5 57l33 -76q-167 -90 -348 -90q-242 0 -340 155 q-78 -57 -151 -93t-136 -48.5t-90 -15t-68 -2.5q-64 0 -114.5 19t-81 48t-50 68t-27 75.5t-7.5 73.5zM193 279q0 -197 204 -197q71 0 181 38.5t182 100.5q-36 95 -39 248h-303q-110 0 -167.5 -51t-57.5 -139zM838 563h563q0 172 -61 265.5t-205 93.5q-270 0 -297 -359z" />
<glyph unicode="&#xe7;" horiz-adv-x="886" d="M82 485q0 55 7.5 110.5t24.5 118t49.5 115.5t78 97t114.5 69t154 25q167 0 291 -57v-242h-90v176q-91 29 -195 29q-161 0 -240 -120.5t-79 -320.5q0 -405 299 -405q77 0 146 17t157 53l32 -74q-129 -75 -301 -84l-96 -125q103 -5 163 -44t60 -114q0 -88 -92 -147.5 t-262 -55.5v64q246 24 246 125q0 27 -18.5 45t-53 27t-66.5 12t-75 4l-23 35l133 174q-364 27 -364 493z" />
<glyph unicode="&#xe8;" horiz-adv-x="946" d="M82 496q0 39 3.5 79t14 93.5t28.5 100t49.5 93.5t73.5 80.5t105 54.5t140 21q377 0 376 -463v-8v-78h-675q-4 -387 299 -387q87 0 155.5 17t161.5 57l33 -76q-167 -90 -348 -90q-98 0 -172 26t-120 70.5t-74 110.5t-39 137.5t-11 161.5zM199 563h563q0 172 -61 265.5 t-205 93.5q-270 0 -297 -359zM203 1382l100 82l227 -323l-59 -43z" />
<glyph unicode="&#xe9;" horiz-adv-x="946" d="M82 496q0 39 3.5 79t14 93.5t28.5 100t49.5 93.5t73.5 80.5t105 54.5t140 21q377 0 376 -463v-8v-78h-675q-4 -387 299 -387q87 0 155.5 17t161.5 57l33 -76q-167 -90 -348 -90q-98 0 -172 26t-120 70.5t-74 110.5t-39 137.5t-11 161.5zM199 563h563q0 172 -61 265.5 t-205 93.5q-270 0 -297 -359zM457 1141l227 323l100 -82l-268 -284z" />
<glyph unicode="&#xea;" horiz-adv-x="946" d="M82 496q0 39 3.5 79t14 93.5t28.5 100t49.5 93.5t73.5 80.5t105 54.5t140 21q377 0 376 -463v-8v-78h-675q-4 -387 299 -387q87 0 155.5 17t161.5 57l33 -76q-167 -90 -348 -90q-98 0 -172 26t-120 70.5t-74 110.5t-39 137.5t-11 161.5zM147 1135l306 284h79l308 -280 l-39 -47l-309 202l-308 -204zM199 563h563q0 172 -61 265.5t-205 93.5q-270 0 -297 -359z" />
<glyph unicode="&#xeb;" horiz-adv-x="946" d="M82 496q0 39 3.5 79t14 93.5t28.5 100t49.5 93.5t73.5 80.5t105 54.5t140 21q377 0 376 -463v-8v-78h-675q-4 -387 299 -387q87 0 155.5 17t161.5 57l33 -76q-167 -90 -348 -90q-98 0 -172 26t-120 70.5t-74 110.5t-39 137.5t-11 161.5zM199 563h563q0 172 -61 265.5 t-205 93.5q-270 0 -297 -359zM238 1171q0 32 23.5 55t53.5 23q38 0 62 -21.5t24 -56.5q0 -33 -23 -54t-59 -21t-58.5 21t-22.5 54zM610 1171q0 32 22 55t52 23q39 0 63.5 -21.5t24.5 -56.5q0 -33 -24.5 -54t-63.5 -21q-32 0 -53 21t-21 54z" />
<glyph unicode="&#xec;" horiz-adv-x="546" d="M-31 1382l101 82l227 -323l-59 -43zM109 907v90h227v-903h151v-67q-68 -35 -149 -35q-57 0 -83.5 25t-27.5 96v794h-118z" />
<glyph unicode="&#xed;" horiz-adv-x="546" d="M109 907v90h227v-903h151v-67q-68 -35 -149 -35q-57 0 -83.5 25t-27.5 96v794h-118zM205 1141l227 323l100 -82l-268 -284z" />
<glyph unicode="&#xee;" horiz-adv-x="546" d="M-59 1135l305 284h80l307 -280l-39 -47l-309 202l-308 -204zM109 907v90h227v-903h151v-67q-68 -35 -149 -35q-57 0 -83.5 25t-27.5 96v794h-118z" />
<glyph unicode="&#xef;" horiz-adv-x="532" d="M-4 1171q0 32 24 55t54 23q38 0 62 -21.5t24 -56.5q0 -33 -23 -54t-59 -21t-59 21t-23 54zM109 907v90h227v-903h151v-67q-68 -35 -149 -35q-57 0 -83.5 25t-27.5 96v794h-118zM369 1171q0 32 22 55t51 23q39 0 63.5 -21.5t24.5 -56.5q0 -33 -24.5 -54t-63.5 -21 q-32 0 -52.5 20.5t-20.5 54.5z" />
<glyph unicode="&#xf0;" horiz-adv-x="985" d="M86 430q0 92 25.5 176.5t74.5 153t128.5 109t179.5 40.5q148 0 262 -65q-61 180 -166 309l-193 -129l-43 59l187 127q-101 107 -222 187l43 69q148 -80 259 -200l192 129l43 -62l-186 -125q113 -142 173 -318.5t60 -365.5q0 -62 -8 -121t-25.5 -121.5t-50 -114t-77.5 -93 t-112 -65t-149 -23.5q-95 0 -167.5 28.5t-114.5 73t-68.5 106t-35.5 118t-9 118.5zM193 434q0 -352 299 -352q74 0 130.5 29t88.5 72.5t52.5 102t27 109.5t6.5 103q0 107 -29 235q-121 82 -276 82q-63 0 -115 -23.5t-85.5 -61.5t-56 -88.5t-32.5 -102.5t-10 -105z" />
<glyph unicode="&#xf1;" horiz-adv-x="1138" d="M41 907v90h266v-82l6 -4q84 51 180 80t171 29q57 0 102 -11t74 -27t49.5 -44t30.5 -51t15 -60t6 -59t1 -59v-615h152v-67q-68 -35 -150 -35q-57 0 -83 25t-27 96v565q0 51 -2.5 82.5t-13 66t-30.5 53t-55 30.5t-86 12q-73 0 -166 -31.5t-174 -75.5v-815h-110v907h-156z M221 1161q21 59 64.5 98t97.5 39q47 0 144.5 -39.5t125.5 -39.5l117 79l45 -36q-21 -60 -65 -99t-97 -39q-63 0 -151 40t-119 40l-117 -80z" />
<glyph unicode="&#xf2;" horiz-adv-x="985" d="M82 492q0 80 13.5 154t45 142.5t79 119t120 80.5t162.5 30q92 0 163.5 -30.5t115.5 -79.5t72.5 -119t39 -141t10.5 -152q0 -79 -11.5 -148t-41 -137t-76 -116.5t-122 -78.5t-173.5 -30q-90 0 -160 28t-114 74.5t-72.5 113t-39.5 137t-11 153.5zM199 489q0 -70 6.5 -124 t25.5 -109.5t51.5 -91.5t88.5 -59t131 -23q286 0 286 410q0 62 -6 116.5t-24.5 114.5t-49 102t-83.5 69.5t-123 27.5q-71 0 -125 -26t-87 -67t-54 -99.5t-29 -116.5t-8 -124zM211 1382l100 82l228 -323l-60 -43z" />
<glyph unicode="&#xf3;" horiz-adv-x="985" d="M82 492q0 80 13.5 154t45 142.5t79 119t120 80.5t162.5 30q92 0 163.5 -30.5t115.5 -79.5t72.5 -119t39 -141t10.5 -152q0 -79 -11.5 -148t-41 -137t-76 -116.5t-122 -78.5t-173.5 -30q-90 0 -160 28t-114 74.5t-72.5 113t-39.5 137t-11 153.5zM199 489q0 -70 6.5 -124 t25.5 -109.5t51.5 -91.5t88.5 -59t131 -23q286 0 286 410q0 62 -6 116.5t-24.5 114.5t-49 102t-83.5 69.5t-123 27.5q-71 0 -125 -26t-87 -67t-54 -99.5t-29 -116.5t-8 -124zM449 1141l227 323l100 -82l-268 -284z" />
<glyph unicode="&#xf4;" horiz-adv-x="985" d="M82 492q0 80 13.5 154t45 142.5t79 119t120 80.5t162.5 30q92 0 163.5 -30.5t115.5 -79.5t72.5 -119t39 -141t10.5 -152q0 -79 -11.5 -148t-41 -137t-76 -116.5t-122 -78.5t-173.5 -30q-90 0 -160 28t-114 74.5t-72.5 113t-39.5 137t-11 153.5zM156 1135l305 284h80 l307 -280l-39 -47l-309 202l-307 -204zM199 489q0 -70 6.5 -124t25.5 -109.5t51.5 -91.5t88.5 -59t131 -23q286 0 286 410q0 62 -6 116.5t-24.5 114.5t-49 102t-83.5 69.5t-123 27.5q-71 0 -125 -26t-87 -67t-54 -99.5t-29 -116.5t-8 -124z" />
<glyph unicode="&#xf5;" horiz-adv-x="985" d="M82 492q0 80 13.5 154t45 142.5t79 119t120 80.5t162.5 30q92 0 163.5 -30.5t115.5 -79.5t72.5 -119t39 -141t10.5 -152q0 -79 -11.5 -148t-41 -137t-76 -116.5t-122 -78.5t-173.5 -30q-90 0 -160 28t-114 74.5t-72.5 113t-39.5 137t-11 153.5zM199 489q0 -70 6.5 -124 t25.5 -109.5t51.5 -91.5t88.5 -59t131 -23q286 0 286 410q0 62 -6 116.5t-24.5 114.5t-49 102t-83.5 69.5t-123 27.5q-71 0 -125 -26t-87 -67t-54 -99.5t-29 -116.5t-8 -124zM207 1135q21 59 64.5 98t97.5 39q47 0 144.5 -40t125.5 -40l117 80l45 -37q-21 -59 -64.5 -98 t-97.5 -39q-63 0 -151 40t-119 40l-117 -80z" />
<glyph unicode="&#xf6;" horiz-adv-x="985" d="M82 492q0 80 13.5 154t45 142.5t79 119t120 80.5t162.5 30q92 0 163.5 -30.5t115.5 -79.5t72.5 -119t39 -141t10.5 -152q0 -79 -11.5 -148t-41 -137t-76 -116.5t-122 -78.5t-173.5 -30q-90 0 -160 28t-114 74.5t-72.5 113t-39.5 137t-11 153.5zM199 489q0 -70 6.5 -124 t25.5 -109.5t51.5 -91.5t88.5 -59t131 -23q286 0 286 410q0 62 -6 116.5t-24.5 114.5t-49 102t-83.5 69.5t-123 27.5q-71 0 -125 -26t-87 -67t-54 -99.5t-29 -116.5t-8 -124zM242 1171q0 32 23.5 55t53.5 23q39 0 63 -21.5t24 -56.5q0 -33 -23 -54t-59 -21t-59 21t-23 54z M614 1171q0 32 22 55t52 23q39 0 63.5 -21.5t24.5 -56.5q0 -33 -24.5 -54t-63.5 -21q-32 0 -53 21t-21 54z" />
<glyph unicode="&#xf7;" d="M170 561v94h768v-94h-768zM467 295q0 37 25.5 61.5t62.5 24.5t62.5 -24.5t25.5 -61.5q0 -36 -26 -63t-60 -27q-36 0 -63 27t-27 63zM467 920q0 37 25.5 62.5t62.5 25.5t62.5 -25.5t25.5 -62.5t-26 -64t-60 -27q-36 0 -63 27.5t-27 63.5z" />
<glyph unicode="&#xf8;" horiz-adv-x="985" d="M74 -14l102 137q-94 126 -94 369q0 80 13.5 154t45 142.5t79 119t120 80.5t162.5 30q168 0 268 -100l72 98l67 2l-104 -141q98 -135 98 -381q0 -79 -11.5 -148t-41 -137t-76 -116.5t-122 -78.5t-173.5 -30q-169 0 -264 92l-68 -90zM199 489q0 -178 47 -272l456 612 q-73 93 -200 93q-71 0 -125 -26t-87 -67t-54 -99.5t-29 -116.5t-8 -124zM281 166q74 -84 221 -84q286 0 286 410q0 178 -55 288z" />
<glyph unicode="&#xf9;" horiz-adv-x="1120" d="M41 907v90h264v-678q0 -64 5 -101.5t23 -73.5t57 -52t102 -16q68 0 158.5 37t164.5 104v690h-147v90l256 2v-2h2l-2 -903h143l8 -67q-68 -35 -149 -35q-57 0 -83.5 25t-27.5 96l-4 2q-61 -56 -133 -89t-117 -41t-86 -8q-57 0 -102 11t-74 27t-49.5 44.5t-30.5 51t-15 60 t-6 59t-1 59.5v618h-156zM258 1382l100 82l228 -323l-60 -43z" />
<glyph unicode="&#xfa;" horiz-adv-x="1120" d="M41 907v90h264v-678q0 -64 5 -101.5t23 -73.5t57 -52t102 -16q68 0 158.5 37t164.5 104v690h-147v90l256 2v-2h2l-2 -903h143l8 -67q-68 -35 -149 -35q-57 0 -83.5 25t-27.5 96l-4 2q-61 -56 -133 -89t-117 -41t-86 -8q-57 0 -102 11t-74 27t-49.5 44.5t-30.5 51t-15 60 t-6 59t-1 59.5v618h-156zM457 1141l227 323l100 -82l-268 -284z" />
<glyph unicode="&#xfb;" horiz-adv-x="1120" d="M41 907v90h264v-678q0 -64 5 -101.5t23 -73.5t57 -52t102 -16q68 0 158.5 37t164.5 104v690h-147v90l256 2v-2h2l-2 -903h143l8 -67q-68 -35 -149 -35q-57 0 -83.5 25t-27.5 96l-4 2q-61 -56 -133 -89t-117 -41t-86 -8q-57 0 -102 11t-74 27t-49.5 44.5t-30.5 51t-15 60 t-6 59t-1 59.5v618h-156zM188 1135l306 284h79l308 -280l-39 -47l-310 202l-307 -204z" />
<glyph unicode="&#xfc;" horiz-adv-x="1120" d="M41 907v90h264v-678q0 -64 5 -101.5t23 -73.5t57 -52t102 -16q68 0 158.5 37t164.5 104v690h-147v90l256 2v-2h2l-2 -903h143l8 -67q-68 -35 -149 -35q-57 0 -83.5 25t-27.5 96l-4 2q-61 -56 -133 -89t-117 -41t-86 -8q-57 0 -102 11t-74 27t-49.5 44.5t-30.5 51t-15 60 t-6 59t-1 59.5v618h-156zM272 1171q0 32 24 55t54 23q38 0 62 -21.5t24 -56.5q0 -33 -23 -54t-59 -21t-59 21t-23 54zM645 1171q0 32 22 55t52 23q39 0 63.5 -21.5t24.5 -56.5q0 -33 -24.5 -54t-63.5 -21q-33 0 -53.5 21t-20.5 54z" />
<glyph unicode="&#xfd;" horiz-adv-x="1030" d="M33 905v92h188l213 -682l68 -227h10l74 223l194 594h-135v92h346v-92h-104l-377 -1141q-35 -109 -87.5 -155.5t-141.5 -46.5q-101 0 -213 32l20 84q132 -24 170 -24q58 0 96 31t64 112l65 203h-55l-293 905h-102zM406 1141l227 323l100 -82l-268 -284z" />
<glyph unicode="&#xfe;" horiz-adv-x="1038" d="M4 1311v90h281v-506q62 50 143 82.5t164 32.5q80 0 143 -26.5t104 -71.5t67.5 -108.5t38 -134.5t11.5 -153q0 -118 -21.5 -213t-67 -169.5t-122.5 -115.5t-182 -41q-67 0 -145.5 20t-132.5 58v-391h176v-90h-451v90h162v1647h-168zM285 156q35 -28 118 -54t154 -26 q62 0 111.5 23t89 73t61 138.5t21.5 209.5q0 210 -69.5 300.5t-201.5 90.5q-66 0 -156 -36.5t-128 -75.5v-643z" />
<glyph unicode="&#xff;" horiz-adv-x="1030" d="M33 905v92h188l213 -682l68 -227h10l74 223l194 594h-135v92h346v-92h-104l-377 -1141q-35 -109 -87.5 -155.5t-141.5 -46.5q-101 0 -213 32l20 84q132 -24 170 -24q58 0 96 31t64 112l65 203h-55l-293 905h-102zM223 1171q0 32 24 55t54 23q38 0 62 -21.5t24 -56.5 q0 -33 -23 -54t-59 -21t-59 21t-23 54zM596 1171q0 32 22 55t52 23q39 0 63.5 -21.5t24.5 -56.5q0 -33 -24.5 -54t-63.5 -21q-32 0 -53 21t-21 54z" />
<glyph unicode="&#x152;" horiz-adv-x="1576" d="M102 686q0 120 17.5 224t60 199t106.5 162.5t164 107.5t226 40q96 0 176 -22h629v-275h-99v183h-536v-523l530 13v-111l-530 8v-598h567v182h103v-276h-709q-72 -14 -131 -14q-155 0 -267 48t-178.5 141t-97.5 218.5t-31 292.5zM221 682q0 -301 109.5 -450.5 t345.5 -149.5q35 0 51 2v1237q-8 0 -25.5 1t-25.5 1q-455 0 -455 -641z" />
<glyph unicode="&#x153;" horiz-adv-x="1656" d="M82 492q0 80 13.5 154t45 142.5t79 119t120 80.5t162.5 30q252 0 348 -221q102 221 356 221q378 0 377 -464v-7v-78h-676q-4 -387 299 -387q87 0 156.5 17t161.5 57l32 -76q-167 -90 -348 -90q-273 0 -364 203q-101 -207 -365 -207q-90 0 -160 28t-114 74.5t-72.5 113 t-39.5 137t-11 153.5zM199 489q0 -70 6.5 -124t25.5 -109.5t51.5 -91.5t88.5 -59t131 -23q286 0 286 410q0 62 -6 116.5t-24.5 114.5t-49 102t-83.5 69.5t-123 27.5q-71 0 -125 -26t-87 -67t-54 -99.5t-29 -116.5t-8 -124zM909 563h564q0 172 -61.5 265.5t-205.5 93.5 q-270 0 -297 -359z" />
<glyph unicode="&#x178;" horiz-adv-x="1126" d="M20 1305v94h367v-94h-133l305 -568h8l318 568h-137v94h358v-94h-107l-378 -670v-541h167v-94h-454v94h168v535l-371 676h-111zM301 1565q0 31 24 54t54 23q39 0 62.5 -21t23.5 -56q0 -33 -23 -54.5t-59 -21.5t-59 21.5t-23 54.5zM674 1565q0 32 22 54.5t52 22.5 q39 0 63.5 -21t24.5 -56q0 -34 -25 -55t-63 -21q-32 0 -53 21t-21 55z" />
<glyph unicode="&#x2c6;" horiz-adv-x="978" d="M141 1135l305 284h80l308 -280l-39 -47l-310 202l-307 -204z" />
<glyph unicode="&#x2dc;" horiz-adv-x="978" d="M172 1135q21 59 64.5 98t97.5 39q47 0 144.5 -40t125.5 -40l117 80l45 -37q-21 -59 -64.5 -98t-97.5 -39q-63 0 -151 40t-119 40l-117 -80z" />
<glyph unicode="&#x2000;" horiz-adv-x="947" />
<glyph unicode="&#x2001;" horiz-adv-x="1894" />
<glyph unicode="&#x2002;" horiz-adv-x="947" />
<glyph unicode="&#x2003;" horiz-adv-x="1894" />
<glyph unicode="&#x2004;" horiz-adv-x="631" />
<glyph unicode="&#x2005;" horiz-adv-x="473" />
<glyph unicode="&#x2006;" horiz-adv-x="315" />
<glyph unicode="&#x2007;" horiz-adv-x="315" />
<glyph unicode="&#x2008;" horiz-adv-x="236" />
<glyph unicode="&#x2009;" horiz-adv-x="378" />
<glyph unicode="&#x200a;" horiz-adv-x="105" />
<glyph unicode="&#x2010;" horiz-adv-x="724" d="M104 481v109h514v-109h-514z" />
<glyph unicode="&#x2011;" horiz-adv-x="724" d="M104 481v109h514v-109h-514z" />
<glyph unicode="&#x2012;" horiz-adv-x="724" d="M104 481v109h514v-109h-514z" />
<glyph unicode="&#x2013;" horiz-adv-x="1024" d="M55 475v96h920v-96h-920z" />
<glyph unicode="&#x2014;" horiz-adv-x="2048" d="M55 475v96h1927v-96h-1927z" />
<glyph unicode="&#x2018;" horiz-adv-x="401" d="M109 1161q0 77 52 160t132 123l29 -37q-78 -75 -84 -176q28 -11 44.5 -34.5t16.5 -55.5q0 -36 -27 -63t-63 -27q-42 0 -71 30t-29 80z" />
<glyph unicode="&#x2019;" horiz-adv-x="401" d="M109 1087q78 75 84 177q-28 11 -45 34.5t-17 55.5q0 36 27 63t63 27q42 0 71.5 -30.5t29.5 -80.5q0 -76 -52 -159t-133 -123z" />
<glyph unicode="&#x201a;" horiz-adv-x="380" d="M76 -172q39 38 59 72.5t23 83.5q-28 9 -45 32.5t-17 53.5q0 35 26.5 61.5t63.5 26.5q41 0 69 -29.5t28 -77.5q0 -72 -50.5 -146.5t-128.5 -113.5z" />
<glyph unicode="&#x201c;" horiz-adv-x="626" d="M109 1161q0 77 52 160t132 123l29 -37q-78 -75 -84 -176q28 -11 44.5 -34.5t16.5 -55.5q0 -36 -27 -63t-63 -27q-42 0 -71 30t-29 80zM344 1161q0 77 52 160t132 123l29 -37q-78 -75 -84 -176q28 -11 45 -34.5t17 -55.5q0 -35 -27.5 -62.5t-63.5 -27.5q-42 0 -71 30 t-29 80z" />
<glyph unicode="&#x201d;" horiz-adv-x="626" d="M111 1087q78 75 84 177q-28 11 -45 34.5t-17 55.5q0 36 27 63t63 27q42 0 71.5 -30.5t29.5 -80.5q0 -76 -52 -159t-133 -123zM346 1087q78 75 84 177q-28 11 -44.5 34.5t-16.5 55.5q0 36 27 63t63 27q42 0 71 -30.5t29 -80.5q0 -77 -52 -159.5t-132 -122.5z" />
<glyph unicode="&#x201e;" horiz-adv-x="600" d="M76 -172q39 38 59 72.5t23 83.5q-28 9 -45 32.5t-17 53.5q0 35 26.5 61.5t63.5 26.5q41 0 69 -29.5t28 -77.5q0 -72 -50.5 -146.5t-128.5 -113.5zM309 -172q39 38 59 72.5t23 83.5q-28 9 -44.5 32t-16.5 54q0 35 26.5 61.5t63.5 26.5q41 0 68.5 -29.5t27.5 -77.5 q0 -72 -50 -146.5t-128 -113.5z" />
<glyph unicode="&#x2022;" horiz-adv-x="589" d="M94 565q0 83 59.5 143t139.5 60q82 0 141.5 -60t59.5 -143q0 -82 -59.5 -141t-141.5 -59q-80 0 -139.5 59.5t-59.5 140.5z" />
<glyph unicode="&#x2026;" horiz-adv-x="1191" d="M90 70q0 35 25.5 60.5t62.5 25.5t62.5 -25.5t25.5 -60.5q0 -36 -26 -63t-60 -27q-37 0 -63.5 26.5t-26.5 63.5zM494 70q0 35 25.5 60.5t62.5 25.5t62.5 -25.5t25.5 -60.5q0 -36 -26 -63t-60 -27q-37 0 -63.5 26.5t-26.5 63.5zM928 70q0 35 25.5 60.5t62.5 25.5 t62.5 -25.5t25.5 -60.5q0 -36 -26 -63t-60 -27q-37 0 -63.5 26.5t-26.5 63.5z" />
<glyph unicode="&#x202f;" horiz-adv-x="378" />
<glyph unicode="&#x2039;" horiz-adv-x="614" d="M133 338v80l281 307l47 -39l-203 -309l205 -307l-45 -37z" />
<glyph unicode="&#x203a;" horiz-adv-x="614" d="M131 70l205 307l-203 309l47 39l281 -307v-80l-285 -305z" />
<glyph unicode="&#x205f;" horiz-adv-x="473" />
<glyph unicode="&#x20ac;" d="M70 559v76h843v-76h-639q6 -84 21 -151.5t47 -130t80 -104t122.5 -66.5t170.5 -25q116 0 252 29v147h90v-213q-61 -25 -165 -42t-192 -17q-258 0 -392.5 151.5t-143.5 421.5h-94zM70 735v76h100q7 80 29 155.5t65.5 150.5t102.5 130.5t147.5 90t194.5 34.5q186 0 323 -53 v-244h-92v170q-104 33 -227 33q-191 0 -298.5 -123t-133.5 -344h632v-76h-843z" />
<glyph unicode="&#x2122;" horiz-adv-x="1458" d="M72 1231v168h510v-168h-64v100h-151v-520h88v-61h-260v61h84v520h-142v-100h-65zM639 748v63h72v518h-72v70h162l215 -459l223 459h158v-70h-72v-518h72v-63h-226v63h72v426h-4l-192 -385h-66l-186 373h-2v-414h73v-63h-227z" />
<glyph unicode="&#x25fc;" horiz-adv-x="993" d="M0 0v993h993v-993h-993z" />
</font>
</defs>
</svg>
