<svg baseProfile="tiny" xmlns="http://www.w3.org/2000/svg" preserveAspectRatio="xMinYMin meet" viewBox="0 0 100 50" width="100" height="50"><path fill="#333" d="M20.682 3.732C20.21 3.26 19.582 3 18.914 3s-1.295.26-1.77.733l-1.41 1.412c-.473.472-.734 1.1-.734 1.77 0 .47.13.92.37 1.312l-13.576 5.44c-.908.398-1.56 1.217-1.742 2.188-.185.977.125 1.98.834 2.687l12.72 12.58c.548.548 1.276.86 2.045.877h.08c.2 0 .407-.02.61-.063.994-.206 1.808-.893 2.177-1.828l5.342-13.377c.4.265.874.407 1.366.407.67 0 1.297-.26 1.768-.732L28.4 15c.477-.474.738-1.103.738-1.773s-.262-1.3-.732-1.768l-7.724-7.73zM16.66 29.367c-.125.313-.398.544-.728.612-.076.014-.153.02-.23.02-.253-.007-.498-.11-.68-.293L2.29 17.12c-.233-.233-.336-.567-.274-.893.06-.324.28-.598.582-.73l6.217-2.49c4.19 1.393 8.38.05 12.57 4.522L16.66 29.365zM26.99 13.58l-1.414 1.413c-.195.196-.512.196-.707 0L23.1 13.226l-1.432 3.59.12-.304c-3.01-3.005-6.07-3.384-8.83-3.723-.886-.11-1.746-.225-2.59-.407l8.49-3.4-1.715-1.716c-.195-.195-.195-.512 0-.707l1.414-1.414c.193-.195.51-.195.705 0l7.725 7.727c.2.195.2.512.002.707zM16.5 21c1.378 0 2.5-1.12 2.5-2.5S17.88 16 16.5 16 14 17.12 14 18.5s1.122 2.5 2.5 2.5zm0-4c.828 0 1.5.672 1.5 1.5s-.672 1.5-1.5 1.5c-.83 0-1.5-.672-1.5-1.5s.67-1.5 1.5-1.5zm13-17C28.12 0 27 1.12 27 2.5S28.12 5 29.5 5 32 3.88 32 2.5 30.88 0 29.5 0zm0 4c-.828 0-1.5-.672-1.5-1.5S28.672 1 29.5 1s1.5.672 1.5 1.5S30.328 4 29.5 4zM8 17c0 1.103.897 2 2 2s2-.897 2-2-.897-2-2-2-2 .897-2 2zm2-1c.552 0 1 .447 1 1s-.448 1-1 1-1-.447-1-1 .448-1 1-1zm2 7c0-.552.448-1 1-1s1 .448 1 1-.448 1-1 1-1-.448-1-1zM28 8c0-.552.448-1 1-1s1 .448 1 1-.448 1-1 1-1-.448-1-1z"/><g transform="translate(50)"><path fill="#333" d="M17.74 23.03c-2.562 1.19-4.943 1.178-6.543 1.062-1.908-.138-3.442-.66-4.117-1.117-.416-.28-.98-.173-1.262.243s-.173.98.243 1.262c1.086.734 3.004 1.28 5.007 1.424.34.024.712.04 1.114.04 1.744 0 3.958-.166 6.327-1.268.455-.212.652-.752.44-1.207s-.75-.654-1.207-.443zm10.1-1.35c.087-7.896.9-22.82-14.218-21.613C-1.3 1.27 2.656 17.037 2.434 22.317 2.237 25.11 1.31 28.524 0 32h4.034c.415-1.473.72-2.93.85-4.317.244.17.504.334.782.49.452.267.84.62 1.25.996.962.874 2.05 1.866 4.18 1.99.143.01.287.012.427.012 2.153 0 3.625-.942 4.81-1.7.566-.362 1.056-.675 1.517-.826 1.31-.41 2.454-1.072 3.31-1.914.133-.13.257-.267.373-.405.476 1.746 1.13 3.71 1.853 5.672H32c-2.068-3.196-4.2-6.325-4.158-10.32zM3.878 17.386c-.148-2.578 1.085-4.746 2.754-4.843s3.142 1.913 3.29 4.49c.01.14.012.277.013.414-.53.133-1.006.326-1.434.55 0-.018 0-.037-.003-.056-.143-1.462-.924-2.566-1.745-2.466s-1.37 1.367-1.227 2.83c.062.64.246 1.208.5 1.64-.063.05-.242.182-.45.333l-.57.42c-.622-.815-1.048-1.987-1.124-3.31zm16.91 6.37c-.058 1.362-1.84 2.643-3.486 3.158l-.01.003c-.683.222-1.294.613-1.94 1.026-1.085.695-2.208 1.413-3.83 1.413-.105 0-.214-.003-.322-.01-1.485-.086-2.18-.72-3.06-1.52-.463-.423-.942-.86-1.56-1.223l-.014-.008c-1.335-.753-2.163-1.69-2.216-2.506-.026-.408.154-.76.537-1.046.832-.624 1.39-1.032 1.76-1.302.41-.3.532-.39.624-.477.068-.062.138-.13.215-.205.764-.742 2.043-1.985 4.005-1.985 1.2 0 2.527.462 3.942 1.372.666.434 1.246.634 1.98.887.506.174 1.078.372 1.844.7l.012.005c.715.292 1.56.83 1.52 1.715zm-.393-3.2c-.137-.07-.28-.135-.43-.196-.69-.296-1.245-.496-1.704-.656.256-.497.413-1.116.428-1.79.035-1.637-.79-2.966-1.844-2.968s-1.936 1.322-1.97 2.96c-.002.054-.002.107-.002.16-.648-.3-1.286-.515-1.91-.65l-.008-.184v-.002c-.06-2.982 1.77-5.45 4.086-5.513s4.245 2.303 4.305 5.285v.002c.027 1.348-.333 2.59-.95 3.552z"/></g></svg>