<?xml version="1.0" standalone="no"?>
<!DOCTYPE svg PUBLIC "-//W3C//DTD SVG 1.1//EN" "http://www.w3.org/Graphics/SVG/1.1/DTD/svg11.dtd" >
<svg xmlns="http://www.w3.org/2000/svg">
<metadata></metadata>
<defs>
<font id="sapientsansregularregular" horiz-adv-x="1034" >
<font-face units-per-em="2048" ascent="1638" descent="-410" />
<missing-glyph horiz-adv-x="458" />
<glyph horiz-adv-x="0" />
<glyph unicode="&#xd;" horiz-adv-x="458" />
<glyph unicode=" "  horiz-adv-x="458" />
<glyph unicode="&#x09;" horiz-adv-x="458" />
<glyph unicode="&#xa0;" horiz-adv-x="458" />
<glyph unicode="!" horiz-adv-x="595" d="M240 0v172h176v-172h-176zM244 1458h170l-23 -1048h-127z" />
<glyph unicode="&#x22;" horiz-adv-x="815" d="M154 1110v348h161v-348h-161zM498 1110v348h161v-348h-161z" />
<glyph unicode="#" horiz-adv-x="1286" d="M131 465v131h205l47 289h-188v135h206l70 440h154l-72 -440h326l69 440h150l-70 -440h178v-135h-196l-47 -289h182v-131h-203l-74 -465h-151l74 465h-328l-72 -465h-151l73 465h-182zM485 596h326l47 289h-326z" />
<glyph unicode="$" horiz-adv-x="1169" d="M59 180l107 107q150 -150 352 -158v543l-41 4q-158 16 -268.5 112.5t-110.5 270.5t110.5 284.5t301.5 124.5v183h123v-183q217 -10 381 -157l-101 -101q-125 113 -286 123v-530l63 -10q178 -29 264 -103q125 -107 125 -289q0 -176 -120.5 -285.5t-325.5 -123.5v-225h-123 v221q-270 12 -451 192zM252 1065q0 -113 65 -168q72 -62 201 -80v516q-127 -10 -196.5 -81.5t-69.5 -186.5zM627 129q139 10 218 80.5t79 187.5q0 119 -72 183q-45 39 -107 55q-25 6 -118 20v-526z" />
<glyph unicode="%" horiz-adv-x="1654" d="M106 981v215q0 125 78 201t199 76t198.5 -76t77.5 -201v-215q0 -123 -77.5 -198.5t-198.5 -75.5t-199 75.5t-78 198.5zM223 985q0 -176 160 -176t160 176v207q0 178 -160 178t-160 -178v-207zM424 0l684 1458h123l-684 -1458h-123zM995 262v215q0 125 78 201t199 76 t198.5 -76t77.5 -201v-215q0 -125 -77.5 -200.5t-198.5 -75.5t-199 75.5t-78 200.5zM1112 266q0 -178 160 -178t160 178v207q0 178 -160 178t-160 -178v-207z" />
<glyph unicode="&#x26;" horiz-adv-x="1462" d="M131 412q0 147 98 260q61 72 217 176q-76 92 -106 141q-51 90 -51 176q0 131 91 218t230 87q137 0 227.5 -88t90.5 -219q0 -150 -162 -260q-37 -25 -109 -74l373 -448q80 121 82 334h148q-4 -289 -136 -447l224 -268h-195l-131 160q-184 -172 -430 -172 q-211 0 -336 115.5t-125 308.5zM283 416q0 -129 86 -210t221 -81q186 0 344 141l-402 484q-127 -88 -172 -138q-78 -86 -77 -196zM442 1167q0 -80 131 -239q23 14 78 53q131 90 131 182q0 74 -49 124t-123 50t-121 -48t-47 -122z" />
<glyph unicode="'" horiz-adv-x="471" d="M154 1110v348h161v-348h-161z" />
<glyph unicode="(" horiz-adv-x="559" d="M162 195v1069q0 133 43 211q35 63 147 176l101 -101q-53 -53 -64 -63q-29 -35 -47 -70q-33 -66 -33 -166v-1044q0 -100 33 -166q23 -45 111 -133l-101 -101q-63 63 -84 89q-39 43 -63 88q-43 80 -43 211z" />
<glyph unicode=")" horiz-adv-x="559" d="M100 -88q61 61 64 63q33 35 49 70q29 57 29 162v1044q0 104 -29 162q-20 41 -113 133l105 105q63 -63 84 -88q39 -43 63 -88q41 -76 41 -211v-1069q0 -135 -41 -211q-35 -63 -147 -177z" />
<glyph unicode="*" horiz-adv-x="919" d="M111 967l245 133l-245 135l59 98l238 -145l-9 280h119l-8 -280l240 145l57 -98l-246 -135l246 -133l-57 -101l-240 146l8 -281h-119l9 281l-238 -146z" />
<glyph unicode="+" horiz-adv-x="1017" d="M80 479v137h360v357h138v-357h358v-137h-358v-360h-138v360h-360z" />
<glyph unicode="," horiz-adv-x="489" d="M154 180h180v-313l-180 -162v475z" />
<glyph unicode="-" horiz-adv-x="821" d="M129 483v138h561v-138h-561z" />
<glyph unicode="." horiz-adv-x="501" d="M154 0v193h192v-193h-192z" />
<glyph unicode="/" horiz-adv-x="675" d="M-27 -152l584 1762h145l-583 -1762h-146z" />
<glyph unicode="0" horiz-adv-x="1138" d="M170 389v680q0 178 113.5 289.5t285.5 111.5t286 -111.5t114 -289.5v-680q0 -178 -114 -289.5t-286 -111.5t-285.5 111.5t-113.5 289.5zM317 397q0 -123 67 -200.5t185 -77.5q119 0 185.5 77.5t66.5 200.5v664q0 123 -66.5 200.5t-185.5 77.5t-185.5 -77.5t-66.5 -200.5 v-664z" />
<glyph unicode="1" horiz-adv-x="811" d="M133 1055v168l273 235h147v-1458h-147v1294z" />
<glyph unicode="2" horiz-adv-x="1095" d="M143 0v131l576 731q82 104 82 215q0 119 -67.5 190.5t-186.5 71.5q-111 0 -178 -61q-76 -70 -76 -203h-148q0 174 111 284.5t291 110.5t290.5 -107.5t110.5 -285.5q0 -145 -117 -295l-509 -651h626v-131h-805z" />
<glyph unicode="3" horiz-adv-x="1120" d="M113 371h147q8 -129 92 -195q74 -59 189 -59q121 0 200.5 75.5t79.5 206.5q0 283 -286 283h-31v129h31q260 0 260 264q0 127 -72 196.5t-182 69.5q-115 0 -183.5 -65.5t-78.5 -177.5h-148q12 174 129 276q111 98 281 99q178 0 289.5 -109t111.5 -287q0 -233 -197 -323 q224 -85 224 -357q0 -195 -125 -307q-117 -104 -303 -104q-182 0 -295 94q-125 100 -133 291z" />
<glyph unicode="4" horiz-adv-x="1075" d="M86 231v134l526 1093h158l-526 -1093h424v413h145v-413h178v-134h-178v-231h-145v231h-582z" />
<glyph unicode="5" horiz-adv-x="1134" d="M176 344h148q29 -227 247 -227q113 0 181 67q80 80 79 297q0 354 -245 355q-195 0 -242 -144h-133v766h737v-131h-604v-463q90 100 262 101q160 0 252 -93q121 -121 121 -391t-117 -387q-109 -109 -291 -108q-190 0 -292 104q-90 90 -103 254z" />
<glyph unicode="6" horiz-adv-x="1044" d="M113 408q0 141 92 327l358 723h152l-326 -655q68 31 154 31q170 0 274.5 -116t104.5 -298q0 -188 -111 -310t-293 -122q-184 0 -294.5 114.5t-110.5 305.5zM260 414q0 -133 69.5 -214t186.5 -81t187.5 81t70.5 214q0 127 -65 209q-72 86 -193 86q-117 0 -186.5 -80 t-69.5 -215z" />
<glyph unicode="7" horiz-adv-x="995" d="M135 1098v360h809v-131l-506 -1327h-155l505 1327h-507v-229h-146z" />
<glyph unicode="8" horiz-adv-x="1146" d="M143 401q0 229 219 355q-190 109 -190 323q0 170 113.5 280.5t287.5 110.5t288 -110.5t114 -280.5q0 -215 -189 -323q218 -124 218 -355q0 -182 -123 -297.5t-308 -115.5q-184 0 -307 115.5t-123 297.5zM291 403q0 -121 81 -202.5t201 -81.5q121 0 202 81.5t81 202.5 t-81 203t-202 82t-201.5 -82t-80.5 -203zM319 1077q0 -115 71 -187.5t183 -72.5q113 0 183.5 72.5t70.5 187.5t-70.5 188.5t-183.5 73.5t-183.5 -73.5t-70.5 -188.5z" />
<glyph unicode="9" horiz-adv-x="1044" d="M123 1038q0 188 110.5 310t292.5 122q184 0 295 -114.5t111 -304.5q0 -141 -92 -328l-359 -723h-153l327 655q-68 -31 -155 -30q-168 0 -272.5 115.5t-104.5 297.5zM270 1044q0 -127 68 -210.5t188 -83.5q117 0 187.5 79.5t70.5 214.5q0 133 -70.5 214t-187.5 81 t-186.5 -80.5t-69.5 -214.5z" />
<glyph unicode=":" horiz-adv-x="557" d="M209 0v193h192v-193h-192zM209 616v193h192v-193h-192z" />
<glyph unicode=";" horiz-adv-x="557" d="M209 616v193h192v-193h-192zM213 180h180v-313l-180 -162v475z" />
<glyph unicode="&#x3c;" horiz-adv-x="2052" d="M86 551l817 817h193l-748 -745h1616v-144h-1616l748 -745h-193z" />
<glyph unicode="=" horiz-adv-x="1017" d="M80 309v135h856v-135h-856zM80 655v138h856v-138h-856z" />
<glyph unicode="&#x3e;" horiz-adv-x="2052" d="M86 479v144h1616l-748 745h193l817 -817l-817 -817h-193l748 745h-1616z" />
<glyph unicode="?" horiz-adv-x="966" d="M129 1096q0 158 110.5 266t274.5 108t273.5 -105t109.5 -267q0 -115 -92 -248l-168 -242q-37 -53 -37 -119v-79h-147v82q0 100 63 192l166 240q68 98 68 174q0 104 -67 172.5t-169 68.5q-106 0 -172 -71.5t-66 -171.5h-147zM438 0v172h176v-172h-176z" />
<glyph unicode="@" horiz-adv-x="1599" d="M164 172q0 -168 119.5 -288t289.5 -120h455q254 0 369 234l-140 33q-72 -131 -223 -131h-463q-109 0 -188.5 79.5t-79.5 188.5v762q0 109 80 188.5t188 79.5h463q109 0 186.5 -78t77.5 -186v-565q0 -119 -77 -119q-78 0 -78 119v594h-135v-89q-88 102 -236 103 q-158 0 -248 -113q-80 -100 -80 -319q0 -207 76 -307q84 -113 252 -113q145 0 238 108q23 -47 78 -80.5t126 -33.5q90 0 156 52t66 140v604q0 170 -119 289t-289 119h-455q-170 0 -289.5 -120t-119.5 -288v-743zM584 545q0 145 37 215q47 94 174 94t174 -94q37 -70 37 -215 q0 -150 -39 -217q-49 -82 -172 -82t-172 82q-39 68 -39 217z" />
<glyph unicode="A" horiz-adv-x="1200" d="M-2 0l537 1458h131l534 -1458h-166l-116 330h-637l-117 -330h-166zM328 465h544l-270 770z" />
<glyph unicode="B" horiz-adv-x="1316" d="M184 0v1458h549q193 0 311.5 -104.5t118.5 -284.5q0 -113 -60.5 -199t-154.5 -120q238 -89 238 -347q0 -195 -118 -299t-316 -104h-568zM340 139h397q135 0 214 73t79 196t-79 194.5t-214 71.5h-397v-535zM340 813h381q127 0 207 64.5t80 189.5t-79 188.5t-208 63.5h-381 v-506z" />
<glyph unicode="C" horiz-adv-x="1253" d="M129 729q0 268 16 361q27 135 121 229q151 151 370 151h3q199 0 334 -114.5t172 -319.5h-160q-29 135 -120 215t-226 80q-152 0 -252 -102q-66 -68 -86 -170q-16 -90 -16 -330t16 -330q20 -102 86 -170q100 -102 252 -102q135 0 228.5 80t121.5 215h156 q-35 -203 -172 -318.5t-334 -115.5q-221 0 -373 151q-94 94 -121 230q-16 92 -16 360z" />
<glyph unicode="D" horiz-adv-x="1327" d="M184 0v1458h500q233 0 369 -135q100 -100 129 -270q14 -89 14 -308q0 -229 -14 -323q-29 -186 -129 -287q-135 -135 -369 -135h-500zM340 139h317q184 0 287 107q66 68 86 221q10 81 10 278q0 188 -10 263q-18 135 -86 204q-102 106 -287 107h-317v-1180z" />
<glyph unicode="E" horiz-adv-x="1177" d="M184 0v1458h906v-139h-750v-514h639v-139h-639v-527h750v-139h-906z" />
<glyph unicode="F" horiz-adv-x="1136" d="M184 0v1458h906v-139h-750v-537h639v-139h-639v-643h-156z" />
<glyph unicode="G" horiz-adv-x="1280" d="M129 729q0 268 16 361q27 135 121 229q151 151 370 151h3q205 0 344 -122q133 -117 166 -314h-156q-31 139 -125 218t-229 79q-150 0 -252 -104q-66 -68 -86 -170q-16 -88 -16 -328t16 -330q20 -102 86 -170q100 -102 252 -102q174 0 276 125q82 98 82 264v111h-358v137 h514v-232q0 -242 -125 -376q-156 -168 -389 -168q-221 0 -373 151q-94 94 -121 230q-16 92 -16 360z" />
<glyph unicode="H" horiz-adv-x="1374" d="M184 0v1458h156v-653h692v653h156v-1458h-156v666h-692v-666h-156z" />
<glyph unicode="I" horiz-adv-x="526" d="M184 0v1458h156v-1458h-156z" />
<glyph unicode="J" horiz-adv-x="974" d="M20 119l105 104q96 -96 229 -96q143 0 221 87t78 249v995h156v-1016q0 -209 -126 -331.5t-329 -122.5t-334 131z" />
<glyph unicode="K" horiz-adv-x="1280" d="M184 0v1458h156v-837l680 837h190l-458 -563l524 -895h-184l-445 776l-307 -368v-408h-156z" />
<glyph unicode="L" horiz-adv-x="1122" d="M184 0v1458h156v-1319h745v-139h-901z" />
<glyph unicode="M" horiz-adv-x="1619" d="M184 0v1458h156l475 -1034l463 1034h156v-1458h-156v1108l-399 -879h-134l-405 879v-1108h-156z" />
<glyph unicode="N" horiz-adv-x="1447" d="M184 0v1458h148l774 -1165v1165h156v-1458h-148l-774 1169v-1169h-156z" />
<glyph unicode="O" horiz-adv-x="1280" d="M129 729q0 268 16 361q27 135 121 229q151 151 370 151h3q221 0 373 -151q94 -94 121 -229q16 -93 16 -361t-16 -360q-27 -135 -121 -230q-151 -151 -370 -151h-3q-221 0 -373 151q-94 94 -121 230q-16 92 -16 360zM285 729q0 -240 16 -328q20 -102 86 -170 q102 -104 252 -104t252 104q66 68 86 170q16 88 16 328t-16 328q-20 102 -86 170q-102 104 -252 104t-252 -104q-66 -68 -86 -170q-16 -88 -16 -328z" />
<glyph unicode="P" horiz-adv-x="1239" d="M184 0v1458h543q201 0 326 -116.5t125 -311.5t-125 -312.5t-326 -117.5h-387v-600h-156zM340 739h373q141 0 225 75t84 216t-84 215t-225 74h-373v-580z" />
<glyph unicode="Q" horiz-adv-x="1277" d="M129 729q0 268 16 361q27 135 121 229q151 151 370 151h3q221 0 373 -151q94 -94 121 -229q16 -92 16 -361q0 -244 -12 -332q-18 -129 -88 -215l159 -159l-94 -95l-162 162q-133 -102 -313 -102q-221 0 -373 151q-94 94 -121 230q-16 92 -16 360zM285 729q0 -240 16 -328 q20 -102 86 -170q102 -104 252 -104q115 0 207 70l-184 184l94 94l178 -178q37 61 49 162q10 80 10 270q0 240 -16 328q-20 102 -86 170q-102 104 -252 104t-252 -104q-66 -68 -86 -170q-16 -88 -16 -328z" />
<glyph unicode="R" horiz-adv-x="1292" d="M184 0v1458h559q193 0 313 -109.5t120 -295.5q0 -156 -86 -258.5t-232 -132.5l346 -662h-182l-332 647h-350v-647h-156zM340 784h389q133 0 212 69t79 198t-80 198.5t-211 69.5h-389v-535z" />
<glyph unicode="S" horiz-adv-x="1153" d="M59 180l107 107q160 -160 397 -160q160 0 252 71.5t92 198.5q0 121 -69 183q-55 49 -191 69l-170 27q-379 59 -379 383q0 186 126 298.5t341 112.5q256 0 434 -159l-100 -101q-137 125 -340 125q-143 0 -225 -73.5t-82 -196.5q0 -111 67.5 -169t194.5 -79l160 -24 q178 -27 266 -103q123 -105 123 -289q0 -190 -137.5 -301.5t-366.5 -111.5q-307 0 -500 192z" />
<glyph unicode="T" horiz-adv-x="1071" d="M35 1319v139h999v-139h-422v-1319h-155v1319h-422z" />
<glyph unicode="U" horiz-adv-x="1347" d="M164 481v977h155v-964q0 -166 96.5 -266.5t256.5 -100.5t257 100.5t97 266.5v964h156v-977q0 -217 -144.5 -355t-365.5 -138t-364.5 138t-143.5 355z" />
<glyph unicode="V" horiz-adv-x="1067" d="M-10 1458h164l378 -1179l379 1179h164l-479 -1458h-127z" />
<glyph unicode="W" horiz-adv-x="1697" d="M6 1458h166l285 -1175l321 1175h140l321 -1175l285 1175h166l-373 -1458h-146l-323 1167l-324 -1167h-145z" />
<glyph unicode="X" horiz-adv-x="1077" d="M4 0l447 748l-418 710h180l324 -575l323 575h180l-419 -710l450 -748h-180l-354 612l-357 -612h-176z" />
<glyph unicode="Y" horiz-adv-x="1001" d="M-10 1458h168l344 -698l340 698h168l-430 -856v-602h-156v602z" />
<glyph unicode="Z" horiz-adv-x="1087" d="M90 0v147l729 1172h-700v139h876v-131l-735 -1188h735v-139h-905z" />
<glyph unicode="[" horiz-adv-x="589" d="M162 -152v1762h362v-131h-215v-1499h215v-132h-362z" />
<glyph unicode="\" horiz-adv-x="675" d="M-27 1604h146l581 -1756h-145z" />
<glyph unicode="]" horiz-adv-x="589" d="M63 -25h222v1508h-222v127h363v-1762h-363v127z" />
<glyph unicode="^" horiz-adv-x="1048" d="M121 846l336 624h135l334 -624h-152l-250 467l-252 -467h-151z" />
<glyph unicode="_" horiz-adv-x="1048" d="M-27 -233h1100v-105h-1100v105z" />
<glyph unicode="`" horiz-adv-x="972" d="M229 1530h177l180 -313h-135z" />
<glyph unicode="a" horiz-adv-x="1026" d="M78 285q0 135 91 212.5t257 77.5h303v97q0 221 -258 221q-172 0 -254 -115l-100 92q66 84 151 119q78 31 205 31q403 0 404 -336v-684h-148v96q-108 -108 -288 -108h-3q-195 0 -284 92q-76 78 -76 205zM221 287q0 -172 232 -172q156 0 225 67q51 49 51 174v109h-283 q-225 0 -225 -178z" />
<glyph unicode="b" horiz-adv-x="1064" d="M158 0v1458h147v-567q100 129 285 129q158 0 246 -88q122 -123 122 -428t-122 -428q-88 -88 -246 -88q-182 0 -285 133v-121h-147zM305 504q0 -178 45 -266q59 -119 209 -119t209 119q43 88 43 266t-43 266q-59 119 -209 119t-209 -119q-45 -88 -45 -266z" />
<glyph unicode="c" horiz-adv-x="952" d="M102 504q0 250 129 387q119 129 318 129q106 0 180 -33t152 -117l-101 -94q-102 113 -231 113q-152 0 -234 -115q-65 -91 -65 -265v-5q0 -178 65 -271q81 -114 231 -114h3q127 0 231 114l101 -96q-78 -84 -152 -116.5t-180 -32.5q-199 0 -318 129q-129 137 -129 387z" />
<glyph unicode="d" horiz-adv-x="1064" d="M104 504q0 305 123 428q88 88 246 88q184 0 285 -129v567h147v-1458h-145v121q-102 -133 -287 -133q-158 0 -246 88q-123 123 -123 428zM252 504q0 -178 45 -266q59 -119 209 -119t209 119q43 88 43 266t-43 266q-59 119 -209 119t-209 -119q-45 -88 -45 -266z" />
<glyph unicode="e" d="M102 504q0 244 111 380t303 136q195 0 304.5 -131t109.5 -357v-67h-680q0 -166 76.5 -257t220.5 -91q150 0 264 114l100 -88q-82 -82 -157 -116q-88 -39 -211 -39q-207 0 -320 125q-121 131 -121 391zM250 575h532q-6 106 -30 168q-63 152 -236 152q-172 0 -235 -152 q-25 -61 -31 -168z" />
<glyph unicode="f" horiz-adv-x="591" d="M61 889v112h129v191q0 119 64 190q70 80 192 80h107v-127h-80q-135 0 -135 -147v-187h215v-112h-215v-889h-148v889h-129z" />
<glyph unicode="g" horiz-adv-x="1060" d="M104 512q0 297 123 420q88 88 246 88q182 0 283 -131v119h145v-1039q0 -190 -112.5 -311t-307.5 -121q-111 0 -185.5 31t-156.5 104l97 95q61 -55 104 -76q55 -25 137 -25q139 0 211 90q66 82 66 219v158q-102 -131 -283 -131q-154 0 -244 90q-123 123 -123 420zM252 512 q0 -172 43 -258q59 -119 209 -119t207 119q43 86 43 258t-43 260q-57 117 -207 117t-209 -117q-43 -88 -43 -260z" />
<glyph unicode="h" horiz-adv-x="1099" d="M158 0v1458h147v-561q109 123 283 123q170 0 266 -100.5t96 -272.5v-647h-147v623q0 266 -246 266q-117 0 -184.5 -68.5t-67.5 -197.5v-623h-147z" />
<glyph unicode="i" horiz-adv-x="466" d="M150 1294v166h165v-166h-165zM158 0v1008h147v-1008h-147z" />
<glyph unicode="j" horiz-adv-x="466" d="M-57 -324h80q135 0 135 148v1177h147v-1183q0 -121 -61 -193q-68 -78 -195 -78h-106v129zM150 1294v166h165v-166h-165z" />
<glyph unicode="k" horiz-adv-x="1046" d="M158 0v1458h147v-975l455 525h184l-342 -385l402 -623h-183l-319 516l-197 -225v-291h-147z" />
<glyph unicode="l" horiz-adv-x="557" d="M154 268v1190h147v-1184q0 -147 135 -147h80v-127h-106q-127 0 -191.5 73.5t-64.5 194.5z" />
<glyph unicode="m" horiz-adv-x="1748" d="M158 0v1008h147v-111q109 123 285 123q215 0 309 -168q119 168 332 168q164 0 260 -94q109 -104 108 -281v-645h-147v621q0 268 -248 268q-113 0 -182.5 -67.5t-69.5 -184.5v-637h-147v621q0 268 -248 268q-117 0 -184.5 -69.5t-67.5 -198.5v-621h-147z" />
<glyph unicode="n" horiz-adv-x="1099" d="M158 0v1008h147v-111q109 123 283 123q162 0 258 -94q104 -102 104 -281v-645h-147v621q0 268 -248 268q-117 0 -183.5 -69.5t-66.5 -198.5v-621h-147z" />
<glyph unicode="o" d="M104 504q0 276 123 401q113 115 289 115t289 -115q123 -125 123 -401t-123 -402q-112 -114 -286 -114h-3q-176 0 -289 114q-123 125 -123 402zM252 504q0 -229 82 -311q74 -74 182 -74q111 0 187.5 77t76.5 308t-80 311q-74 74 -184 74q-109 0 -182 -74q-82 -82 -82 -311 z" />
<glyph unicode="p" horiz-adv-x="1064" d="M158 -451v1459h147v-119q100 131 285 131q158 0 246 -88q122 -123 122 -428t-122 -428q-88 -88 -246 -88q-182 0 -285 131v-570h-147zM305 504q0 -178 45 -266q59 -119 209 -119t209 119q43 88 43 266t-43 266q-59 119 -209 119t-209 -119q-45 -88 -45 -266z" />
<glyph unicode="q" horiz-adv-x="1064" d="M104 504q0 305 123 428q88 88 246 88q186 0 287 -131v119h145v-1459h-147v570q-102 -131 -285 -131q-158 0 -246 88q-123 123 -123 428zM252 504q0 -178 45 -266q59 -119 209 -119t209 119q43 88 43 266t-43 266q-59 119 -209 119t-209 -119q-45 -88 -45 -266z" />
<glyph unicode="r" horiz-adv-x="811" d="M158 0v1008h147v-123q88 135 283 135q147 0 241 -94l-108 -111q-74 74 -174 74q-109 0 -175.5 -77t-66.5 -194v-618h-147z" />
<glyph unicode="s" horiz-adv-x="964" d="M61 133l99 98q110 -116 310 -116h3q268 0 268 178q0 133 -168 147l-165 15q-301 27 -302 270q0 135 103.5 215t267.5 80q229 0 363 -109l-97 -96q-104 80 -268 80q-225 0 -225 -166q0 -131 176 -147l162 -15q297 -26 297 -272q0 -143 -111.5 -225t-298.5 -82 q-262 0 -414 145z" />
<glyph unicode="t" horiz-adv-x="628" d="M55 889v112h127v316h148v-316h215v-112h-215v-615q0 -147 137 -147h78v-127h-105q-125 0 -192 80q-66 72 -66 190v619h-127z" />
<glyph unicode="u" horiz-adv-x="1099" d="M147 365v643h148v-621q0 -268 246 -268q117 0 184.5 69.5t67.5 198.5v621h147v-1008h-145v113q-109 -125 -285 -125q-164 0 -260 94q-102 100 -103 283z" />
<glyph unicode="v" horiz-adv-x="864" d="M-4 1008h160l274 -809l277 809h159l-370 -1008h-131z" />
<glyph unicode="w" horiz-adv-x="1431" d="M-4 1008h160l231 -809l264 809h127l266 -809l230 809h160l-318 -1008h-137l-264 782l-262 -782h-138z" />
<glyph unicode="x" horiz-adv-x="927" d="M41 0l342 514l-328 494h178l232 -373l227 373h178l-327 -494l342 -514h-178l-242 391l-246 -391h-178z" />
<glyph unicode="y" horiz-adv-x="864" d="M-4 1008h160l276 -809l275 809h159l-458 -1252q-29 -78 -72 -118q-74 -70 -197 -70h-63v131h45q74 0 106.5 26.5t59.5 98.5l71 196z" />
<glyph unicode="z" horiz-adv-x="888" d="M76 0v127l561 750h-531v131h701v-125l-563 -752h563v-131h-731z" />
<glyph unicode="{" horiz-adv-x="673" d="M72 664v131h53q55 0 92 36.5t37 122.5v392q0 141 61.5 202.5t206.5 61.5h76v-131h-47q-117 0 -137 -54q-12 -31 -13 -106v-385q0 -143 -129 -205q129 -61 129 -205v-385q0 -115 39 -141q27 -18 111 -18h47v-132h-76q-145 0 -206.5 61.5t-61.5 203.5v391q0 86 -37 123 t-92 37h-53z" />
<glyph unicode="|" horiz-adv-x="616" d="M233 -152v1762h148v-1762h-148z" />
<glyph unicode="}" horiz-adv-x="673" d="M72 -20h49q92 0 120.5 28.5t28.5 130.5v385q0 143 129 205q-129 61 -129 205v385q0 113 -41 141q-27 18 -108 19h-49v131h78q145 0 206.5 -61.5t61.5 -202.5v-392q0 -86 37 -122.5t92 -36.5h51v-131h-51q-55 0 -92 -37t-37 -123v-391q0 -141 -61.5 -203t-206.5 -62h-78 v132z" />
<glyph unicode="~" horiz-adv-x="1052" d="M74 543q84 84 141 112q51 27 123 27q76 0 215 -64q109 -49 160 -49q80 0 172 93l92 -93q-84 -84 -138.5 -111.5t-125.5 -27.5q-78 0 -217 64q-109 49 -160 49q-80 0 -172 -92z" />
<glyph unicode="&#xa1;" horiz-adv-x="595" d="M176 836v172h176v-172h-176zM180 -451l21 1049h127l22 -1049h-170z" />
<glyph unicode="&#xa2;" horiz-adv-x="968" d="M102 750q0 217 101 354q98 131 270 156v198h121v-194q168 -12 297 -152l-100 -94q-92 104 -205 112v-761q113 8 205 112l100 -94q-129 -139 -297 -151v-236h-121v240q-172 25 -271.5 158.5t-99.5 351.5zM250 750q0 -176 65.5 -267.5t165.5 -109.5v753q-100 -18 -164 -106 q-68 -94 -67 -270z" />
<glyph unicode="&#xa3;" horiz-adv-x="1071" d="M70 676v110h129v230q0 207 127 330.5t329 123.5q203 0 334 -131l-106 -104q-96 96 -228 96q-143 0 -221 -87t-78 -249v-209h299v-110h-299v-537h633v-139h-790v676h-129z" />
<glyph unicode="&#xa4;" horiz-adv-x="1300" d="M133 133l152 152q-90 121 -90 270q0 150 90 270l-152 150l94 94l152 -149q117 88 270 88q152 0 269 -88l153 149l94 -94l-151 -150q90 -121 90 -270q0 -150 -90 -270l151 -152l-94 -94l-153 151q-121 -90 -269 -90q-150 0 -270 90l-152 -151zM330 555q0 -131 94 -225 t225 -94t224.5 93t93.5 226t-92.5 225t-225.5 92t-226 -93t-93 -224z" />
<glyph unicode="&#xa5;" horiz-adv-x="1001" d="M-10 1458h168l344 -698l342 698h166l-322 -637h205v-110h-260l-53 -109v-106h313v-113h-313v-383h-158v383h-316v113h316v106l-53 109h-263v110h205z" />
<glyph unicode="&#xa6;" horiz-adv-x="634" d="M233 -152v717h148v-717h-148zM233 893v717h148v-717h-148z" />
<glyph unicode="&#xa7;" horiz-adv-x="1089" d="M152 516q0 119 65 211q57 80 150 125q-190 86 -191 283q0 150 103.5 242.5t265.5 92.5t264 -87t109 -234h-148q-14 190 -225 190q-221 0 -221 -202q0 -147 172 -197l159 -45q133 -37 207 -136.5t74 -238.5q0 -117 -66 -211q-57 -80 -147 -125q199 -74 199 -295 q0 -158 -107.5 -255t-269.5 -97q-160 0 -264 82q-115 90 -123 248h149q18 -195 238 -195q106 0 166.5 56.5t60.5 158.5q0 158 -180 209l-160 45q-281 80 -280 375zM301 518q0 -115 67.5 -188.5t176.5 -73.5t175 72.5t66 189.5q0 123 -65 189q-74 74 -176 73 q-109 0 -176.5 -73.5t-67.5 -188.5z" />
<glyph unicode="&#xa8;" horiz-adv-x="972" d="M195 1233v182h147v-182h-147zM629 1233v182h147v-182h-147z" />
<glyph unicode="&#xa9;" horiz-adv-x="1753" d="M133 729q0 307 217 524t524 217t524.5 -217t217.5 -524t-217 -524t-525 -217q-307 0 -524 217t-217 524zM254 729q0 -260 181 -445.5t439 -185.5t440.5 185.5t182.5 445.5t-182 445.5t-441 185.5q-258 0 -439 -185.5t-181 -445.5zM520 729q0 186 95.5 302t269.5 116 q145 0 268 -109l-74 -73q-90 80 -194 79q-250 0 -250 -315q0 -313 250 -313q106 0 194 78l74 -74q-119 -106 -268 -107q-174 0 -271 119q-94 111 -94 297z" />
<glyph unicode="&#xaa;" horiz-adv-x="868" d="M88 879q0 109 72.5 171t204.5 62h235v74q0 172 -199 172q-135 0 -200 -90l-84 75q96 123 286 123q317 0 318 -270v-543h-119v74q-86 -84 -227 -84q-154 0 -225 74q-61 63 -62 162zM209 883q0 -133 176 -133q123 0 176 51q39 37 39 137v82h-219q-172 0 -172 -137z" />
<glyph unicode="&#xab;" horiz-adv-x="1083" d="M55 549l430 430v-184l-245 -246l245 -248v-182zM518 549l430 430v-184l-248 -246l248 -248v-182z" />
<glyph unicode="&#xac;" horiz-adv-x="1040" d="M164 100v140q0 41 28.5 70.5t69.5 29.5h146q51 0 90 42t39 93v139q0 51 -39 92.5t-90 41.5h-146q-41 0 -69.5 29.5t-28.5 70.5v139q0 41 28.5 70.5t69.5 29.5h146q51 0 90 40t39 92v139q0 43 28.5 71.5t69.5 28.5h143q41 0 70 -29.5t29 -70.5v-139q0 -41 -29 -71t-70 -30 h-143q-51 0 -91 -40t-40 -91v-139q0 -51 40 -92t91 -41h143q41 0 70 -30t29 -71v-139q0 -41 -29 -70.5t-70 -29.5h-143q-51 0 -91 -42t-40 -93v-140q0 -41 -27.5 -70.5t-68.5 -29.5h-146q-41 0 -69.5 29.5t-28.5 70.5z" />
<glyph unicode="&#xad;" horiz-adv-x="821" d="M129 483v138h561v-138h-561z" />
<glyph unicode="&#xae;" horiz-adv-x="1753" d="M133 729q0 307 217 524t524 217t524.5 -217t217.5 -524t-217 -524t-525 -217q-307 0 -524 217t-217 524zM252 729q0 -262 182 -447.5t440 -185.5t441.5 185.5t183.5 447.5t-183 447.5t-442 185.5q-258 0 -440 -185.5t-182 -447.5zM633 324v813h276q106 0 181 -71t75 -173 q0 -170 -174 -223l195 -346h-131l-187 331h-123v-331h-112zM745 752h152q68 0 111 40t43 101t-43 102t-111 41h-152v-284z" />
<glyph unicode="&#xaf;" horiz-adv-x="972" d="M176 1257v117h619v-117h-619z" />
<glyph unicode="&#xb0;" horiz-adv-x="897" d="M111 1141q0 139 99 237.5t239 98.5q139 0 237 -98.5t98 -237.5t-98 -237.5t-237 -98.5t-238.5 98t-99.5 238zM236 1141q0 -92 61 -154.5t152 -62.5q90 0 150 62.5t60 154.5t-61 154.5t-152 62.5q-90 0 -150 -62.5t-60 -154.5z" />
<glyph unicode="&#xb1;" horiz-adv-x="1017" d="M80 0v137h856v-137h-856zM80 592v137h360v358h138v-358h358v-137h-358v-363h-138v363h-360z" />
<glyph unicode="&#xb2;" horiz-adv-x="649" d="M72 584v106l338 414q47 57 47 119q0 137 -133 137t-134 -137h-118q0 111 70.5 177t181.5 66q113 0 182 -66.5t69 -176.5q0 -92 -79 -189l-283 -344h362v-106h-503z" />
<glyph unicode="&#xb3;" horiz-adv-x="677" d="M72 817h118q6 -137 150 -137q66 0 106.5 40t40.5 109q0 150 -153 150h-19v102h19q139 0 139 140q0 66 -39 102.5t-96 36.5q-127 0 -137 -129h-117q6 109 77.5 172t176.5 63q111 0 181.5 -67.5t70.5 -175.5q0 -137 -111 -189q125 -53 125 -205q0 -121 -74.5 -188.5 t-189.5 -67.5q-113 0 -184 60q-80 66 -84 184z" />
<glyph unicode="&#xb4;" horiz-adv-x="972" d="M385 1217l180 313h176l-221 -313h-135z" />
<glyph unicode="&#xb6;" horiz-adv-x="1183" d="M59 1061q0 170 120 283.5t325 113.5h493v-1909h-147v1770h-240v-1770h-147v1119q-178 0 -293 120q-111 115 -111 273z" />
<glyph unicode="&#xb7;" horiz-adv-x="501" d="M154 457v192h192v-192h-192z" />
<glyph unicode="&#xb8;" horiz-adv-x="972" d="M332 -442l145 305h137l-120 -305h-162z" />
<glyph unicode="&#xb9;" horiz-adv-x="483" d="M61 1178v135l170 145h117v-874h-117v743z" />
<glyph unicode="&#xba;" horiz-adv-x="880" d="M111 1055q0 219 98 319q90 92 229 92t230 -92q98 -100 98 -319t-98 -320q-88 -90 -230 -90q-141 0 -229 90q-98 100 -98 320zM233 1055q0 -180 60.5 -240.5t144.5 -60.5t145.5 61.5t61.5 239.5q0 180 -63 243q-57 57 -144 58q-86 0 -145.5 -59.5t-59.5 -241.5z" />
<glyph unicode="&#xbb;" horiz-adv-x="1083" d="M133 119v182l248 248l-248 246v184l430 -430zM596 119v182l246 248l-246 246v184l430 -430z" />
<glyph unicode="&#xbc;" horiz-adv-x="1540" d="M61 1178v135l170 145h117v-874h-117v743zM328 0l682 1458h123l-682 -1458h-123zM920 131v109l309 634h127l-307 -634h223v215h114v-215h97v-109h-97v-131h-114v131h-352z" />
<glyph unicode="&#xbd;" horiz-adv-x="1566" d="M61 1178v135l170 145h117v-874h-117v743zM303 0l682 1458h123l-682 -1458h-123zM989 0v106l338 414q47 57 47 119q0 137 -133 137t-133 -137h-119q0 111 70.5 177.5t181.5 66.5q113 0 182.5 -66.5t69.5 -177.5q0 -90 -80 -188l-280 -345h360v-106h-504z" />
<glyph unicode="&#xbe;" horiz-adv-x="1632" d="M72 817h118q6 -137 150 -137q66 0 106.5 40t40.5 109q0 150 -153 150h-19v102h19q139 0 139 140q0 66 -39 102.5t-96 36.5q-127 0 -137 -129h-117q6 109 77.5 172t176.5 63q111 0 181.5 -67.5t70.5 -175.5q0 -137 -111 -189q125 -53 125 -205q0 -121 -74.5 -188.5 t-189.5 -67.5q-113 0 -184 60q-80 66 -84 184zM434 0l684 1458h123l-684 -1458h-123zM1012 131v109l309 634h127l-309 -634h225v215h115v-215h96v-109h-96v-131h-115v131h-352z" />
<glyph unicode="&#xbf;" horiz-adv-x="966" d="M68 -88q0 111 94 246l168 241q37 53 37 119v82h147v-84q0 -98 -65 -192l-166 -238q-68 -96 -68 -174q0 -102 67.5 -172t170.5 -70q106 0 170.5 71t64.5 171h148q0 -158 -110 -266.5t-273 -108.5q-164 0 -274.5 106.5t-110.5 268.5zM352 836v172h174v-172h-174z" />
<glyph unicode="&#xc0;" horiz-adv-x="1200" d="M-2 0l537 1458h131l534 -1458h-166l-116 330h-637l-117 -330h-166zM328 465h544l-270 770zM335 1913h177l180 -313h-135z" />
<glyph unicode="&#xc1;" horiz-adv-x="1200" d="M-2 0l537 1458h131l534 -1458h-166l-116 330h-637l-117 -330h-166zM328 465h544l-270 770zM491 1600l180 313h176l-221 -313h-135z" />
<glyph unicode="&#xc2;" horiz-adv-x="1200" d="M-2 0l537 1458h131l534 -1458h-166l-116 330h-637l-117 -330h-166zM266 1600l256 313h139l256 -313h-141l-185 213l-184 -213h-141zM328 465h544l-270 770z" />
<glyph unicode="&#xc3;" horiz-adv-x="1200" d="M-2 0l537 1458h131l534 -1458h-166l-116 330h-637l-117 -330h-166zM262 1726q104 104 194 105q66 0 146 -49q68 -41 114 -41q55 0 121 65l76 -73q-104 -104 -195 -105q-63 0 -145 47q-74 43 -115 43q-55 0 -121 -65zM328 465h544l-270 770z" />
<glyph unicode="&#xc4;" horiz-adv-x="1200" d="M-2 0l537 1458h131l534 -1458h-166l-116 330h-637l-117 -330h-166zM301 1616v182h147v-182h-147zM328 465h544l-270 770zM735 1616v182h147v-182h-147z" />
<glyph unicode="&#xc5;" horiz-adv-x="1200" d="M-2 0l537 1458h131l534 -1458h-166l-116 330h-637l-117 -330h-166zM328 465h544l-270 770zM350 1776q0 100 70.5 171t170.5 71t171 -71t71 -171t-70.5 -172t-171.5 -72q-100 0 -170.5 72t-70.5 172zM450 1776q0 -57 42 -99t99 -42q59 0 100.5 42t41.5 99t-41 98t-101 41 q-59 0 -100 -41t-41 -98z" />
<glyph unicode="&#xc6;" horiz-adv-x="1837" d="M-10 0l770 1458h989v-139h-750v-518h639v-139h-639v-523h750v-139h-903v346h-506l-180 -346h-170zM408 481h438v838z" />
<glyph unicode="&#xc7;" horiz-adv-x="1253" d="M129 729q0 268 16 361q27 135 121 229q152 152 373 151q199 0 334 -114.5t172 -319.5h-160q-29 135 -120 215t-226 80q-152 0 -252 -102q-66 -68 -86 -170q-16 -90 -16 -330t16 -330q20 -102 86 -170q100 -102 252 -102q135 0 228.5 80t121.5 215h156 q-35 -203 -172 -318.5t-334 -115.5q-221 0 -373 151q-94 94 -121 230q-16 92 -16 360zM449 -442l145 305h137l-120 -305h-162z" />
<glyph unicode="&#xc8;" horiz-adv-x="1177" d="M184 0v1458h906v-139h-750v-514h639v-139h-639v-527h750v-139h-906zM358 1913h177l180 -313h-135z" />
<glyph unicode="&#xc9;" horiz-adv-x="1177" d="M184 0v1458h906v-139h-750v-514h639v-139h-639v-527h750v-139h-906zM514 1600l180 313h176l-221 -313h-135z" />
<glyph unicode="&#xca;" horiz-adv-x="1177" d="M184 0v1458h906v-139h-750v-514h639v-139h-639v-527h750v-139h-906zM289 1600l256 313h139l256 -313h-141l-185 213l-184 -213h-141z" />
<glyph unicode="&#xcb;" horiz-adv-x="1177" d="M184 0v1458h906v-139h-750v-514h639v-139h-639v-527h750v-139h-906zM324 1616v182h147v-182h-147zM758 1616v182h147v-182h-147z" />
<glyph unicode="&#xcc;" horiz-adv-x="526" d="M36 1913h177l180 -313h-135zM184 0v1458h156v-1458h-156z" />
<glyph unicode="&#xcd;" horiz-adv-x="526" d="M135 1600l180 313h176l-221 -313h-135zM184 0v1458h156v-1458h-156z" />
<glyph unicode="&#xce;" horiz-adv-x="526" d="M-67 1600l256 313h139l256 -313h-141l-185 213l-184 -213h-141zM184 0v1458h156v-1458h-156z" />
<glyph unicode="&#xcf;" horiz-adv-x="526" d="M-30 1616v182h147v-182h-147zM184 0v1458h156v-1458h-156zM404 1616v182h147v-182h-147z" />
<glyph unicode="&#xd0;" horiz-adv-x="1355" d="M53 676v121h160v661h502q276 0 420 -219q61 -94 75 -184q15 -82 15 -326q0 -213 -6 -266q-16 -152 -84 -248q-154 -215 -433 -215h-489v676h-160zM371 137h315q219 0 320 152q43 66 53 143q10 68 10 289q0 219 -10 293q-14 92 -64 160q-106 147 -309 147h-315v-524h329 v-121h-329v-539z" />
<glyph unicode="&#xd1;" horiz-adv-x="1447" d="M184 0v1458h148l774 -1165v1165h156v-1458h-148l-774 1169v-1169h-156zM394 1726q104 104 194 105q66 0 146 -49q68 -41 114 -41q55 0 121 65l76 -73q-104 -104 -195 -105q-63 0 -145 47q-74 43 -115 43q-55 0 -121 -65z" />
<glyph unicode="&#xd2;" horiz-adv-x="1280" d="M129 729q0 268 16 361q27 135 121 229q152 152 373 151q221 0 373 -151q94 -94 121 -229q16 -93 16 -361t-16 -360q-27 -135 -121 -230q-152 -152 -373 -151q-221 0 -373 151q-94 94 -121 230q-16 92 -16 360zM285 729q0 -240 16 -328q20 -102 86 -170q102 -104 252 -104 t252 104q66 68 86 170q16 88 16 328t-16 328q-20 102 -86 170q-102 104 -252 104t-252 -104q-66 -68 -86 -170q-16 -88 -16 -328zM383 1913h177l180 -313h-135z" />
<glyph unicode="&#xd3;" horiz-adv-x="1280" d="M129 729q0 268 16 361q27 135 121 229q152 152 373 151q221 0 373 -151q94 -94 121 -229q16 -93 16 -361t-16 -360q-27 -135 -121 -230q-152 -152 -373 -151q-221 0 -373 151q-94 94 -121 230q-16 92 -16 360zM285 729q0 -240 16 -328q20 -102 86 -170q102 -104 252 -104 t252 104q66 68 86 170q16 88 16 328t-16 328q-20 102 -86 170q-102 104 -252 104t-252 -104q-66 -68 -86 -170q-16 -88 -16 -328zM539 1600l180 313h176l-221 -313h-135z" />
<glyph unicode="&#xd4;" horiz-adv-x="1280" d="M129 729q0 268 16 361q27 135 121 229q152 152 373 151q221 0 373 -151q94 -94 121 -229q16 -93 16 -361t-16 -360q-27 -135 -121 -230q-152 -152 -373 -151q-221 0 -373 151q-94 94 -121 230q-16 92 -16 360zM285 729q0 -240 16 -328q20 -102 86 -170q102 -104 252 -104 t252 104q66 68 86 170q16 88 16 328t-16 328q-20 102 -86 170q-102 104 -252 104t-252 -104q-66 -68 -86 -170q-16 -88 -16 -328zM314 1600l256 313h139l256 -313h-141l-185 213l-184 -213h-141z" />
<glyph unicode="&#xd5;" horiz-adv-x="1280" d="M129 729q0 268 16 361q27 135 121 229q152 152 373 151q221 0 373 -151q94 -94 121 -229q16 -93 16 -361t-16 -360q-27 -135 -121 -230q-152 -152 -373 -151q-221 0 -373 151q-94 94 -121 230q-16 92 -16 360zM285 729q0 -240 16 -328q20 -102 86 -170q102 -104 252 -104 t252 104q66 68 86 170q16 88 16 328t-16 328q-20 102 -86 170q-102 104 -252 104t-252 -104q-66 -68 -86 -170q-16 -88 -16 -328zM310 1726q104 104 194 105q66 0 146 -49q68 -41 114 -41q55 0 121 65l76 -73q-104 -104 -195 -105q-63 0 -145 47q-74 43 -115 43 q-55 0 -121 -65z" />
<glyph unicode="&#xd6;" horiz-adv-x="1280" d="M129 729q0 268 16 361q27 135 121 229q152 152 373 151q221 0 373 -151q94 -94 121 -229q16 -93 16 -361t-16 -360q-27 -135 -121 -230q-152 -152 -373 -151q-221 0 -373 151q-94 94 -121 230q-16 92 -16 360zM285 729q0 -240 16 -328q20 -102 86 -170q102 -104 252 -104 t252 104q66 68 86 170q16 88 16 328t-16 328q-20 102 -86 170q-102 104 -252 104t-252 -104q-66 -68 -86 -170q-16 -88 -16 -328zM349 1616v182h147v-182h-147zM783 1616v182h147v-182h-147z" />
<glyph unicode="&#xd7;" horiz-adv-x="1017" d="M106 244l310 309l-310 309l93 92l309 -311l309 311l92 -92l-311 -309l311 -309l-92 -92l-309 309l-309 -309z" />
<glyph unicode="&#xd8;" horiz-adv-x="1284" d="M129 729q0 268 16 361q27 135 121 229q152 152 373 151q143 0 256 -63l70 141h133l-103 -213q6 -6 17 -16q94 -94 121 -232q16 -90 16 -358t-16 -360q-27 -135 -121 -230q-152 -152 -373 -151q-143 0 -258 65l-68 -143h-133l103 213l-17 16q-94 94 -121 232 q-16 90 -16 358zM285 729q0 -213 12 -297q14 -102 59 -164l480 1004q-92 59 -197 59q-150 0 -252 -104q-66 -68 -86 -170q-16 -88 -16 -328zM442 186q92 -59 197 -59q150 0 252 104q66 68 84 170q16 86 16 328q0 215 -10 299q-14 100 -59 162z" />
<glyph unicode="&#xd9;" horiz-adv-x="1345" d="M164 481v977h155v-964q0 -166 96.5 -266.5t256.5 -100.5t257 100.5t97 266.5v964h156v-977q0 -217 -144.5 -355t-365.5 -138t-364.5 138t-143.5 355zM415 1913h177l180 -313h-135z" />
<glyph unicode="&#xda;" horiz-adv-x="1345" d="M164 481v977h155v-964q0 -166 96.5 -266.5t256.5 -100.5t257 100.5t97 266.5v964h156v-977q0 -217 -144.5 -355t-365.5 -138t-364.5 138t-143.5 355zM571 1600l180 313h176l-221 -313h-135z" />
<glyph unicode="&#xdb;" horiz-adv-x="1345" d="M164 481v977h155v-964q0 -166 96.5 -266.5t256.5 -100.5t257 100.5t97 266.5v964h156v-977q0 -217 -144.5 -355t-365.5 -138t-364.5 138t-143.5 355zM346 1600l256 313h139l256 -313h-141l-185 213l-184 -213h-141z" />
<glyph unicode="&#xdc;" horiz-adv-x="1345" d="M164 481v977h155v-964q0 -166 96.5 -266.5t256.5 -100.5t257 100.5t97 266.5v964h156v-977q0 -217 -144.5 -355t-365.5 -138t-364.5 138t-143.5 355zM381 1616v182h147v-182h-147zM815 1616v182h147v-182h-147z" />
<glyph unicode="&#xdd;" horiz-adv-x="1003" d="M-10 1458h168l344 -698l340 698h168l-430 -856v-602h-156v602zM399 1600l180 313h176l-221 -313h-135z" />
<glyph unicode="&#xde;" horiz-adv-x="1263" d="M184 0v1458h156v-293h387q201 0 326 -117.5t125 -312.5t-125 -311.5t-326 -116.5h-387v-307h-156zM340 446h373q141 0 225 74t84 215t-84 215t-225 74h-373v-578z" />
<glyph unicode="&#xdf;" horiz-adv-x="1087" d="M158 0v1073q0 190 110.5 295t300.5 105q174 0 279 -82q117 -90 117 -258q0 -160 -129 -244q74 -39 101.5 -93.5t27.5 -152.5v-354q0 -141 -80 -215t-211 -74h-111v127h82q72 0 122 41t50 137v346q0 84 -43 127t-121 43h-90v123h74q80 0 130 50t50 136q0 94 -63.5 153.5 t-192.5 59.5q-254 0 -254 -276v-1067h-149z" />
<glyph unicode="&#xe0;" horiz-adv-x="1026" d="M78 285q0 135 91 212.5t257 77.5h303v97q0 221 -258 221q-172 0 -254 -115l-100 92q66 84 151 119q78 31 205 31q403 0 404 -336v-684h-148v96q-109 -109 -291 -108q-195 0 -284 92q-76 78 -76 205zM221 287q0 -172 232 -172q156 0 225 67q51 49 51 174v109h-283 q-225 0 -225 -178zM233 1530h177l180 -313h-135z" />
<glyph unicode="&#xe1;" horiz-adv-x="1026" d="M78 285q0 135 91 212.5t257 77.5h303v97q0 221 -258 221q-172 0 -254 -115l-100 92q66 84 151 119q78 31 205 31q403 0 404 -336v-684h-148v96q-109 -109 -291 -108q-195 0 -284 92q-76 78 -76 205zM221 287q0 -172 232 -172q156 0 225 67q51 49 51 174v109h-283 q-225 0 -225 -178zM389 1217l180 313h176l-221 -313h-135z" />
<glyph unicode="&#xe2;" horiz-adv-x="1026" d="M78 285q0 135 91 212.5t257 77.5h303v97q0 221 -258 221q-172 0 -254 -115l-100 92q66 84 151 119q78 31 205 31q403 0 404 -336v-684h-148v96q-109 -109 -291 -108q-195 0 -284 92q-76 78 -76 205zM164 1217l256 313h139l256 -313h-141l-185 213l-184 -213h-141z M221 287q0 -172 232 -172q156 0 225 67q51 49 51 174v109h-283q-225 0 -225 -178z" />
<glyph unicode="&#xe3;" horiz-adv-x="1026" d="M78 285q0 135 91 212.5t257 77.5h303v97q0 221 -258 221q-172 0 -254 -115l-100 92q66 84 151 119q78 31 205 31q403 0 404 -336v-684h-148v96q-109 -109 -291 -108q-195 0 -284 92q-76 78 -76 205zM160 1343q104 104 194 105q66 0 146 -49q68 -41 114 -41q55 0 121 65 l76 -73q-104 -104 -195 -105q-63 0 -145 47q-74 43 -115 43q-55 0 -121 -65zM221 287q0 -172 232 -172q156 0 225 67q51 49 51 174v109h-283q-225 0 -225 -178z" />
<glyph unicode="&#xe4;" horiz-adv-x="1026" d="M78 285q0 135 91 212.5t257 77.5h303v97q0 221 -258 221q-172 0 -254 -115l-100 92q66 84 151 119q78 31 205 31q403 0 404 -336v-684h-148v96q-109 -109 -291 -108q-195 0 -284 92q-76 78 -76 205zM199 1233v182h147v-182h-147zM221 287q0 -172 232 -172q156 0 225 67 q51 49 51 174v109h-283q-225 0 -225 -178zM633 1233v182h147v-182h-147z" />
<glyph unicode="&#xe5;" horiz-adv-x="1026" d="M78 285q0 135 91 212.5t257 77.5h303v97q0 221 -258 221q-172 0 -254 -115l-100 92q66 84 151 119q78 31 205 31q403 0 404 -336v-684h-148v96q-109 -109 -291 -108q-195 0 -284 92q-76 78 -76 205zM221 287q0 -172 232 -172q156 0 225 67q51 49 51 174v109h-283 q-225 0 -225 -178zM248 1407q0 100 70.5 171t170.5 71t171 -71t71 -171t-70.5 -172t-171.5 -72q-100 0 -170.5 72t-70.5 172zM348 1407q0 -57 42 -99t99 -42q59 0 100.5 42t41.5 99t-41 98t-101 41q-59 0 -100 -41t-41 -98z" />
<glyph unicode="&#xe6;" horiz-adv-x="1658" d="M78 285q0 135 91 212.5t257 77.5h303v97q0 221 -258 221q-172 0 -254 -115l-100 92q66 84 151 119q78 31 205 31q270 0 354 -158q106 158 316 158q195 0 304 -131t109 -357v-67h-682q0 -166 78 -257t222 -91q147 0 262 114l102 -88q-156 -156 -373 -155q-250 0 -358 174 q-68 -96 -152 -135t-217 -39q-195 0 -284 92q-76 78 -76 205zM221 287q0 -172 232 -172q156 0 225 67q51 49 51 174v109h-283q-225 0 -225 -178zM874 575h535q-6 106 -31 168q-63 152 -235 152t-236 -152q-29 -66 -33 -168z" />
<glyph unicode="&#xe7;" horiz-adv-x="960" d="M102 504q0 250 129 387q119 129 318 129q106 0 180 -33t152 -117l-101 -94q-102 113 -231 113q-152 0 -234 -115q-66 -92 -65 -270q0 -178 65 -271q82 -115 234 -114q127 0 231 114l101 -96q-78 -84 -152 -116.5t-180 -32.5q-199 0 -318 129q-129 137 -129 387zM332 -442 l145 305h137l-120 -305h-162z" />
<glyph unicode="&#xe8;" d="M102 504q0 244 111 380t303 136q195 0 304.5 -131t109.5 -357v-67h-680q0 -166 76.5 -257t220.5 -91q150 0 264 114l100 -88q-82 -82 -157 -116q-88 -39 -211 -39q-207 0 -320 125q-121 131 -121 391zM250 575h532q-6 106 -30 168q-63 152 -236 152q-172 0 -235 -152 q-25 -61 -31 -168zM266 1530h177l180 -313h-135z" />
<glyph unicode="&#xe9;" d="M102 504q0 244 111 380t303 136q195 0 304.5 -131t109.5 -357v-67h-680q0 -166 76.5 -257t220.5 -91q150 0 264 114l100 -88q-82 -82 -157 -116q-88 -39 -211 -39q-207 0 -320 125q-121 131 -121 391zM250 575h532q-6 106 -30 168q-63 152 -236 152q-172 0 -235 -152 q-25 -61 -31 -168zM422 1217l180 313h176l-221 -313h-135z" />
<glyph unicode="&#xea;" d="M102 504q0 244 111 380t303 136q195 0 304.5 -131t109.5 -357v-67h-680q0 -166 76.5 -257t220.5 -91q150 0 264 114l100 -88q-82 -82 -157 -116q-88 -39 -211 -39q-207 0 -320 125q-121 131 -121 391zM197 1217l256 313h139l256 -313h-141l-185 213l-184 -213h-141z M250 575h532q-6 106 -30 168q-63 152 -236 152q-172 0 -235 -152q-25 -61 -31 -168z" />
<glyph unicode="&#xeb;" d="M102 504q0 244 111 380t303 136q195 0 304.5 -131t109.5 -357v-67h-680q0 -166 76.5 -257t220.5 -91q150 0 264 114l100 -88q-82 -82 -157 -116q-88 -39 -211 -39q-207 0 -320 125q-121 131 -121 391zM232 1233v182h147v-182h-147zM250 575h532q-6 106 -30 168 q-63 152 -236 152q-172 0 -235 -152q-25 -61 -31 -168zM666 1233v182h147v-182h-147z" />
<glyph unicode="&#xec;" horiz-adv-x="466" d="M10 1530h177l180 -313h-135zM158 0v1008h147v-1008h-147z" />
<glyph unicode="&#xed;" horiz-adv-x="466" d="M109 1217l180 313h176l-221 -313h-135zM158 0v1008h147v-1008h-147z" />
<glyph unicode="&#xee;" horiz-adv-x="466" d="M-94 1217l256 313h139l256 -313h-141l-185 213l-184 -213h-141zM158 0v1008h147v-1008h-147z" />
<glyph unicode="&#xef;" horiz-adv-x="466" d="M-63 1233v182h147v-182h-147zM158 0v1008h147v-1008h-147zM371 1233v182h147v-182h-147z" />
<glyph unicode="&#xf0;" d="M109 500q0 276 120 399q96 98 250 107q96 6 154 -21l-119 203h-238v106h181l-97 168h154l96 -168h168v-106h-110l129 -227q76 -133 102.5 -225.5t26.5 -235.5q0 -274 -123 -400q-111 -113 -287 -112q-176 0 -287 112q-121 123 -120 400zM256 500q0 -227 80 -307 q74 -74 180 -74q109 0 185.5 77t76.5 304q0 229 -80 309q-74 74 -182 74q-106 0 -180 -74q-80 -80 -80 -309z" />
<glyph unicode="&#xf1;" horiz-adv-x="1099" d="M158 0v1008h147v-111q109 123 283 123q162 0 258 -94q104 -102 104 -281v-645h-147v621q0 268 -248 268q-117 0 -183.5 -69.5t-66.5 -198.5v-621h-147zM228 1343q104 104 194 105q66 0 146 -49q68 -41 114 -41q55 0 121 65l76 -73q-104 -104 -195 -105q-63 0 -145 47 q-74 43 -115 43q-55 0 -121 -65z" />
<glyph unicode="&#xf2;" d="M104 504q0 276 123 401q113 115 289 115t289 -115q123 -125 123 -401t-123 -402q-113 -115 -289 -114q-176 0 -289 114q-123 125 -123 402zM239 1530h177l180 -313h-135zM252 504q0 -229 82 -311q74 -74 182 -74q111 0 187.5 77t76.5 308t-80 311q-74 74 -184 74 q-109 0 -182 -74q-82 -82 -82 -311z" />
<glyph unicode="&#xf3;" d="M104 504q0 276 123 401q113 115 289 115t289 -115q123 -125 123 -401t-123 -402q-113 -115 -289 -114q-176 0 -289 114q-123 125 -123 402zM252 504q0 -229 82 -311q74 -74 182 -74q111 0 187.5 77t76.5 308t-80 311q-74 74 -184 74q-109 0 -182 -74q-82 -82 -82 -311z M416 1217l180 313h176l-221 -313h-135z" />
<glyph unicode="&#xf4;" d="M104 504q0 276 123 401q113 115 289 115t289 -115q123 -125 123 -401t-123 -402q-113 -115 -289 -114q-176 0 -289 114q-123 125 -123 402zM191 1217l256 313h139l256 -313h-141l-185 213l-184 -213h-141zM252 504q0 -229 82 -311q74 -74 182 -74q111 0 187.5 77 t76.5 308t-80 311q-74 74 -184 74q-109 0 -182 -74q-82 -82 -82 -311z" />
<glyph unicode="&#xf5;" d="M104 504q0 276 123 401q113 115 289 115t289 -115q123 -125 123 -401t-123 -402q-113 -115 -289 -114q-176 0 -289 114q-123 125 -123 402zM187 1343q104 104 194 105q66 0 146 -49q68 -41 114 -41q55 0 121 65l76 -73q-104 -104 -195 -105q-63 0 -145 47q-74 43 -115 43 q-55 0 -121 -65zM252 504q0 -229 82 -311q74 -74 182 -74q111 0 187.5 77t76.5 308t-80 311q-74 74 -184 74q-109 0 -182 -74q-82 -82 -82 -311z" />
<glyph unicode="&#xf6;" d="M104 504q0 276 123 401q113 115 289 115t289 -115q123 -125 123 -401t-123 -402q-113 -115 -289 -114q-176 0 -289 114q-123 125 -123 402zM226 1233v182h147v-182h-147zM252 504q0 -229 82 -311q74 -74 182 -74q111 0 187.5 77t76.5 308t-80 311q-74 74 -184 74 q-109 0 -182 -74q-82 -82 -82 -311zM660 1233v182h147v-182h-147z" />
<glyph unicode="&#xf7;" horiz-adv-x="1017" d="M78 483v138h860v-138h-860zM420 100v176h176v-176h-176zM420 827v177h176v-177h-176z" />
<glyph unicode="&#xf8;" d="M104 504q0 276 123 401q113 115 289 115q121 0 215 -55l80 133h115l-117 -197q119 -123 119 -397q0 -276 -123 -402q-113 -115 -289 -114q-121 0 -215 55l-78 -133h-117l117 196q-119 123 -119 398zM252 504q0 -188 51 -273l361 615q-61 43 -148 43q-109 0 -182 -74 q-82 -82 -82 -311zM369 164q63 -45 147 -45q111 0 187.5 77t76.5 308q0 193 -49 272z" />
<glyph unicode="&#xf9;" horiz-adv-x="1101" d="M147 365v643h148v-621q0 -268 246 -268q117 0 184.5 69.5t67.5 198.5v621h147v-1008h-145v113q-109 -125 -285 -125q-164 0 -260 94q-102 100 -103 283zM286 1530h177l180 -313h-135z" />
<glyph unicode="&#xfa;" horiz-adv-x="1101" d="M147 365v643h148v-621q0 -268 246 -268q117 0 184.5 69.5t67.5 198.5v621h147v-1008h-145v113q-109 -125 -285 -125q-164 0 -260 94q-102 100 -103 283zM442 1217l180 313h176l-221 -313h-135z" />
<glyph unicode="&#xfb;" horiz-adv-x="1101" d="M147 365v643h148v-621q0 -268 246 -268q117 0 184.5 69.5t67.5 198.5v621h147v-1008h-145v113q-109 -125 -285 -125q-164 0 -260 94q-102 100 -103 283zM217 1217l256 313h139l256 -313h-141l-185 213l-184 -213h-141z" />
<glyph unicode="&#xfc;" horiz-adv-x="1101" d="M147 365v643h148v-621q0 -268 246 -268q117 0 184.5 69.5t67.5 198.5v621h147v-1008h-145v113q-109 -125 -285 -125q-164 0 -260 94q-102 100 -103 283zM252 1233v182h147v-182h-147zM686 1233v182h147v-182h-147z" />
<glyph unicode="&#xfd;" horiz-adv-x="862" d="M-4 1008h160l276 -809l275 809h159l-458 -1252q-29 -78 -72 -118q-74 -70 -197 -70h-63v131h45q74 0 106.5 26.5t59.5 98.5l71 196zM330 1217l180 313h176l-221 -313h-135z" />
<glyph unicode="&#xfe;" horiz-adv-x="1067" d="M158 -451v1909h147v-567q100 129 285 129q158 0 246 -88q122 -123 122 -428t-122 -428q-88 -88 -246 -88q-182 0 -285 131v-570h-147zM305 504q0 -178 45 -266q59 -119 209 -119t209 119q43 88 43 266t-43 266q-59 119 -209 119t-209 -119q-45 -88 -45 -266z" />
<glyph unicode="&#xff;" horiz-adv-x="862" d="M-4 1008h160l276 -809l275 809h159l-458 -1252q-29 -78 -72 -118q-74 -70 -197 -70h-63v131h45q74 0 106.5 26.5t59.5 98.5l71 196zM140 1233v182h147v-182h-147zM574 1233v182h147v-182h-147z" />
<glyph unicode="&#x152;" horiz-adv-x="1974" d="M129 729q0 266 18 361q25 135 119 229q152 152 371 151q221 0 354 -163v151h889v-137h-733q0 -80 2 -260v-260h623v-131h-623v-267q-2 -184 -2 -266h737v-137h-893v152q-133 -164 -354 -164q-219 0 -371 151q-94 94 -119 230q-18 94 -18 360zM285 729q0 -240 16 -328 q20 -102 86 -170q102 -104 252 -104t252 104q66 68 84 170q16 86 16 328t-16 328q-18 102 -84 170q-102 104 -252 104t-252 -104q-66 -68 -86 -170q-16 -88 -16 -328z" />
<glyph unicode="&#x153;" horiz-adv-x="1712" d="M104 504q0 276 123 401q113 115 289 115q244 0 344 -195q104 195 334 195q195 0 304.5 -131t109.5 -357v-67h-680q0 -166 76.5 -257t220.5 -91q150 0 264 114l100 -88q-82 -82 -157 -116q-88 -39 -211 -39q-254 0 -363 194q-100 -195 -342 -194q-176 0 -289 114 q-123 125 -123 402zM252 504q0 -229 82 -311q74 -74 182 -74q111 0 187.5 77t76.5 308t-80 311q-74 74 -184 74q-109 0 -182 -74q-82 -82 -82 -311zM928 575h534q-4 102 -32 168q-63 152 -236 152q-172 0 -236 -152q-25 -61 -30 -168z" />
<glyph unicode="&#x178;" horiz-adv-x="1003" d="M-10 1458h168l344 -698l340 698h168l-430 -856v-602h-156v602zM209 1616v182h147v-182h-147zM643 1616v182h147v-182h-147z" />
<glyph unicode="&#x2c6;" horiz-adv-x="972" d="M160 1217l256 313h139l256 -313h-141l-185 213l-184 -213h-141z" />
<glyph unicode="&#x2dc;" horiz-adv-x="972" d="M156 1343q104 104 194 105q66 0 146 -49q68 -41 114 -41q55 0 121 65l76 -73q-104 -104 -195 -105q-63 0 -145 47q-74 43 -115 43q-55 0 -121 -65z" />
<glyph unicode="&#x2000;" horiz-adv-x="1009" />
<glyph unicode="&#x2001;" horiz-adv-x="2018" />
<glyph unicode="&#x2002;" horiz-adv-x="1009" />
<glyph unicode="&#x2003;" horiz-adv-x="2018" />
<glyph unicode="&#x2004;" horiz-adv-x="672" />
<glyph unicode="&#x2005;" horiz-adv-x="504" />
<glyph unicode="&#x2006;" horiz-adv-x="336" />
<glyph unicode="&#x2007;" horiz-adv-x="336" />
<glyph unicode="&#x2008;" horiz-adv-x="252" />
<glyph unicode="&#x2009;" horiz-adv-x="403" />
<glyph unicode="&#x200a;" horiz-adv-x="112" />
<glyph unicode="&#x2010;" horiz-adv-x="821" d="M129 483v138h561v-138h-561z" />
<glyph unicode="&#x2011;" horiz-adv-x="821" d="M129 483v138h561v-138h-561z" />
<glyph unicode="&#x2012;" horiz-adv-x="821" d="M129 483v138h561v-138h-561z" />
<glyph unicode="&#x2013;" horiz-adv-x="1017" d="M80 483v138h856v-138h-856z" />
<glyph unicode="&#x2014;" horiz-adv-x="1820" d="M129 483v140h1561v-140h-1561z" />
<glyph unicode="&#x2018;" horiz-adv-x="487" d="M154 1286v172l178 162v-334h-178z" />
<glyph unicode="&#x2019;" horiz-adv-x="487" d="M154 1124v334h178v-172z" />
<glyph unicode="&#x201a;" horiz-adv-x="487" d="M154 -162v334h178v-172z" />
<glyph unicode="&#x201c;" horiz-adv-x="837" d="M154 1286v172l178 162v-334h-178zM502 1286v172l180 162v-334h-180z" />
<glyph unicode="&#x201d;" horiz-adv-x="837" d="M154 1124v334h178v-172zM502 1124v334h180v-172z" />
<glyph unicode="&#x201e;" horiz-adv-x="837" d="M154 -162v334h178v-172zM502 -162v334h180v-172z" />
<glyph unicode="&#x2022;" horiz-adv-x="1038" d="M184 684q0 139 98.5 236.5t235.5 97.5q139 0 236.5 -97.5t97.5 -236.5q0 -137 -97.5 -235.5t-236.5 -98.5q-137 0 -235.5 98.5t-98.5 235.5z" />
<glyph unicode="&#x2026;" horiz-adv-x="1499" d="M154 0v188h188v-188h-188zM653 0v188h189v-188h-189zM1155 0v188h188v-188h-188z" />
<glyph unicode="&#x202f;" horiz-adv-x="403" />
<glyph unicode="&#x2039;" horiz-adv-x="620" d="M55 549l430 430v-184l-245 -246l245 -248v-182z" />
<glyph unicode="&#x203a;" horiz-adv-x="620" d="M133 119v182l248 248l-248 246v184l430 -430z" />
<glyph unicode="&#x205f;" horiz-adv-x="504" />
<glyph unicode="&#x2122;" horiz-adv-x="1667" d="M47 1350v108h604v-108h-243v-766h-119v766h-242zM805 584v874h119l266 -530l266 530h117v-874h-117v630l-209 -413h-114l-209 413v-630h-119z" />
<glyph unicode="&#x25fc;" horiz-adv-x="1003" d="M0 0v1004h1004v-1004h-1004z" />
</font>
</defs>
</svg>
